{
.appVersion = "1306";
DisplayStrings = (
"Handgloves/space",
"/alef-ar.short/alefHamzaabove-ar/hamzaabove-ar",
"/qaf-ar/beh-ar/alef-ar/yehHamzaabove-ar/lam-ar/space/alef-ar/lam-ar/ain-ar/reh-ar/beh-ar \012/teh-ar/sad-ar/noon-ar/yeh-ar/feh-ar :/qaf-ar/beh-ar/alef-ar/yehHamzaabove-ar/lam-ar/space/alef-ar/lam-ar/ain-ar/reh-ar/beh-ar/space/feh-ar/yeh-ar/space/alef-ar/lam-ar/jeem-ar/alef-ar/heh-ar/lam-ar/yeh-ar/tehMarbuta-ar/space -/space/waw-ar/yeh-ar/kaf-ar/yeh-ar/beh-ar/yeh-ar/dal-ar/yeh-ar/alef-ar/comma-ar/space/alef-ar/lam-ar/meem-ar/waw-ar/seen-ar/waw-ar/space/ain-ar/space/ain-ar/tehMarbuta-ar/space/alef-ar/lam-ar/hah-ar/reh-ar/tehMarbuta-ar",
"/dal-ar"
);
classes = (
{
automatic = 1;
code = "alef-ar alef-ar.fina alefHamzaabove-ar alefHamzaabove-ar.fina alefHamzabelow-ar alefHamzabelow-ar.fina alefMadda-ar alefMadda-ar.fina alefMaksura-ar alefWasla-ar alefWasla-ar.fina dal-ar dal-ar.fina lam_alef-ar lam_alef-ar.fina lam_alefHamzaabove-ar lam_alefHamzaabove-ar.fina lam_alefHamzabelow-ar lam_alefHamzabelow-ar.fina lam_alefMadda-ar lam_alefMadda-ar.fina lam_alefWasla-ar lam_alefWasla-ar.fina noonghunna-ar noonghunna-ar.fina reh-ar reh-ar.fina tehMarbuta-ar thal-ar thal-ar.fina waw-ar waw-ar.fina wawHamzaabove-ar wawHamzaabove-ar.fina zain-ar zain-ar.fina";
name = ArabicLetters;
}
);
copyright = "Copyright (c) 2007 by Jens Kutilek. All rights reserved.";
customParameters = (
{
name = vendorID;
value = JENS;
},
{
name = license;
value = "SIL Open Font License";
},
{
name = licenseURL;
value = "https://scripts.sil.org/OFL";
}
);
date = "2007-04-10 19:37:00 +0000";
designer = "Jens Kutilek";
designerURL = "https://www.kutilek.de/";
familyName = Schema;
featurePrefixes = (
{
automatic = 1;
code = "languagesystem DFLT dflt;\012\012languagesystem arab dflt;\012";
name = Languagesystems;
}
);
features = (
{
automatic = 1;

glyphs = (
{
glyphname = A;
lastChange = "2017-03-25 20:15:21 +0000";
layers = (
{
anchors = (
{
name = bottom;
position = "{326, 0}";
},
{
name = ogonek;
position = "{587, 10}";
},
{
name = top;
position = "{326, 700}";
}
);
guideLines = (
{
position = "{0, 400}";
},
{
angle = 90;
position = "{326, 0}";
},
{
angle = 90;
position = "{265, 0}";
},
{
angle = 90;
position = "{387, 0}";
}
);
layerId = "65DE19D7-C0F2-4D8D-9C1D-34999E633ECA";
paths = (
{
closed = 1;
nodes = (
"11 0 LINE",
"133 0 LINE",
"337 646 LINE",
"341 705 LINE",
"308 705 LINE SMOOTH",
"241 705 OFFCURVE",
"220 657 OFFCURVE",
"204 606 CURVE SMOOTH"
);
},
{
closed = 1;
nodes = (
"449 604 LINE SMOOTH",
"432 657 OFFCURVE",
"409 705 OFFCURVE",
"345 705 CURVE SMOOTH",
"311 705 LINE",
"315 650 LINE",
"519 0 LINE",
"641 0 LINE"
);
},
{
closed = 1;
nodes = (
"180 179 LINE",
"499 179 LINE",
"499 281 LINE",
"180 281 LINE"
);
},
{
closed = 1;
nodes = (
"254 600 LINE",
"376 600 LINE",
"376 659 LINE",
"254 659 LINE"
);
}
);
width = 652;
},
{
anchors = (
{
name = bottom;
position = "{292, 0}";
},
{
name = ogonek;
position = "{526, 10}";
},
{
name = top;
position = "{292, 700}";
}
);
guideLines = (
{
angle = 90;
position = "{292, 0}";
}
);
layerId = "FCEAB5BF-AFE7-45BC-83DB-D0DE89866BD6";
paths = (
{
closed = 1;
nodes = (
"0 0 LINE {name = hr00;}",
"68 0 LINE",
"298 710 LINE",
"230 710 LINE"
);
},
{
closed = 1;
nodes = (
"516 0 LINE",
"584 0 LINE",
"354 710 LINE",
"286 710 LINE"
);
},
{
closed = 1;
nodes = (
"98 173 LINE",
"489 173 LINE",
"489 228 LINE",
"98 228 LINE"
);
}
);
width = 584;
}
);
unicode = 0041;
userData = {
com.typemytype.robofont.guides = (
{
angle = 0;
isGlobal = 0;
magnetic = 5;
x = 0;
y = 400;
},
{
angle = 90;
isGlobal = 0;
magnetic = 5;
x = 326;
y = 0;
},
{
angle = 90;
isGlobal = 0;
magnetic = 5;
x = 265;
y = 0;
},
{
angle = 90;
isGlobal = 0;
magnetic = 5;
x = 387;
y = 0;
}
);
};
},
{
glyphname = B;
lastChange = "2017-03-25 20:15:23 +0000";
layers = (
{
anchors = (
{
name = bottom;
position = "{320, 0}";
},
{
name = top;
position = "{320, 700}";
}
);
guideLines = (
{
position = "{0, 401}";
},
{
position = "{0, 298}";
}
);
layerId = "65DE19D7-C0F2-4D8D-9C1D-34999E633ECA";
paths = (
{
closed = 1;
nodes = (
"569 488 CURVE SMOOTH {name = hr00;}",
"569 614 OFFCURVE",
"485 700 OFFCURVE",
"318 700 CURVE SMOOTH",
"65 700 LINE",
"65 304 LINE",
"346 304 LINE SMOOTH",
"486 304 OFFCURVE",
"569 392 OFFCURVE"
);
},
{
closed = 1;
nodes = (
"187 598 LINE",
"326 598 LINE SMOOTH",
"408 598 OFFCURVE",
"448 557 OFFCURVE",
"448 476 CURVE SMOOTH",
"448 355 LINE",
"308 406 LINE",
"187 406 LINE"
);
},
{
closed = 1;
nodes = (
"589 189 CURVE SMOOTH",
"589 322 OFFCURVE",
"505 406 OFFCURVE",
"338 406 CURVE SMOOTH",
"65 406 LINE",
"65 0 LINE",
"366 0 LINE SMOOTH",
"506 0 OFFCURVE",
"589 84 OFFCURVE"
);
},
{
closed = 1;
nodes = (
"187 304 LINE",
"346 304 LINE SMOOTH",
"428 304 OFFCURVE",
"468 263 OFFCURVE",
"468 182 CURVE SMOOTH",
"468 102 LINE",
"187 102 LINE"
);
}
);
width = 639;
},
{
anchors = (
{
name = bottom;
position = "{336, 0}";
},
{
name = top;
position = "{336, 700}";
}
);
layerId = "FCEAB5BF-AFE7-45BC-83DB-D0DE89866BD6";
paths = (
{
closed = 1;
nodes = (
"70 700 LINE {name = hr00;}",
"70 0 LINE",
"450 0 LINE SMOOTH",
"550 0 OFFCURVE",
"610 60 OFFCURVE",
"610 140 CURVE SMOOTH",
"610 240 LINE SMOOTH",
"610 293 OFFCURVE",
"592 336 OFFCURVE",
"558 363 CURVE",
"572 385 OFFCURVE",
"580 411 OFFCURVE",
"580 440 CURVE SMOOTH",
"580 540 LINE SMOOTH",
"580 640 OFFCURVE",
"519 700 OFFCURVE",
"400 700 CURVE SMOOTH"
);
},
{
closed = 1;
nodes = (
"190 300 LINE",
"430 300 LINE SMOOTH",
"469 300 OFFCURVE",
"490 280 OFFCURVE",
"490 240 CURVE SMOOTH",
"490 100 LINE",
"190 100 LINE"
);
},
{
closed = 1;
nodes = (
"190 600 LINE",
"400 600 LINE SMOOTH",
"439 600 OFFCURVE",
"460 580 OFFCURVE",
"460 540 CURVE SMOOTH",
"460 398 LINE",
"450 399 OFFCURVE",
"440 400 OFFCURVE",
"430 400 CURVE SMOOTH",
"190 400 LINE"
);
}
);
width = 671;
}
);
leftKerningGroup = E;
unicode = 0042;
userData = {
com.typemytype.robofont.guides = (
{
angle = 0;
isGlobal = 0;
magnetic = 5;
x = 0;
y = 401;
},
{
angle = 0;
isGlobal = 0;
magnetic = 5;
x = 0;
y = 298;
}
);
};
},
{
glyphname = C;
lastChange = "2017-03-25 20:14:15 +0000";
layers = (
{
anchors = (
{
name = bottom;
position = "{318, 0}";
},
{
name = top;
position = "{318, 700}";
}
);
layerId = "65DE19D7-C0F2-4D8D-9C1D-34999E633ECA";
paths = (
{
closed = 1;
nodes = (
"594 510 LINE {name = hr00;}",
"585 636 OFFCURVE",
"500 710 OFFCURVE",
"343 710 CURVE SMOOTH",
"279 710 LINE SMOOTH",
"139 710 OFFCURVE",
"55 626 OFFCURVE",
"55 514 CURVE SMOOTH",
"55 214 LINE SMOOTH",
"55 74 OFFCURVE",
"140 -10 OFFCURVE",
"307 -10 CURVE SMOOTH",
"371 -10 LINE SMOOTH",
"511 -10 OFFCURVE",
"595 74 OFFCURVE",
"595 186 CURVE SMOOTH",
"595 190 LINE",
"473 190 LINE",
"473 92 LINE",
"299 92 LINE SMOOTH",
"217 92 OFFCURVE",
"177 133 OFFCURVE",
"177 214 CURVE SMOOTH",
"177 608 LINE",
"351 608 LINE SMOOTH",
"425 608 OFFCURVE",
"465 575 OFFCURVE",
"472 510 CURVE"
);
}
);
width = 635;
},
{
anchors = (
{
name = bottom;
position = "{325, 0}";
},
{
name = top;
position = "{325, 700}";
}
);
layerId = "FCEAB5BF-AFE7-45BC-83DB-D0DE89866BD6";
paths = (
{
closed = 1;
nodes = (
"579 500 LINE {name = hr00;}",
"570 626 OFFCURVE",
"485 700 OFFCURVE",
"328 700 CURVE SMOOTH",
"294 700 LINE SMOOTH",
"154 700 OFFCURVE",
"70 616 OFFCURVE",
"70 504 CURVE SMOOTH",
"70 224 LINE SMOOTH",
"70 84 OFFCURVE",
"155 0 OFFCURVE",
"322 0 CURVE SMOOTH",
"356 0 LINE SMOOTH",
"496 0 OFFCURVE",
"580 84 OFFCURVE",
"580 196 CURVE SMOOTH",
"580 200 LINE",
"515 200 LINE",
"515 55 LINE",
"322 55 LINE SMOOTH",
"200 55 OFFCURVE",
"135 111 OFFCURVE",
"135 224 CURVE SMOOTH",
"135 645 LINE",
"328 645 LINE SMOOTH",
"441 645 OFFCURVE",
"505 597 OFFCURVE",
"514 500 CURVE"
);
}
);
width = 650;
}
);
leftKerningGroup = E;
leftMetricsKey = O;
unicode = 0043;
},
{
glyphname = D;
lastChange = "2017-03-25 20:12:21 +0000";
layers = (
{
anchors = (
{
name = bottom;
position = "{330, 0}";
},
{
name = center;
position = "{330, 350}";
},
{
name = top;
position = "{330, 700}";
}
);
layerId = "65DE19D7-C0F2-4D8D-9C1D-34999E633ECA";
paths = (
{
closed = 1;
nodes = (
"605 476 LINE SMOOTH {name = hr00;}",
"605 616 OFFCURVE",
"520 700 OFFCURVE",
"353 700 CURVE SMOOTH",
"65 700 LINE",
"65 0 LINE",
"381 0 LINE SMOOTH",
"521 0 OFFCURVE",
"605 84 OFFCURVE",
"605 196 CURVE SMOOTH"
);
},
{
closed = 1;
nodes = (
"187 598 LINE",
"361 598 LINE SMOOTH",
"443 598 OFFCURVE",
"483 557 OFFCURVE",
"483 476 CURVE SMOOTH",
"483 102 LINE",
"187 102 LINE"
);
}
);
width = 660;
},
{
anchors = (
{
name = bottom;
position = "{325, 0}";
},
{
name = center;
position = "{325, 350}";
},
{
name = top;
position = "{325, 700}";
}
);
layerId = "FCEAB5BF-AFE7-45BC-83DB-D0DE89866BD6";
paths = (
{
closed = 1;
nodes = (
"580 476 LINE SMOOTH {name = hr00;}",
"580 616 OFFCURVE",
"495 700 OFFCURVE",
"328 700 CURVE SMOOTH",
"70 700 LINE",
"70 0 LINE",
"356 0 LINE SMOOTH",
"496 0 OFFCURVE",
"580 84 OFFCURVE",
"580 196 CURVE SMOOTH"
);
},
{
closed = 1;
nodes = (
"135 645 LINE",
"328 645 LINE SMOOTH",
"450 645 OFFCURVE",
"515 589 OFFCURVE",
"515 476 CURVE SMOOTH",
"515 55 LINE",
"135 55 LINE"
);
}
);
width = 650;
}
);
leftKerningGroup = E;
rightMetricsKey = O;
unicode = 0044;
},
{
glyphname = Eth;
lastChange = "2017-03-25 20:11:35 +0000";
layers = (
{
layerId = "65DE19D7-C0F2-4D8D-9C1D-34999E633ECA";
paths = (
{
closed = 1;
nodes = (
"610 476 LINE SMOOTH",
"610 616 OFFCURVE",
"525 700 OFFCURVE",
"358 700 CURVE SMOOTH",
"70 700 LINE",
"70 0 LINE",
"386 0 LINE SMOOTH",
"526 0 OFFCURVE",
"610 84 OFFCURVE",
"610 196 CURVE SMOOTH"
);
},
{
closed = 1;
nodes = (
"192 598 LINE",
"366 598 LINE SMOOTH",
"448 598 OFFCURVE",
"488 557 OFFCURVE",
"488 476 CURVE SMOOTH",
"488 102 LINE",
"192 102 LINE"
);
},
{
closed = 1;
nodes = (
"10 299 LINE",
"265 299 LINE",
"265 401 LINE",
"10 401 LINE"
);
}
);
width = 665;
},
{
layerId = "FCEAB5BF-AFE7-45BC-83DB-D0DE89866BD6";
width = 600;
}
);
rightMetricsKey = O;
unicode = 00D0;
},
{
glyphname = E;
lastChange = "2017-03-25 20:12:12 +0000";
layers = (
{
anchors = (
{
name = bottom;
position = "{283, 0}";
},
{
name = ogonek;
position = "{508, 10}";
},
{
name = top;
position = "{292, 700}";
},
{
name = topleft;
position = "{20, 700}";
}
);
layerId = "65DE19D7-C0F2-4D8D-9C1D-34999E633ECA";
paths = (
{
closed = 1;
nodes = (
"530 0 LINE {name = hr00;}",
"530 102 LINE",
"187 102 LINE",
"187 301 LINE",
"490 301 LINE",
"490 403 LINE",
"187 403 LINE",
"187 598 LINE",
"520 598 LINE",
"520 700 LINE",
"65 700 LINE",
"65 0 LINE"
);
}
);
width = 565;
},
{
anchors = (
{
name = bottom;
position = "{285, 0}";
},
{
name = ogonek;
position = "{513, 10}";
},
{
name = top;
position = "{285, 700}";
},
{
name = topleft;
position = "{20, 700}";
}
);
guideLines = (
{
angle = 90;
position = "{500, 0}";
}
);
layerId = "FCEAB5BF-AFE7-45BC-83DB-D0DE89866BD6";
paths = (
{
closed = 1;
nodes = (
"500 0 LINE {name = hr00;}",
"500 55 LINE",
"135 55 LINE",
"135 325 LINE",
"460 325 LINE",
"460 380 LINE",
"135 380 LINE",
"135 645 LINE",
"490 645 LINE",
"490 700 LINE",
"70 700 LINE",
"70 0 LINE"
);
}
);
width = 570;
}
);
leftKerningGroup = E;
unicode = 0045;
},
{
glyphname = F;
lastChange = "2017-03-25 20:13:06 +0000";
layers = (
{
anchors = (
{
name = bottom;
position = "{278, 0}";
},
{
name = top;
position = "{278, 700}";
}
);
layerId = "65DE19D7-C0F2-4D8D-9C1D-34999E633ECA";
paths = (
{
closed = 1;
nodes = (
"187 0 LINE {name = hr00;}",
"187 289 LINE",
"460 289 LINE",
"460 391 LINE",
"187 391 LINE",
"187 598 LINE",
"510 598 LINE",
"510 700 LINE",
"65 700 LINE",
"65 0 LINE"
);
}
);
width = 555;
},
{
anchors = (
{
name = bottom;
position = "{275, 0}";
},
{
name = top;
position = "{275, 700}";
}
);
layerId = "FCEAB5BF-AFE7-45BC-83DB-D0DE89866BD6";
paths = (
{
closed = 1;
nodes = (
"130 0 LINE {name = hr00;}",
"130 315 LINE",
"440 315 LINE",
"440 365 LINE",
"130 365 LINE",
"130 650 LINE",
"490 650 LINE",
"490 700 LINE",
"70 700 LINE",
"70 0 LINE"
);
}
);
width = 550;
}
);
leftKerningGroup = E;
unicode = 0046;
},
{
glyphname = G;
lastChange = "2017-03-25 20:13:30 +0000";
layers = (
{
anchors = (
{
name = bottom;
position = "{330, 0}";
},
{
name = top;
position = "{330, 700}";
}
);
layerId = "65DE19D7-C0F2-4D8D-9C1D-34999E633ECA";
paths = (
{
closed = 1;
nodes = (
"330 390 LINE",
"330 288 LINE",
"483 288 LINE",
"483 92 LINE",
"299 92 LINE SMOOTH",
"217 92 OFFCURVE",
"177 133 OFFCURVE",
"177 214 CURVE SMOOTH",
"177 608 LINE",
"361 608 LINE SMOOTH",
"435 608 OFFCURVE",
"475 575 OFFCURVE",
"482 510 CURVE",
"604 510 LINE {name = hr00;}",
"595 636 OFFCURVE",
"510 710 OFFCURVE",
"353 710 CURVE SMOOTH",
"279 710 LINE SMOOTH",
"139 710 OFFCURVE",
"55 626 OFFCURVE",
"55 514 CURVE SMOOTH",
"55 214 LINE SMOOTH",
"55 74 OFFCURVE",
"140 -10 OFFCURVE",
"307 -10 CURVE SMOOTH",
"381 -10 LINE SMOOTH",
"521 -10 OFFCURVE",
"605 74 OFFCURVE",
"605 186 CURVE SMOOTH",
"605 390 LINE"
);
}
);
width = 660;
},
{
anchors = (
{
name = bottom;
position = "{325, 0}";
},
{
name = top;
position = "{325, 700}";
}
);
layerId = "FCEAB5BF-AFE7-45BC-83DB-D0DE89866BD6";
paths = (
{
closed = 1;
nodes = (
"320 355 LINE",
"320 305 LINE",
"520 305 LINE",
"520 50 LINE",
"250 50 LINE SMOOTH",
"170 50 OFFCURVE",
"130 87 OFFCURVE",
"130 160 CURVE SMOOTH",
"130 650 LINE {name = hr00;}",
"400 650 LINE SMOOTH",
"480 650 OFFCURVE",
"520 613 OFFCURVE",
"520 540 CURVE SMOOTH",
"520 500 LINE",
"580 500 LINE",
"580 540 LINE SMOOTH",
"580 640 OFFCURVE",
"519 700 OFFCURVE",
"400 700 CURVE SMOOTH",
"230 700 LINE SMOOTH",
"130 700 OFFCURVE",
"70 640 OFFCURVE",
"70 560 CURVE SMOOTH",
"70 160 LINE SMOOTH",
"70 60 OFFCURVE",
"131 0 OFFCURVE",
"250 0 CURVE SMOOTH",
"420 0 LINE SMOOTH",
"520 0 OFFCURVE",
"580 60 OFFCURVE",
"580 140 CURVE SMOOTH",
"580 355 LINE"
);
}
);
width = 650;
}
);
leftKerningGroup = O;
leftMetricsKey = O;
unicode = 0047;
},
{
glyphname = H;
lastChange = "2017-03-25 20:13:59 +0000";
layers = (
{
anchors = (
{
name = bottom;
position = "{335, 0}";
},
{
name = center;
position = "{335, 350}";
},
{
name = top;
position = "{335, 700}";
},
{
name = topleft;
position = "{20, 700}";
}
);
guideLines = (
{
position = "{0, 350}";
}
);
layerId = "65DE19D7-C0F2-4D8D-9C1D-34999E633ECA";
paths = (
{
closed = 1;
nodes = (
"483 0 LINE {name = hr00;}",
"605 0 LINE",
"605 700 LINE",
"483 700 LINE",
"483 403 LINE",
"187 403 LINE",
"187 700 LINE",
"65 700 LINE",
"65 0 LINE",
"187 0 LINE",
"187 301 LINE",
"483 301 LINE"
);
}
);
width = 670;
},
{
anchors = (
{
name = bottom;
position = "{335, 0}";
},
{
name = center;
position = "{335, 350}";
},
{
name = top;
position = "{335, 700}";
},
{
name = topleft;
position = "{20, 700}";
}
);
layerId = "FCEAB5BF-AFE7-45BC-83DB-D0DE89866BD6";
paths = (
{
closed = 1;
nodes = (
"540 0 LINE {name = hr00;}",
"600 0 LINE",
"600 700 LINE",
"540 700 LINE",
"540 377 LINE",
"130 377 LINE",
"130 700 LINE",
"70 700 LINE",
"70 0 LINE",
"130 0 LINE",
"130 327 LINE",
"540 327 LINE"
);
}
);
width = 670;
}
);
leftKerningGroup = E;
unicode = 0048;
userData = {
com.typemytype.robofont.guides = (
{
angle = 0;
isGlobal = 0;
magnetic = 5;
x = 0;
y = 350;
}
);
};
},
{
glyphname = I;
lastChange = "2017-03-25 20:14:04 +0000";
layers = (
{
anchors = (
{
name = bottom;
position = "{126, 0}";
},
{
name = ogonek;
position = "{227, 10}";
},
{
name = top;
position = "{126, 700}";
},
{
name = topleft;
position = "{20, 700}";
}
);
layerId = "65DE19D7-C0F2-4D8D-9C1D-34999E633ECA";
paths = (
{
closed = 1;
nodes = (
"65 0 LINE {name = hr00;}",
"187 0 LINE",
"187 700 LINE",
"65 700 LINE"
);
}
);
width = 252;
},
{
anchors = (
{
name = bottom;
position = "{130, 0}";
},
{
name = ogonek;
position = "{234, 10}";
},
{
name = top;
position = "{130, 700}";
},
{
name = topleft;
position = "{20, 700}";
}
);
layerId = "FCEAB5BF-AFE7-45BC-83DB-D0DE89866BD6";
paths = (
{
closed = 1;
nodes = (
"100 0 LINE {name = hr00;}",
"160 0 LINE",
"160 700 LINE",
"100 700 LINE"
);
}
);
width = 260;
}
);
leftKerningGroup = E;
unicode = 0049;
},
{
glyphname = J;
lastChange = "2017-03-25 20:12:28 +0000";
layers = (
{
anchors = (
{
name = bottom;
position = "{282, 0}";
},
{
name = top;
position = "{282, 700}";
}
);
layerId = "65DE19D7-C0F2-4D8D-9C1D-34999E633ECA";
paths = (
{
closed = 1;
nodes = (
"25 190 LINE {name = hr00;}",
"35 66 OFFCURVE",
"118 -10 OFFCURVE",
"276 -10 CURVE SMOOTH",
"280 -10 LINE SMOOTH",
"420 -10 OFFCURVE",
"504 74 OFFCURVE",
"504 186 CURVE SMOOTH",
"504 700 LINE",
"382 700 LINE",
"382 92 LINE",
"268 92 LINE SMOOTH",
"199 92 OFFCURVE",
"156 120 OFFCURVE",
"148 190 CURVE"
);
}
);
width = 564;
},
{
anchors = (
{
name = bottom;
position = "{275, 0}";
},
{
name = top;
position = "{275, 700}";
}
);
layerId = "FCEAB5BF-AFE7-45BC-83DB-D0DE89866BD6";
paths = (
{
closed = 1;
nodes = (
"20 200 LINE {name = hr00;}",
"20 160 LINE SMOOTH",
"20 60 OFFCURVE",
"81 0 OFFCURVE",
"200 0 CURVE SMOOTH",
"320 0 LINE SMOOTH",
"420 0 OFFCURVE",
"480 60 OFFCURVE",
"480 140 CURVE SMOOTH",
"480 700 LINE",
"420 700 LINE",
"420 50 LINE",
"200 50 LINE SMOOTH",
"120 50 OFFCURVE",
"80 87 OFFCURVE",
"80 160 CURVE SMOOTH",
"80 200 LINE"
);
}
);
width = 550;
}
);
unicode = 004A;
},
{
glyphname = K;
lastChange = "2017-03-25 20:15:30 +0000";
layers = (
{
anchors = (
{
name = bottom;
position = "{317, 0}";
},
{
name = top;
position = "{317, 700}";
}
);
guideLines = (
{
angle = 90;
position = "{216, 0}";
}
);
layerId = "65DE19D7-C0F2-4D8D-9C1D-34999E633ECA";
paths = (
{
closed = 1;
nodes = (
"65 0 LINE {name = hr00;}",
"187 0 LINE",
"187 700 LINE",
"65 700 LINE"
);
},
{
closed = 1;
nodes = (
"175 305 LINE",
"345 305 LINE",
"345 407 LINE",
"175 407 LINE"
);
},
{
closed = 1;
nodes = (
"204 355 LINE",
"347 355 LINE",
"597 700 LINE",
"454 700 LINE"
);
},
{
closed = 1;
nodes = (
"477 0 LINE",
"604 0 LINE",
"534 259 LINE SMOOTH",
"508 357 OFFCURVE",
"418 407 OFFCURVE",
"292 407 CURVE",
"300 305 LINE",
"361 305 OFFCURVE",
"403 282 OFFCURVE",
"417 228 CURVE SMOOTH"
);
}
);
width = 634;
},
{
anchors = (
{
name = bottom;
position = "{313, 0}";
},
{
name = top;
position = "{313, 700}";
}
);
layerId = "FCEAB5BF-AFE7-45BC-83DB-D0DE89866BD6";
paths = (
{
closed = 1;
nodes = (
"481 0 LINE {name = hr00;}",
"618 0 LINE",
"618 21 LINE",
"325 355 LINE",
"590 680 LINE",
"590 700 LINE",
"462 700 LINE",
"190 360 LINE",
"190 700 LINE",
"70 700 LINE",
"70 0 LINE",
"190 0 LINE",
"190 341 LINE"
);
}
);
width = 626;
}
);
leftKerningGroup = E;
unicode = 004B;
userData = {
com.typemytype.robofont.guides = (
{
angle = 90;
isGlobal = 0;
magnetic = 5;
x = 216;
y = 0;
}
);
};
},
{
glyphname = L;
lastChange = "2017-03-25 20:12:43 +0000";
layers = (
{
anchors = (
{
name = bottom;
position = "{275, 0}";
},
{
name = center;
position = "{275, 350}";
},
{
name = top;
position = "{126, 700}";
},
{
name = topright;
position = "{530, 700}";
}
);
layerId = "65DE19D7-C0F2-4D8D-9C1D-34999E633ECA";
paths = (
{
closed = 1;
nodes = (
"510 0 LINE",
"510 102 LINE",
"187 102 LINE",
"187 700 LINE",
"65 700 LINE",
"65 0 LINE"
);
}
);
width = 550;
},
{
anchors = (
{
name = bottom;
position = "{265, 0}";
},
{
name = center;
position = "{265, 350}";
},
{
name = top;
position = "{100, 700}";
},
{
name = topright;
position = "{510, 700}";
}
);
layerId = "FCEAB5BF-AFE7-45BC-83DB-D0DE89866BD6";
paths = (
{
closed = 1;
nodes = (
"500 0 LINE {name = hr00;}",
"500 50 LINE",
"130 50 LINE",
"130 700 LINE",
"70 700 LINE",
"70 0 LINE"
);
}
);
width = 530;
}
);
leftKerningGroup = E;
unicode = 004C;
},
{
glyphname = M;
lastChange = "2017-03-25 20:13:56 +0000";
layers = (
{
anchors = (
{
name = bottom;
position = "{400, 0}";
},
{
name = top;
position = "{400, 700}";
}
);
guideLines = (
{
position = "{0, 420}";
},
{
position = "{0, 300}";
},
{
position = "{0, 654}";
},
{
position = "{0, 195}";
},
{
angle = 90;
position = "{398, 0}";
}
);
layerId = "65DE19D7-C0F2-4D8D-9C1D-34999E633ECA";
paths = (
{
closed = 1;
nodes = (
"273 300 LINE SMOOTH",
"291 238 OFFCURVE",
"316 195 OFFCURVE",
"378 195 CURVE SMOOTH",
"408 195 LINE",
"408 251 LINE",
"299 640 LINE SMOOTH",
"290 673 OFFCURVE",
"275 700 OFFCURVE",
"227 700 CURVE SMOOTH",
"186 700 LINE",
"186 600 LINE"
);
},
{
closed = 1;
nodes = (
"64 0 LINE",
"186 0 LINE",
"186 700 LINE",
"146 700 LINE SMOOTH",
"77 700 OFFCURVE",
"64 654 OFFCURVE",
"64 587 CURVE SMOOTH"
);
},
{
closed = 1;
nodes = (
"734 587 LINE",
"734 654 OFFCURVE",
"721 700 OFFCURVE",
"652 700 CURVE SMOOTH",
"612 700 LINE",
"612 0 LINE",
"734 0 LINE"
);
},
{
closed = 1;
nodes = (
"612 600 LINE",
"612 700 LINE",
"571 700 LINE SMOOTH",
"523 700 OFFCURVE",
"508 673 OFFCURVE",
"499 640 CURVE SMOOTH",
"390 251 LINE",
"390 195 LINE",
"420 195 LINE SMOOTH",
"482 195 OFFCURVE",
"507 238 OFFCURVE",
"525 300 CURVE SMOOTH"
);
}
);
width = 799;
},
{
anchors = (
{
name = bottom;
position = "{389, 0}";
},
{
name = top;
position = "{389, 700}";
}
);
guideLines = (
{
position = "{0, 420}";
},
{
position = "{0, 240}";
},
{
angle = 90;
position = "{390, 0}";
}
);
layerId = "FCEAB5BF-AFE7-45BC-83DB-D0DE89866BD6";
paths = (
{
closed = 1;
nodes = (
"70 0 LINE {name = hr00;}",
"136 0 LINE",
"136 700 LINE",
"70 700 LINE"
);
},
{
closed = 1;
nodes = (
"641 0 LINE",
"707 0 LINE",
"707 700 LINE",
"641 700 LINE"
);
},
{
closed = 1;
nodes = (
"337 200 LINE",
"408 200 LINE",
"189 700 LINE",
"118 700 LINE"
);
},
{
closed = 1;
nodes = (
"658 700 LINE",
"587 700 LINE",
"373 200 LINE",
"444 200 LINE"
);
}
);
width = 777;
}
);
leftKerningGroup = E;
unicode = 004D;
userData = {
com.typemytype.robofont.guides = (
{
angle = 0;
isGlobal = 0;
magnetic = 5;
x = 0;
y = 420;
},
{
angle = 0;
isGlobal = 0;
magnetic = 5;
x = 0;
y = 300;
},
{
angle = 0;
isGlobal = 0;
magnetic = 5;
x = 0;
y = 654;
},
{
angle = 0;
isGlobal = 0;
magnetic = 5;
x = 0;
y = 195;
},
{
angle = 90;
isGlobal = 0;
magnetic = 5;
x = 398;
y = 0;
}
);
};
},
{
glyphname = N;
lastChange = "2017-03-25 20:13:51 +0000";
layers = (
{
anchors = (
{
name = bottom;
position = "{340, 0}";
},
{
name = top;
position = "{340, 700}";
}
);
guideLines = (
{
position = "{0, 350}";
}
);
layerId = "65DE19D7-C0F2-4D8D-9C1D-34999E633ECA";
paths = (
{
closed = 1;
nodes = (
"65 0 LINE",
"187 0 LINE",
"187 700 LINE",
"147 700 LINE SMOOTH",
"78 700 OFFCURVE",
"65 654 OFFCURVE",
"65 587 CURVE SMOOTH"
);
},
{
closed = 1;
nodes = (
"409 46 LINE SMOOTH",
"421 19 OFFCURVE",
"436 0 OFFCURVE",
"479 0 CURVE SMOOTH",
"512 0 LINE",
"512 90 OFFCURVE",
"444 251 OFFCURVE",
"401 350 CURVE SMOOTH",
"269 654 LINE SMOOTH",
"261 672 OFFCURVE",
"244 700 OFFCURVE",
"209 700 CURVE SMOOTH",
"169 700 LINE",
"169 610 OFFCURVE",
"235 450 OFFCURVE",
"278 350 CURVE SMOOTH"
);
},
{
closed = 1;
nodes = (
"615 700 LINE",
"493 700 LINE",
"493 0 LINE",
"533 0 LINE SMOOTH",
"602 0 OFFCURVE",
"615 46 OFFCURVE",
"615 113 CURVE"
);
}
);
width = 680;
},
{
anchors = (
{
name = bottom;
position = "{333, 0}";
},
{
name = top;
position = "{333, 700}";
}
);
layerId = "FCEAB5BF-AFE7-45BC-83DB-D0DE89866BD6";
paths = (
{
closed = 1;
nodes = (
"70 0 LINE {name = hr00;}",
"130 0 LINE",
"130 597 LINE",
"536 0 LINE",
"596 0 LINE",
"596 700 LINE",
"536 700 LINE",
"536 103 LINE",
"130 700 LINE",
"70 700 LINE"
);
}
);
width = 666;
}
);
leftKerningGroup = E;
unicode = 004E;
userData = {
com.typemytype.robofont.guides = (
{
angle = 0;
isGlobal = 0;
magnetic = 5;
x = 0;
y = 350;
}
);
};
},
{
glyphname = O;
lastChange = "2017-03-25 20:13:42 +0000";
layers = (
{
anchors = (
{
name = bottom;
position = "{340, 0}";
},
{
name = center;
position = "{340, 350}";
},
{
name = ogonek;
position = "{612, 10}";
},
{
name = top;
position = "{340, 700}";
},
{
name = topleft;
position = "{20, 700}";
},
{
name = topright;
position = "{660, 700}";
}
);
layerId = "65DE19D7-C0F2-4D8D-9C1D-34999E633ECA";
paths = (
{
closed = 1;
nodes = (
"625 486 LINE SMOOTH {name = hr00;}",
"625 626 OFFCURVE",
"540 710 OFFCURVE",
"373 710 CURVE SMOOTH",
"279 710 LINE SMOOTH",
"139 710 OFFCURVE",
"55 626 OFFCURVE",
"55 514 CURVE SMOOTH",
"55 214 LINE SMOOTH",
"55 74 OFFCURVE",
"140 -10 OFFCURVE",
"307 -10 CURVE SMOOTH",
"401 -10 LINE SMOOTH",
"541 -10 OFFCURVE",
"625 74 OFFCURVE",
"625 186 CURVE SMOOTH"
);
},
{
closed = 1;
nodes = (
"177 608 LINE",
"381 608 LINE SMOOTH",
"463 608 OFFCURVE",
"503 567 OFFCURVE",
"503 486 CURVE SMOOTH",
"503 92 LINE",
"299 92 LINE SMOOTH",
"217 92 OFFCURVE",
"177 133 OFFCURVE",
"177 214 CURVE SMOOTH"
);
}
);
width = 680;
},
{
anchors = (
{
name = bottom;
position = "{340, 0}";
},
{
name = center;
position = "{340, 350}";
},
{
name = ogonek;
position = "{612, 10}";
},
{
name = top;
position = "{340, 700}";
},
{
name = topleft;
position = "{20, 700}";
},
{
name = topright;
position = "{660, 700}";
}
);
guideLines = (
{
position = "{0, 645}";
},
{
position = "{0, 55}";
},
{
position = "{0, 224}";
},
{
angle = 90;
position = "{135, 0}";
},
{
angle = 90;
position = "{545, 0}";
},
{
angle = 90;
position = "{322, 0}";
}
);
layerId = "FCEAB5BF-AFE7-45BC-83DB-D0DE89866BD6";
paths = (
{
closed = 1;
nodes = (
"610 476 LINE SMOOTH {name = hr00;}",
"610 616 OFFCURVE",
"525 700 OFFCURVE",
"358 700 CURVE SMOOTH",
"294 700 LINE SMOOTH",
"154 700 OFFCURVE",
"70 616 OFFCURVE",
"70 504 CURVE SMOOTH",
"70 224 LINE SMOOTH",
"70 84 OFFCURVE",
"155 0 OFFCURVE",
"322 0 CURVE SMOOTH",
"386 0 LINE SMOOTH",
"526 0 OFFCURVE",
"610 84 OFFCURVE",
"610 196 CURVE SMOOTH"
);
},
{
closed = 1;
nodes = (
"135 645 LINE",
"358 645 LINE SMOOTH",
"480 645 OFFCURVE",
"545 589 OFFCURVE",
"545 476 CURVE SMOOTH",
"545 55 LINE",
"322 55 LINE SMOOTH",
"200 55 OFFCURVE",
"135 111 OFFCURVE",
"135 224 CURVE SMOOTH"
);
}
);
width = 680;
}
);
leftKerningGroup = O;
unicode = 004F;
},
{
glyphname = P;
lastChange = "2017-03-25 20:14:51 +0000";
layers = (
{
anchors = (
{
name = bottom;
position = "{313, 0}";
},
{
name = top;
position = "{313, 700}";
}
);
layerId = "65DE19D7-C0F2-4D8D-9C1D-34999E633ECA";
paths = (
{
closed = 1;
nodes = (
"187 320 LINE",
"240 240 LINE",
"361 240 LINE SMOOTH",
"501 240 OFFCURVE",
"585 324 OFFCURVE",
"585 436 CURVE SMOOTH",
"585 466 LINE SMOOTH",
"585 606 OFFCURVE",
"500 700 OFFCURVE",
"333 700 CURVE SMOOTH",
"65 700 LINE",
"65 0 LINE",
"187 0 LINE"
);
},
{
closed = 1;
nodes = (
"187 598 LINE",
"339 598 LINE SMOOTH",
"421 598 OFFCURVE",
"463 548 OFFCURVE",
"463 464 CURVE SMOOTH",
"463 342 LINE",
"241 342 LINE SMOOTH",
"208 342 OFFCURVE",
"187 362 OFFCURVE",
"187 396 CURVE SMOOTH"
);
}
);
width = 625;
},
{
anchors = (
{
name = bottom;
position = "{310, 0}";
},
{
name = top;
position = "{310, 700}";
}
);
layerId = "FCEAB5BF-AFE7-45BC-83DB-D0DE89866BD6";
paths = (
{
closed = 1;
nodes = (
"130 330 LINE {name = hr00;}",
"183 250 LINE",
"390 250 LINE SMOOTH",
"490 250 OFFCURVE",
"550 310 OFFCURVE",
"550 390 CURVE SMOOTH",
"550 540 LINE SMOOTH",
"550 640 OFFCURVE",
"489 700 OFFCURVE",
"370 700 CURVE SMOOTH",
"70 700 LINE",
"70 0 LINE",
"130 0 LINE"
);
},
{
closed = 1;
nodes = (
"130 650 LINE",
"370 650 LINE",
"450 650 OFFCURVE",
"490 613 OFFCURVE",
"490 540 CURVE",
"490 300 LINE",
"250 300 LINE SMOOTH",
"170 300 OFFCURVE",
"130 337 OFFCURVE",
"130 410 CURVE"
);
}
);
width = 620;
}
);
leftKerningGroup = E;
unicode = 0050;
},
{
glyphname = Thorn;
lastChange = "2017-03-25 20:14:54 +0000";
layers = (
{
anchors = (
{
name = bottom;
position = "{305, 0}";
},
{
name = top;
position = "{305, 700}";
}
);
layerId = "65DE19D7-C0F2-4D8D-9C1D-34999E633ECA";
paths = (
{
closed = 1;
nodes = (
"192 200 LINE",
"245 120 LINE",
"351 120 LINE SMOOTH",
"491 120 OFFCURVE",
"575 204 OFFCURVE",
"575 316 CURVE SMOOTH",
"575 346 LINE SMOOTH",
"575 486 OFFCURVE",
"490 580 OFFCURVE",
"323 580 CURVE SMOOTH",
"192 580 LINE",
"192 700 LINE",
"70 700 LINE",
"70 0 LINE",
"192 0 LINE"
);
},
{
closed = 1;
nodes = (
"192 478 LINE",
"329 478 LINE SMOOTH",
"411 478 OFFCURVE",
"453 428 OFFCURVE",
"453 344 CURVE SMOOTH",
"453 222 LINE",
"246 222 LINE SMOOTH",
"213 222 OFFCURVE",
"192 242 OFFCURVE",
"192 276 CURVE SMOOTH"
);
}
);
width = 610;
},
{
anchors = (
{
name = bottom;
position = "{310, 0}";
},
{
name = top;
position = "{310, 700}";
}
);
layerId = "FCEAB5BF-AFE7-45BC-83DB-D0DE89866BD6";
paths = (
{
closed = 1;
nodes = (
"130 205 LINE {name = hr00;}",
"183 125 LINE",
"390 125 LINE SMOOTH",
"490 125 OFFCURVE",
"550 185 OFFCURVE",
"550 265 CURVE SMOOTH",
"550 415 LINE SMOOTH",
"550 515 OFFCURVE",
"489 575 OFFCURVE",
"370 575 CURVE SMOOTH",
"130 575 LINE",
"130 700 LINE",
"70 700 LINE",
"70 0 LINE",
"130 0 LINE"
);
},
{
closed = 1;
nodes = (
"130 525 LINE",
"370 525 LINE SMOOTH",
"450 525 OFFCURVE",
"490 488 OFFCURVE",
"490 415 CURVE SMOOTH",
"490 175 LINE",
"250 175 LINE SMOOTH",
"170 175 OFFCURVE",
"130 212 OFFCURVE",
"130 285 CURVE SMOOTH"
);
}
);
width = 620;
}
);
unicode = 00DE;
},
{
glyphname = Q;
lastChange = "2017-03-25 20:15:37 +0000";
layers = (
{
anchors = (
{
name = bottom;
position = "{340, 0}";
},
{
name = top;
position = "{340, 700}";
}
);
layerId = "65DE19D7-C0F2-4D8D-9C1D-34999E633ECA";
paths = (
{
closed = 1;
nodes = (
"625 486 LINE SMOOTH {name = hr00;}",
"625 626 OFFCURVE",
"540 710 OFFCURVE",
"373 710 CURVE SMOOTH",
"279 710 LINE SMOOTH",
"139 710 OFFCURVE",
"55 626 OFFCURVE",
"55 514 CURVE SMOOTH",
"55 214 LINE SMOOTH",
"55 74 OFFCURVE",
"140 -10 OFFCURVE",
"307 -10 CURVE SMOOTH",
"401 -10 LINE SMOOTH",
"541 -10 OFFCURVE",
"625 74 OFFCURVE",
"625 186 CURVE SMOOTH"
);
},
{
closed = 1;
nodes = (
"177 608 LINE",
"381 608 LINE SMOOTH",
"463 608 OFFCURVE",
"503 567 OFFCURVE",
"503 486 CURVE SMOOTH",
"503 92 LINE",
"299 92 LINE SMOOTH",
"217 92 OFFCURVE",
"177 133 OFFCURVE",
"177 214 CURVE SMOOTH"
);
},
{
closed = 1;
nodes = (
"310 -20 LINE SMOOTH",
"310 -120 OFFCURVE",
"371 -180 OFFCURVE",
"490 -180 CURVE SMOOTH",
"560 -180 LINE",
"560 -80 LINE",
"490 -80 LINE SMOOTH",
"451 -80 OFFCURVE",
"430 -60 OFFCURVE",
"430 -20 CURVE SMOOTH",
"430 180 LINE",
"310 180 LINE"
);
}
);
width = 680;
},
{
anchors = (
{
name = bottom;
position = "{340, 0}";
},
{
name = top;
position = "{340, 700}";
}
);
guideLines = (
{
position = "{0, 150}";
},
{
angle = 90;
position = "{340, 0}";
},
{
angle = 90;
position = "{280, 0}";
},
{
angle = 90;
position = "{400, 0}";
}
);
layerId = "FCEAB5BF-AFE7-45BC-83DB-D0DE89866BD6";
paths = (
{
closed = 1;
nodes = (
"280 -40 LINE SMOOTH {name = hr00;}",
"280 -140 OFFCURVE",
"341 -200 OFFCURVE",
"460 -200 CURVE SMOOTH",
"480 -200 LINE",
"480 -100 LINE",
"460 -100 LINE SMOOTH",
"421 -100 OFFCURVE",
"400 -80 OFFCURVE",
"400 -40 CURVE SMOOTH",
"400 0 LINE",
"450 0 LINE SMOOTH",
"550 0 OFFCURVE",
"610 60 OFFCURVE",
"610 140 CURVE SMOOTH",
"610 540 LINE SMOOTH",
"610 640 OFFCURVE",
"549 700 OFFCURVE",
"430 700 CURVE SMOOTH",
"230 700 LINE SMOOTH",
"130 700 OFFCURVE",
"70 640 OFFCURVE",
"70 560 CURVE SMOOTH",
"70 160 LINE SMOOTH",
"70 60 OFFCURVE",
"131 0 OFFCURVE",
"250 0 CURVE SMOOTH",
"280 0 LINE"
);
},
{
closed = 1;
nodes = (
"190 600 LINE",
"430 600 LINE SMOOTH",
"469 600 OFFCURVE",
"490 580 OFFCURVE",
"490 540 CURVE SMOOTH",
"490 100 LINE",
"400 100 LINE",
"400 150 LINE",
"280 150 LINE",
"280 100 LINE",
"250 100 LINE SMOOTH",
"211 100 OFFCURVE",
"190 120 OFFCURVE",
"190 160 CURVE SMOOTH"
);
}
);
width = 680;
}
);
leftKerningGroup = O;
leftMetricsKey = O;
rightMetricsKey = O;
unicode = 0051;
},
{
glyphname = R;
lastChange = "2017-03-25 20:11:35 +0000";
layers = (
{
anchors = (
{
name = bottom;
position = "{323, 0}";
},
{
name = top;
position = "{323, 700}";
}
);
layerId = "65DE19D7-C0F2-4D8D-9C1D-34999E633ECA";
paths = (
{
closed = 1;
nodes = (
"187 598 LINE",
"339 598 LINE SMOOTH",
"421 598 OFFCURVE",
"463 548 OFFCURVE",
"463 464 CURVE SMOOTH",
"463 372 LINE",
"249 372 LINE",
"249 280 LINE",
"341 280 LINE",
"361 270 LINE SMOOTH",
"501 270 OFFCURVE",
"585 354 OFFCURVE",
"585 466 CURVE SMOOTH",
"585 606 OFFCURVE",
"500 700 OFFCURVE",
"333 700 CURVE SMOOTH",
"65 700 LINE",
"65 0 LINE",
"187 0 LINE"
);
},
{
closed = 1;
nodes = (
"470 0 LINE",
"606 0 LINE",
"420 310 LINE",
"299 285 LINE"
);
}
);
width = 646;
},
{
layerId = "FCEAB5BF-AFE7-45BC-83DB-D0DE89866BD6";
width = 600;
}
);
leftKerningGroup = E;
unicode = 0052;
},
{
glyphname = S;
lastChange = "2017-03-25 20:13:46 +0000";
layers = (
{
anchors = (
{
name = bottom;
position = "{295, 0}";
},
{
name = top;
position = "{295, 700}";
}
);
guideLines = (
{
angle = 90;
position = "{35, 0}";
},
{
angle = 90;
position = "{605, 0}";
},
{
angle = 90;
position = "{294, 0}";
}
);
layerId = "65DE19D7-C0F2-4D8D-9C1D-34999E633ECA";
paths = (
{
closed = 1;
nodes = (
"36 190 LINE",
"45 64 OFFCURVE",
"130 -10 OFFCURVE",
"287 -10 CURVE SMOOTH",
"326 -10 LINE SMOOTH",
"466 -10 OFFCURVE",
"550 65 OFFCURVE",
"550 190 CURVE SMOOTH",
"550 285 OFFCURVE",
"488 345 OFFCURVE",
"366 392 CURVE SMOOTH",
"260 433 LINE SMOOTH",
"157 473 OFFCURVE",
"157 500 OFFCURVE",
"157 562 CURVE SMOOTH",
"157 608 LINE",
"306 608 LINE SMOOTH",
"380 608 OFFCURVE",
"420 575 OFFCURVE",
"427 510 CURVE",
"549 510 LINE",
"540 636 OFFCURVE",
"455 710 OFFCURVE",
"298 710 CURVE SMOOTH",
"259 710 LINE SMOOTH",
"119 710 OFFCURVE",
"40 627 OFFCURVE",
"40 526 CURVE SMOOTH",
"40 423 OFFCURVE",
"91 370 OFFCURVE",
"213 323 CURVE SMOOTH",
"325 280 LINE SMOOTH",
"428 240 OFFCURVE",
"428 209 OFFCURVE",
"428 132 CURVE SMOOTH",
"428 92 LINE",
"279 92 LINE SMOOTH",
"205 92 OFFCURVE",
"165 125 OFFCURVE",
"158 190 CURVE"
);
}
);
width = 590;
},
{
anchors = (
{
name = bottom;
position = "{295, 0}";
},
{
name = top;
position = "{295, 700}";
}
);
layerId = "FCEAB5BF-AFE7-45BC-83DB-D0DE89866BD6";
paths = (
{
closed = 1;
nodes = (
"120 650 LINE {name = hr00;}",
"350 650 LINE SMOOTH",
"430 650 OFFCURVE",
"470 613 OFFCURVE",
"470 540 CURVE SMOOTH",
"470 530 LINE",
"530 530 LINE",
"530 540 LINE SMOOTH",
"530 640 OFFCURVE",
"469 700 OFFCURVE",
"350 700 CURVE SMOOTH",
"220 700 LINE SMOOTH",
"120 700 OFFCURVE",
"60 640 OFFCURVE",
"60 560 CURVE SMOOTH",
"60 485 LINE SMOOTH",
"60 385 OFFCURVE",
"121 325 OFFCURVE",
"240 325 CURVE SMOOTH",
"350 325 LINE SMOOTH",
"430 325 OFFCURVE",
"470 288 OFFCURVE",
"470 215 CURVE SMOOTH",
"470 50 LINE",
"240 50 LINE SMOOTH",
"160 50 OFFCURVE",
"120 87 OFFCURVE",
"120 160 CURVE SMOOTH",
"120 170 LINE",
"60 170 LINE",
"60 160 LINE SMOOTH",
"60 60 OFFCURVE",
"121 0 OFFCURVE",
"240 0 CURVE SMOOTH",
"370 0 LINE SMOOTH",
"470 0 OFFCURVE",
"530 60 OFFCURVE",
"530 140 CURVE SMOOTH",
"530 215 LINE SMOOTH",
"530 315 OFFCURVE",
"469 375 OFFCURVE",
"350 375 CURVE SMOOTH",
"240 375 LINE SMOOTH",
"160 375 OFFCURVE",
"120 412 OFFCURVE",
"120 485 CURVE SMOOTH"
);
}
);
width = 590;
}
);
leftKerningGroup = O;
unicode = 0053;
userData = {
com.typemytype.robofont.guides = (
{
angle = 90;
isGlobal = 0;
magnetic = 5;
x = 35;
y = 0;
},
{
angle = 90;
isGlobal = 0;
magnetic = 5;
x = 605;
y = 0;
},
{
angle = 90;
isGlobal = 0;
magnetic = 5;
x = 294;
y = 0;
}
);
};
},
{
glyphname = Germandbls;
lastChange = "2017-03-25 20:11:35 +0000";
layers = (
{
anchors = (
{
name = bottom;
position = "{390, 0}";
},
{
name = top;
position = "{390, 700}";
}
);
layerId = "65DE19D7-C0F2-4D8D-9C1D-34999E633ECA";
paths = (
{
closed = 1;
nodes = (
"190 600 LINE {name = hr00;}",
"480 600 LINE",
"290 320 LINE",
"290 300 LINE",
"560 300 LINE SMOOTH",
"599 300 OFFCURVE",
"620 280 OFFCURVE",
"620 240 CURVE SMOOTH",
"620 100 LINE",
"449 100 LINE SMOOTH",
"410 100 OFFCURVE",
"390 120 OFFCURVE",
"390 160 CURVE SMOOTH",
"390 170 LINE",
"270 170 LINE",
"270 160 LINE SMOOTH",
"270 60 OFFCURVE",
"331 0 OFFCURVE",
"450 0 CURVE SMOOTH",
"580 0 LINE SMOOTH",
"680 0 OFFCURVE",
"740 60 OFFCURVE",
"740 140 CURVE SMOOTH",
"740 240 LINE SMOOTH",
"740 340 OFFCURVE",
"679 400 OFFCURVE",
"560 400 CURVE SMOOTH",
"464 400 LINE",
"602 600 LINE",
"602 700 LINE",
"230 700 LINE",
"130 700 OFFCURVE",
"70 640 OFFCURVE",
"70 560 CURVE SMOOTH",
"70 0 LINE",
"190 0 LINE"
);
}
);
width = 780;
},
{
layerId = "FCEAB5BF-AFE7-45BC-83DB-D0DE89866BD6";
width = 600;
}
);
unicode = 1E9E;
},
{
glyphname = T;
lastChange = "2017-03-25 20:14:25 +0000";
layers = (
{
anchors = (
{
name = bottom;
position = "{280, 0}";
},
{
name = center;
position = "{280, 350}";
},
{
name = top;
position = "{280, 700}";
}
);
layerId = "65DE19D7-C0F2-4D8D-9C1D-34999E633ECA";
paths = (
{
closed = 1;
nodes = (
"20 598 LINE {name = hr00;}",
"219 598 LINE",
"219 0 LINE",
"341 0 LINE",
"341 598 LINE",
"540 598 LINE",
"540 700 LINE",
"20 700 LINE"
);
}
);
width = 560;
},
{
anchors = (
{
name = bottom;
position = "{280, 0}";
},
{
name = center;
position = "{280, 350}";
},
{
name = top;
position = "{280, 700}";
}
);
layerId = "FCEAB5BF-AFE7-45BC-83DB-D0DE89866BD6";
paths = (
{
closed = 1;
nodes = (
"30 650 LINE {name = hr00;}",
"250 650 LINE",
"250 0 LINE",
"310 0 LINE",
"310 650 LINE",
"530 650 LINE",
"530 700 LINE",
"30 700 LINE"
);
}
);
width = 560;
}
);
unicode = 0054;
},
{
glyphname = U;
lastChange = "2017-03-25 20:14:44 +0000";
layers = (
{
anchors = (
{
name = bottom;
position = "{328, 0}";
},
{
name = ogonek;
position = "{589, 10}";
},
{
name = top;
position = "{328, 700}";
},
{
name = topright;
position = "{635, 700}";
}
);
layerId = "65DE19D7-C0F2-4D8D-9C1D-34999E633ECA";
paths = (
{
closed = 1;
nodes = (
"473 700 LINE {name = hr00;}",
"473 92 LINE",
"304 92 LINE SMOOTH",
"222 92 OFFCURVE",
"182 133 OFFCURVE",
"182 214 CURVE SMOOTH",
"182 700 LINE",
"60 700 LINE",
"60 214 LINE SMOOTH",
"60 74 OFFCURVE",
"145 -10 OFFCURVE",
"312 -10 CURVE SMOOTH",
"371 -10 LINE SMOOTH",
"511 -10 OFFCURVE",
"595 74 OFFCURVE",
"595 186 CURVE SMOOTH",
"595 700 LINE"
);
}
);
width = 655;
},
{
anchors = (
{
name = bottom;
position = "{315, 0}";
},
{
name = ogonek;
position = "{567, 10}";
},
{
name = top;
position = "{315, 700}";
},
{
name = topright;
position = "{610, 700}";
}
);
layerId = "FCEAB5BF-AFE7-45BC-83DB-D0DE89866BD6";
paths = (
{
closed = 1;
nodes = (
"500 700 LINE",
"500 50 LINE",
"250 50 LINE SMOOTH",
"170 50 OFFCURVE",
"130 87 OFFCURVE",
"130 160 CURVE SMOOTH",
"130 700 LINE",
"70 700 LINE {name = hr00;}",
"70 160 LINE SMOOTH",
"70 60 OFFCURVE",
"131 0 OFFCURVE",
"250 0 CURVE SMOOTH",
"400 0 LINE SMOOTH",
"500 0 OFFCURVE",
"560 60 OFFCURVE",
"560 140 CURVE SMOOTH",
"560 700 LINE"
);
}
);
width = 630;
}
);
unicode = 0055;
},
{
glyphname = V;
lastChange = "2017-03-25 20:11:35 +0000";
layers = (
{
anchors = (
{
name = bottom;
position = "{326, 0}";
},
{
name = top;
position = "{326, 700}";
}
);
guideLines = (
{
position = "{0, 400}";
},
{
position = "{0, 100}";
},
{
angle = 90;
position = "{326, 0}";
},
{
angle = 90;
position = "{265, 0}";
},
{
angle = 90;
position = "{387, 0}";
}
);
layerId = "65DE19D7-C0F2-4D8D-9C1D-34999E633ECA";
paths = (
{
closed = 1;
nodes = (
"641 700 LINE",
"519 700 LINE",
"315 54 LINE",
"311 -5 LINE",
"344 -5 LINE SMOOTH",
"411 -5 OFFCURVE",
"432 43 OFFCURVE",
"448 94 CURVE"
);
},
{
closed = 1;
nodes = (
"203 96 LINE",
"220 43 OFFCURVE",
"243 -5 OFFCURVE",
"307 -5 CURVE SMOOTH",
"341 -5 LINE",
"337 50 LINE",
"133 700 LINE",
"11 700 LINE"
);
},
{
closed = 1;
nodes = (
"265 41 LINE",
"387 41 LINE",
"387 100 LINE",
"265 100 LINE"
);
}
);
width = 652;
},
{
layerId = "FCEAB5BF-AFE7-45BC-83DB-D0DE89866BD6";
width = 600;
}
);
unicode = 0056;
userData = {
com.typemytype.robofont.guides = (
{
angle = 0;
isGlobal = 0;
magnetic = 5;
x = 0;
y = 400;
},
{
angle = 0;
isGlobal = 0;
magnetic = 5;
x = 0;
y = 100;
},
{
angle = 90;
isGlobal = 0;
magnetic = 5;
x = 326;
y = 0;
},
{
angle = 90;
isGlobal = 0;
magnetic = 5;
x = 265;
y = 0;
},
{
angle = 90;
isGlobal = 0;
magnetic = 5;
x = 387;
y = 0;
}
);
};
},
{
glyphname = W;
lastChange = "2017-03-25 20:11:35 +0000";
layers = (
{
anchors = (
{
name = bottom;
position = "{363, 0}";
},
{
name = top;
position = "{363, 700}";
}
);
guideLines = (
{
position = "{0, 96}";
},
{
angle = 90;
position = "{297, 0}";
}
);
layerId = "65DE19D7-C0F2-4D8D-9C1D-34999E633ECA";
paths = (
{
closed = 1;
nodes = (
"152 -2 LINE",
"193 -2 LINE",
"193 88 LINE",
"152 88 LINE"
);
},
{
closed = 1;
nodes = (
"63 94 LINE SMOOTH",
"67 52 OFFCURVE",
"85 -2 OFFCURVE",
"164 -2 CURVE SMOOTH",
"191 -2 LINE",
"130 700 LINE",
"10 700 LINE"
);
},
{
closed = 1;
nodes = (
"370 693 LINE",
"354 693 LINE SMOOTH",
"282 693 OFFCURVE",
"261 648 OFFCURVE",
"254 590 CURVE SMOOTH",
"178 -2 LINE",
"219 -2 LINE SMOOTH",
"286 -2 OFFCURVE",
"300 38 OFFCURVE",
"305 81 CURVE SMOOTH"
);
},
{
closed = 1;
nodes = (
"525 -2 LINE",
"574 -2 LINE",
"574 88 LINE",
"525 88 LINE"
);
},
{
closed = 1;
nodes = (
"358 598 LINE",
"387 598 LINE",
"387 693 LINE",
"358 693 LINE"
);
},
{
closed = 1;
nodes = (
"420 81 LINE",
"425 38 OFFCURVE",
"439 -2 OFFCURVE",
"506 -2 CURVE SMOOTH",
"547 -2 LINE",
"471 590 LINE SMOOTH",
"464 648 OFFCURVE",
"443 693 OFFCURVE",
"371 693 CURVE SMOOTH",
"355 693 LINE"
);
},
{
closed = 1;
nodes = (
"715 700 LINE",
"595 700 LINE",
"534 -2 LINE",
"561 -2 LINE SMOOTH",
"640 -2 OFFCURVE",
"658 52 OFFCURVE",
"662 94 CURVE SMOOTH"
);
}
);
width = 725;
},
{
layerId = "FCEAB5BF-AFE7-45BC-83DB-D0DE89866BD6";
width = 600;
}
);
unicode = 0057;
userData = {
com.typemytype.robofont.guides = (
{
angle = 0;
isGlobal = 0;
magnetic = 5;
x = 0;
y = 96;
},
{
angle = 90;
isGlobal = 0;
magnetic = 5;
x = 297;
y = 0;
}
);
};
},
{
glyphname = X;
lastChange = "2017-03-25 20:11:35 +0000";
layers = (
{
anchors = (
{
name = bottom;
position = "{293, 0}";
},
{
name = top;
position = "{293, 700}";
}
);
layerId = "65DE19D7-C0F2-4D8D-9C1D-34999E633ECA";
paths = (
{
closed = 1;
nodes = (
"16 700 LINE {name = hr00;}",
"222 362 LINE",
"0 0 LINE",
"140 0 LINE",
"292 248 LINE",
"445 0 LINE",
"586 0 LINE",
"370 352 LINE",
"583 700 LINE",
"443 700 LINE",
"300 466 LINE",
"156 700 LINE"
);
}
);
width = 586;
},
{
layerId = "FCEAB5BF-AFE7-45BC-83DB-D0DE89866BD6";
width = 600;
}
);
unicode = 0058;
},
{
glyphname = Y;
lastChange = "2017-03-25 20:11:35 +0000";
layers = (
{
anchors = (
{
name = bottom;
position = "{270, 0}";
},
{
name = top;
position = "{270, 700}";
},
{
name = topleft;
position = "{20, 700}";
}
);
guideLines = (
{
angle = 90;
position = "{270, 0}";
}
);
layerId = "65DE19D7-C0F2-4D8D-9C1D-34999E633ECA";
paths = (
{
closed = 1;
nodes = (
"209 0 LINE {name = hr00;}",
"331 0 LINE",
"331 300 LINE",
"209 300 LINE"
);
},
{
closed = 1;
nodes = (
"180 310 LINE",
"360 310 LINE",
"360 390 LINE",
"180 390 LINE"
);
},
{
closed = 1;
nodes = (
"160 300 LINE",
"285 300 LINE",
"105 700 LINE",
"-20 700 LINE"
);
},
{
closed = 1;
nodes = (
"560 700 LINE",
"435 700 LINE",
"255 300 LINE",
"380 300 LINE"
);
}
);
width = 540;
},
{
layerId = "FCEAB5BF-AFE7-45BC-83DB-D0DE89866BD6";
width = 600;
}
);
unicode = 0059;
userData = {
com.typemytype.robofont.guides = (
{
angle = 90;
isGlobal = 0;
magnetic = 5;
x = 270;
y = 0;
}
);
};
},
{
glyphname = Z;
lastChange = "2017-03-25 20:11:35 +0000";
layers = (
{
anchors = (
{
name = bottom;
position = "{280, 0}";
},
{
name = top;
position = "{280, 700}";
}
);
layerId = "65DE19D7-C0F2-4D8D-9C1D-34999E633ECA";
paths = (
{
closed = 1;
nodes = (
"40 600 LINE {name = hr00;}",
"369 600 LINE",
"40 80 LINE",
"40 0 LINE",
"520 0 LINE",
"520 100 LINE",
"189 100 LINE",
"518 620 LINE",
"518 700 LINE",
"40 700 LINE"
);
}
);
width = 560;
},
{
layerId = "FCEAB5BF-AFE7-45BC-83DB-D0DE89866BD6";
width = 600;
}
);
unicode = 005A;
},
{
glyphname = A.alt001;
lastChange = "2017-03-25 20:11:35 +0000";
layers = (
{
anchors = (
{
name = bottom;
position = "{326, 0}";
},
{
name = ogonek;
position = "{587, 10}";
},
{
name = top;
position = "{326, 700}";
}
);
layerId = "65DE19D7-C0F2-4D8D-9C1D-34999E633ECA";
paths = (
{
closed = 1;
nodes = (
"13 0 LINE",
"135 0 LINE",
"337 641 LINE",
"300 650 LINE",
"219 650 LINE"
);
},
{
closed = 1;
nodes = (
"131 700 LINE",
"77 620 LINE",
"77 598 LINE",
"237 598 LINE SMOOTH",
"315 598 OFFCURVE",
"341 564 OFFCURVE",
"352 527 CURVE SMOOTH",
"517 0 LINE",
"639 0 LINE",
"462 557 LINE SMOOTH",
"447 604 OFFCURVE",
"410 700 OFFCURVE",
"222 700 CURVE SMOOTH"
);
},
{
closed = 1;
nodes = (
"180 174 LINE",
"499 174 LINE",
"499 276 LINE",
"180 276 LINE"
);
}
);
width = 652;
},
{
layerId = "FCEAB5BF-AFE7-45BC-83DB-D0DE89866BD6";
width = 600;
}
);
},
{
glyphname = A.alt002;
lastChange = "2017-03-25 20:11:35 +0000";
layers = (
{
anchors = (
{
name = bottom;
position = "{326, 0}";
},
{
name = ogonek;
position = "{587, 10}";
},
{
name = top;
position = "{326, 700}";
}
);
guideLines = (
{
angle = 90;
position = "{326, 0}";
}
);
layerId = "65DE19D7-C0F2-4D8D-9C1D-34999E633ECA";
paths = (
{
closed = 1;
nodes = (
"11 0 LINE",
"133 0 LINE",
"337 646 LINE",
"326 705 LINE",
"285 705 LINE SMOOTH",
"248 705 OFFCURVE",
"226 675 OFFCURVE",
"204 606 CURVE SMOOTH"
);
},
{
closed = 1;
nodes = (
"449 604 LINE SMOOTH",
"432 657 OFFCURVE",
"409 705 OFFCURVE",
"345 705 CURVE SMOOTH",
"326 705 LINE",
"315 650 LINE",
"519 0 LINE",
"641 0 LINE"
);
},
{
closed = 1;
nodes = (
"180 179 LINE",
"499 179 LINE",
"499 281 LINE",
"180 281 LINE"
);
},
{
closed = 1;
nodes = (
"254 600 LINE",
"376 600 LINE",
"376 659 LINE",
"254 659 LINE"
);
},
{
closed = 1;
nodes = (
"132 280 LINE",
"60 280 OFFCURVE",
"0 337 OFFCURVE",
"0 431 CURVE SMOOTH",
"0 516 OFFCURVE",
"85 626 OFFCURVE",
"285 600 CURVE",
"285 705 LINE",
"-16 705 OFFCURVE",
"-120 555 OFFCURVE",
"-120 417 CURVE SMOOTH",
"-120 262 OFFCURVE",
"13 200 OFFCURVE",
"108 179 CURVE"
);
}
);
width = 652;
},
{
layerId = "FCEAB5BF-AFE7-45BC-83DB-D0DE89866BD6";
width = 600;
}
);
userData = {
com.typemytype.robofont.guides = (
{
angle = 90;
isGlobal = 0;
magnetic = 5;
x = 326;
y = 0;
}
);
};
},
{
glyphname = I.ss01;
lastChange = "2017-03-25 20:14:30 +0000";
layers = (
{
anchors = (
{
name = bottom;
position = "{180, 0}";
},
{
name = ogonek;
position = "{324, 10}";
},
{
name = top;
position = "{180, 700}";
},
{
name = topleft;
position = "{20, 700}";
}
);
layerId = "65DE19D7-C0F2-4D8D-9C1D-34999E633ECA";
paths = (
{
closed = 1;
nodes = (
"60 620 LINE {name = hr00;}",
"120 620 LINE",
"120 80 LINE",
"60 80 LINE",
"60 0 LINE",
"300 0 LINE",
"300 80 LINE",
"240 80 LINE",
"240 620 LINE",
"300 620 LINE",
"300 700 LINE",
"60 700 LINE"
);
}
);
width = 360;
},
{
anchors = (
{
name = bottom;
position = "{180, 0}";
},
{
name = ogonek;
position = "{324, 10}";
},
{
name = top;
position = "{180, 700}";
},
{
name = topleft;
position = "{20, 700}";
}
);
layerId = "FCEAB5BF-AFE7-45BC-83DB-D0DE89866BD6";
paths = (
{
closed = 1;
nodes = (
"60 660 LINE {name = hr00;}",
"150 660 LINE",
"150 40 LINE",
"60 40 LINE",
"60 0 LINE",
"300 0 LINE",
"300 40 LINE",
"210 40 LINE",
"210 660 LINE",
"300 660 LINE",
"300 700 LINE",
"60 700 LINE"
);
}
);
width = 360;
}
);
},
{
glyphname = C.ss04;
lastChange = "2017-03-25 20:11:35 +0000";
layers = (
{
anchors = (
{
name = bottom;
position = "{275, 0}";
},
{
name = top;
position = "{275, 700}";
}
);
layerId = "65DE19D7-C0F2-4D8D-9C1D-34999E633ECA";
paths = (
{
closed = 1;
nodes = (
"505 97 LINE",
"299 97 LINE SMOOTH",
"217 97 OFFCURVE",
"177 138 OFFCURVE",
"177 219 CURVE SMOOTH",
"177 603 LINE",
"505 603 LINE",
"505 705 LINE",
"279 705 LINE SMOOTH",
"139 705 OFFCURVE",
"55 621 OFFCURVE",
"55 509 CURVE SMOOTH",
"55 219 LINE SMOOTH",
"55 79 OFFCURVE",
"140 -5 OFFCURVE",
"307 -5 CURVE SMOOTH",
"505 -5 LINE"
);
}
);
width = 555;
},
{
layerId = "FCEAB5BF-AFE7-45BC-83DB-D0DE89866BD6";
width = 600;
}
);
leftKerningGroup = O;
leftMetricsKey = O;
},
{
glyphname = G.ss04;
lastChange = "2017-03-25 20:11:35 +0000";
layers = (
{
anchors = (
{
name = bottom;
position = "{330, 0}";
},
{
name = top;
position = "{330, 700}";
}
);
layerId = "65DE19D7-C0F2-4D8D-9C1D-34999E633ECA";
paths = (
{
closed = 1;
nodes = (
"483 411 LINE",
"483 92 LINE",
"299 92 LINE SMOOTH",
"217 92 OFFCURVE",
"177 133 OFFCURVE",
"177 214 CURVE SMOOTH",
"177 603 LINE",
"575 603 LINE",
"575 705 LINE",
"279 705 LINE SMOOTH",
"139 705 OFFCURVE",
"55 616 OFFCURVE",
"55 504 CURVE SMOOTH",
"55 214 LINE SMOOTH",
"55 74 OFFCURVE",
"140 -10 OFFCURVE",
"307 -10 CURVE SMOOTH",
"381 -10 LINE SMOOTH",
"521 -10 OFFCURVE",
"605 74 OFFCURVE",
"605 186 CURVE SMOOTH",
"605 411 LINE"
);
},
{
closed = 1;
nodes = (
"330 308 LINE",
"535 308 LINE",
"535 410 LINE",
"330 410 LINE"
);
}
);
width = 665;
},
{
layerId = "FCEAB5BF-AFE7-45BC-83DB-D0DE89866BD6";
width = 600;
}
);
leftKerningGroup = O;
leftMetricsKey = O;
},
{
glyphname = J.ss04;
lastChange = "2017-03-25 20:11:35 +0000";
layers = (
{
anchors = (
{
name = bottom;
position = "{253, 0}";
},
{
name = top;
position = "{253, 700}";
}
);
layerId = "65DE19D7-C0F2-4D8D-9C1D-34999E633ECA";
paths = (
{
closed = 1;
nodes = (
"20 -5 LINE",
"216 -5 LINE SMOOTH",
"356 -5 OFFCURVE",
"440 79 OFFCURVE",
"440 191 CURVE SMOOTH",
"440 701 LINE",
"318 701 LINE",
"318 97 LINE",
"20 97 LINE"
);
}
);
width = 505;
},
{
layerId = "FCEAB5BF-AFE7-45BC-83DB-D0DE89866BD6";
width = 600;
}
);
},
{
glyphname = S.ss04;
lastChange = "2017-03-25 20:11:35 +0000";
layers = (
{
anchors = (
{
name = bottom;
position = "{288, 0}";
},
{
name = top;
position = "{288, 700}";
}
);
guideLines = (
{
angle = 90;
position = "{50, 0}";
},
{
angle = 90;
position = "{620, 0}";
}
);
layerId = "65DE19D7-C0F2-4D8D-9C1D-34999E633ECA";
paths = (
{
closed = 1;
nodes = (
"59 -5 LINE",
"311 -5 LINE SMOOTH",
"451 -5 OFFCURVE",
"535 81 OFFCURVE",
"535 186 CURVE SMOOTH",
"535 316 OFFCURVE",
"450 401 OFFCURVE",
"283 401 CURVE SMOOTH",
"202 401 OFFCURVE",
"162 452 OFFCURVE",
"162 533 CURVE SMOOTH",
"162 603 LINE",
"506 603 LINE",
"506 705 LINE",
"264 705 LINE SMOOTH",
"124 705 OFFCURVE",
"40 620 OFFCURVE",
"40 513 CURVE SMOOTH",
"40 386 OFFCURVE",
"125 299 OFFCURVE",
"291 299 CURVE SMOOTH",
"373 299 OFFCURVE",
"413 248 OFFCURVE",
"413 167 CURVE SMOOTH",
"413 97 LINE",
"59 97 LINE"
);
}
);
width = 575;
},
{
layerId = "FCEAB5BF-AFE7-45BC-83DB-D0DE89866BD6";
width = 600;
}
);
userData = {
com.typemytype.robofont.guides = (
{
angle = 90;
isGlobal = 0;
magnetic = 5;
x = 50;
y = 0;
},
{
angle = 90;
isGlobal = 0;
magnetic = 5;
x = 620;
y = 0;
}
);
};
},
{
glyphname = a;
lastChange = "2017-03-25 20:15:05 +0000";
layers = (
{
anchors = (
{
name = bottom;
position = "{273, 0}";
},
{
name = ogonek;
position = "{490, 10}";
},
{
name = top;
position = "{273, 500}";
}
);
guideLines = (
{
position = "{0, 651}";
},
{
position = "{0, 651}";
}
);
layerId = "65DE19D7-C0F2-4D8D-9C1D-34999E633ECA";
paths = (
{
closed = 1;
nodes = (
"360 200 LINE {name = hr00;}",
"360 100 LINE",
"220 100 LINE SMOOTH",
"181 100 OFFCURVE",
"160 120 OFFCURVE",
"160 160 CURVE SMOOTH",
"160 200 LINE"
);
},
{
closed = 1;
nodes = (
"154 500 LINE",
"100 420 LINE",
"100 400 LINE",
"300 400 LINE SMOOTH",
"340 400 OFFCURVE",
"360 380 OFFCURVE",
"360 340 CURVE SMOOTH",
"360 300 LINE",
"200 300 LINE SMOOTH",
"100 300 OFFCURVE",
"40 240 OFFCURVE",
"40 160 CURVE SMOOTH",
"40 60 OFFCURVE",
"101 0 OFFCURVE",
"220 0 CURVE SMOOTH",
"307 0 LINE",
"360 80 LINE",
"360 0 LINE",
"480 0 LINE",
"480 340 LINE SMOOTH",
"480 440 OFFCURVE",
"420 500 OFFCURVE",
"300 500 CURVE SMOOTH"
);
}
);
width = 545;
},
{
anchors = (
{
name = bottom;
position = "{275, 0}";
},
{
name = ogonek;
position = "{495, 10}";
},
{
name = top;
position = "{275, 500}";
}
);
guideLines = (
{
position = "{0, 651}";
},
{
position = "{0, 651}";
},
{
angle = 56.43;
position = "{405, 0}";
}
);
layerId = "FCEAB5BF-AFE7-45BC-83DB-D0DE89866BD6";
paths = (
{
closed = 1;
nodes = (
"425 225 LINE {name = hr00;}",
"425 50 LINE",
"225 50 LINE SMOOTH",
"145 50 OFFCURVE",
"105 87 OFFCURVE",
"105 160 CURVE SMOOTH",
"105 225 LINE"
);
},
{
closed = 1;
nodes = (
"159 500 LINE",
"139 470 LINE",
"139 450 LINE",
"305 450 LINE SMOOTH",
"385 450 OFFCURVE",
"425 413 OFFCURVE",
"425 340 CURVE SMOOTH",
"425 275 LINE",
"205 275 LINE SMOOTH",
"92 275 OFFCURVE",
"45 230 OFFCURVE",
"45 160 CURVE SMOOTH",
"45 60 OFFCURVE",
"106 0 OFFCURVE",
"225 0 CURVE SMOOTH",
"405 0 LINE",
"425 30 LINE",
"425 0 LINE",
"485 0 LINE",
"485 340 LINE SMOOTH",
"485 440 OFFCURVE",
"425 500 OFFCURVE",
"305 500 CURVE SMOOTH"
);
}
);
width = 550;
}
);
leftKerningGroup = a;
rightKerningGroup = a;
rightMetricsKey = n;
unicode = 0061;
userData = {
com.typemytype.robofont.guides = (
{
angle = 0;
isGlobal = 0;
magnetic = 5;
x = 0;
y = 651;
},
{
angle = 0;
isGlobal = 0;
magnetic = 5;
x = 0;
y = 651;
}
);
};
},
{
glyphname = ae;
lastChange = "2017-03-25 20:15:11 +0000";
layers = (
{
anchors = (
{
name = bottom;
position = "{403, 0}";
},
{
name = top;
position = "{403, 500}";
}
);
layerId = "65DE19D7-C0F2-4D8D-9C1D-34999E633ECA";
paths = (
{
closed = 1;
nodes = (
"340 300 LINE {name = hr00;}",
"200 300 LINE SMOOTH",
"100 300 OFFCURVE",
"40 240 OFFCURVE",
"40 160 CURVE SMOOTH",
"40 60 OFFCURVE",
"101 0 OFFCURVE",
"220 0 CURVE SMOOTH",
"307 0 LINE",
"358 77 LINE",
"385 28 OFFCURVE",
"439 0 OFFCURVE",
"520 0 CURVE SMOOTH",
"657 0 LINE",
"710 80 LINE",
"710 100 LINE",
"520 100 LINE SMOOTH",
"483 100 OFFCURVE",
"460 118 OFFCURVE",
"460 154 CURVE SMOOTH",
"460 200 LINE",
"750 200 LINE",
"750 340 LINE SMOOTH",
"750 440 OFFCURVE",
"689 500 OFFCURVE",
"570 500 CURVE SMOOTH",
"500 500 LINE SMOOTH",
"458 500 OFFCURVE",
"423 489 OFFCURVE",
"397 471 CURVE",
"368 490 OFFCURVE",
"329 500 OFFCURVE",
"280 500 CURVE SMOOTH",
"154 500 LINE",
"100 420 LINE",
"100 400 LINE",
"280 400 LINE SMOOTH",
"320 400 OFFCURVE",
"340 380 OFFCURVE",
"340 340 CURVE SMOOTH"
);
},
{
closed = 1;
nodes = (
"340 200 LINE",
"340 160 LINE SMOOTH",
"340 138 OFFCURVE",
"342 118 OFFCURVE",
"348 100 CURVE",
"220 100 LINE SMOOTH",
"181 100 OFFCURVE",
"160 120 OFFCURVE",
"160 160 CURVE SMOOTH",
"160 200 LINE"
);
},
{
closed = 1;
nodes = (
"460 400 LINE",
"570 400 LINE SMOOTH",
"609 400 OFFCURVE",
"630 380 OFFCURVE",
"630 340 CURVE SMOOTH",
"630 300 LINE",
"460 300 LINE"
);
}
);
width = 810;
},
{
anchors = (
{
name = bottom;
position = "{415, 0}";
},
{
name = top;
position = "{415, 500}";
}
);
guideLines = (
{
position = "{0, 30}";
}
);
layerId = "FCEAB5BF-AFE7-45BC-83DB-D0DE89866BD6";
paths = (
{
closed = 1;
nodes = (
"390 275 LINE {name = hr00;}",
"220 275 LINE SMOOTH",
"107 275 OFFCURVE",
"60 230 OFFCURVE",
"60 160 CURVE SMOOTH",
"60 60 OFFCURVE",
"121 0 OFFCURVE",
"240 0 CURVE SMOOTH",
"432 0 LINE",
"452 29 LINE",
"481 10 OFFCURVE",
"520 0 OFFCURVE",
"570 0 CURVE SMOOTH",
"677 0 LINE",
"697 30 LINE",
"697 50 LINE",
"570 50 LINE SMOOTH",
"490 50 OFFCURVE",
"450 87 OFFCURVE",
"450 160 CURVE SMOOTH",
"450 225 LINE",
"770 225 LINE",
"770 340 LINE SMOOTH",
"770 440 OFFCURVE",
"709 500 OFFCURVE",
"590 500 CURVE SMOOTH",
"550 500 LINE SMOOTH",
"490 500 OFFCURVE",
"444 479 OFFCURVE",
"417 444 CURVE",
"388 480 OFFCURVE",
"339 500 OFFCURVE",
"270 500 CURVE SMOOTH",
"174 500 LINE",
"154 470 LINE",
"154 450 LINE",
"270 450 LINE SMOOTH",
"350 450 OFFCURVE",
"390 413 OFFCURVE",
"390 340 CURVE SMOOTH"
);
},
{
closed = 1;
nodes = (
"390 225 LINE",
"390 160 LINE SMOOTH",
"390 114 OFFCURVE",
"403 77 OFFCURVE",
"428 50 CURVE",
"240 50 LINE SMOOTH",
"160 50 OFFCURVE",
"120 87 OFFCURVE",
"120 160 CURVE SMOOTH",
"120 225 LINE"
);
},
{
closed = 1;
nodes = (
"450 450 LINE",
"590 450 LINE SMOOTH",
"670 450 OFFCURVE",
"710 413 OFFCURVE",
"710 340 CURVE SMOOTH",
"710 275 LINE",
"450 275 LINE"
);
}
);
width = 830;
}
);
leftKerningGroup = a;
leftMetricsKey = a;
rightMetricsKey = e;
unicode = 00E6;
},
{
glyphname = b;
lastChange = "2017-03-25 20:15:14 +0000";
layers = (
{
anchors = (
{
name = bottom;
position = "{283, 0}";
},
{
name = top;
position = "{283, 500}";
}
);
layerId = "65DE19D7-C0F2-4D8D-9C1D-34999E633ECA";
paths = (
{
closed = 1;
nodes = (
"325 500 CURVE {name = hr00;}",
"238 500 LINE",
"185 420 LINE",
"185 700 LINE",
"65 700 LINE",
"65 160 LINE SMOOTH",
"65 60 OFFCURVE",
"125 0 OFFCURVE",
"245 0 CURVE SMOOTH",
"345 0 LINE SMOOTH",
"445 0 OFFCURVE",
"505 60 OFFCURVE",
"505 140 CURVE SMOOTH",
"505 340 LINE SMOOTH",
"505 440 OFFCURVE",
"444 500 OFFCURVE"
);
},
{
closed = 1;
nodes = (
"325 400 LINE",
"364 400 OFFCURVE",
"385 380 OFFCURVE",
"385 340 CURVE SMOOTH",
"385 100 LINE",
"245 100 LINE SMOOTH",
"205 100 OFFCURVE",
"185 120 OFFCURVE",
"185 160 CURVE SMOOTH",
"185 400 LINE"
);
}
);
width = 565;
},
{
anchors = (
{
name = bottom;
position = "{283, 0}";
},
{
name = top;
position = "{283, 500}";
}
);
guideLines = (
{
angle = 56.43;
position = "{-187, 0}";
}
);
layerId = "FCEAB5BF-AFE7-45BC-83DB-D0DE89866BD6";
paths = (
{
closed = 1;
nodes = (
"325 500 CURVE {name = hr00;}",
"145 500 LINE",
"125 470 LINE",
"125 700 LINE",
"65 700 LINE",
"65 160 LINE SMOOTH",
"65 60 OFFCURVE",
"125 0 OFFCURVE",
"245 0 CURVE SMOOTH",
"345 0 LINE SMOOTH",
"445 0 OFFCURVE",
"505 60 OFFCURVE",
"505 140 CURVE SMOOTH",
"505 340 LINE SMOOTH",
"505 440 OFFCURVE",
"444 500 OFFCURVE"
);
},
{
closed = 1;
nodes = (
"325 450 LINE SMOOTH",
"405 450 OFFCURVE",
"445 413 OFFCURVE",
"445 340 CURVE SMOOTH",
"445 50 LINE",
"245 50 LINE SMOOTH",
"165 50 OFFCURVE",
"125 87 OFFCURVE",
"125 160 CURVE SMOOTH",
"125 450 LINE"
);
}
);
width = 565;
}
);
leftKerningGroup = b;
leftMetricsKey = l;
rightKerningGroup = b;
rightMetricsKey = o;
unicode = 0062;
},
{
glyphname = c;
lastChange = "2017-03-25 20:15:43 +0000";
layers = (
{
anchors = (
{
name = bottom;
position = "{270, 0}";
},
{
name = top;
position = "{270, 500}";
}
);
layerId = "65DE19D7-C0F2-4D8D-9C1D-34999E633ECA";
paths = (
{
closed = 1;
nodes = (
"180 400 LINE {name = hr00;}",
"300 400 LINE SMOOTH",
"339 400 OFFCURVE",
"360 380 OFFCURVE",
"360 340 CURVE",
"360 339 LINE",
"480 339 LINE",
"480 340 LINE",
"480 440 OFFCURVE",
"419 500 OFFCURVE",
"300 500 CURVE SMOOTH",
"220 500 LINE SMOOTH",
"120 500 OFFCURVE",
"60 440 OFFCURVE",
"60 360 CURVE SMOOTH",
"60 160 LINE SMOOTH",
"60 60 OFFCURVE",
"121 0 OFFCURVE",
"240 0 CURVE SMOOTH",
"320 0 LINE SMOOTH",
"420 0 OFFCURVE",
"480 60 OFFCURVE",
"480 140 CURVE SMOOTH",
"480 160 LINE",
"360 160 LINE",
"360 100 LINE",
"240 100 LINE SMOOTH",
"201 100 OFFCURVE",
"180 120 OFFCURVE",
"180 160 CURVE SMOOTH"
);
}
);
width = 540;
},
{
anchors = (
{
name = bottom;
position = "{270, 0}";
},
{
name = top;
position = "{270, 500}";
}
);
layerId = "FCEAB5BF-AFE7-45BC-83DB-D0DE89866BD6";
paths = (
{
closed = 1;
nodes = (
"120 450 LINE {name = hr00;}",
"300 450 LINE SMOOTH",
"380 450 OFFCURVE",
"420 413 OFFCURVE",
"420 340 CURVE",
"420 339 LINE",
"480 339 LINE",
"480 340 LINE",
"480 440 OFFCURVE",
"419 500 OFFCURVE",
"300 500 CURVE SMOOTH",
"220 500 LINE SMOOTH",
"120 500 OFFCURVE",
"60 440 OFFCURVE",
"60 360 CURVE SMOOTH",
"60 160 LINE SMOOTH",
"60 60 OFFCURVE",
"121 0 OFFCURVE",
"240 0 CURVE SMOOTH",
"320 0 LINE SMOOTH",
"420 0 OFFCURVE",
"480 60 OFFCURVE",
"480 140 CURVE SMOOTH",
"480 160 LINE",
"420 160 LINE",
"420 50 LINE",
"240 50 LINE SMOOTH",
"160 50 OFFCURVE",
"120 87 OFFCURVE",
"120 160 CURVE SMOOTH"
);
}
);
width = 540;
}
);
leftKerningGroup = c;
leftMetricsKey = o;
rightKerningGroup = b;
unicode = 0063;
},
{
glyphname = d;
lastChange = "2017-03-25 20:15:45 +0000";
layers = (
{
anchors = (
{
name = bottom;
position = "{285, 0}";
},
{
name = center;
position = "{285, 250}";
},
{
name = top;
position = "{285, 500}";
},
{
name = topright;
position = "{550, 500}";
}
);
layerId = "65DE19D7-C0F2-4D8D-9C1D-34999E633ECA";
paths = (
{
closed = 1;
nodes = (
"327 500 LINE {name = hr00;}",
"220 500 LINE SMOOTH",
"120 500 OFFCURVE",
"60 440 OFFCURVE",
"60 360 CURVE SMOOTH",
"60 160 LINE SMOOTH",
"60 60 OFFCURVE",
"121 0 OFFCURVE",
"240 0 CURVE SMOOTH",
"327 0 LINE",
"380 80 LINE",
"380 0 LINE",
"500 0 LINE",
"500 700 LINE",
"380 700 LINE",
"380 420 LINE"
);
},
{
closed = 1;
nodes = (
"180 400 LINE",
"325 400 LINE SMOOTH",
"359 400 OFFCURVE",
"380 380 OFFCURVE",
"380 346 CURVE SMOOTH",
"380 100 LINE",
"240 100 LINE SMOOTH",
"201 100 OFFCURVE",
"180 120 OFFCURVE",
"180 160 CURVE SMOOTH"
);
}
);
width = 570;
},
{
anchors = (
{
name = bottom;
position = "{285, 0}";
},
{
name = center;
position = "{285, 250}";
},
{
name = top;
position = "{285, 500}";
},
{
name = topright;
position = "{550, 500}";
}
);
guideLines = (
{
angle = 56.43;
position = "{361, 0}";
}
);
layerId = "FCEAB5BF-AFE7-45BC-83DB-D0DE89866BD6";
paths = (
{
closed = 1;
nodes = (
"387 500 LINE {name = hr00;}",
"220 500 LINE SMOOTH",
"120 500 OFFCURVE",
"60 440 OFFCURVE",
"60 360 CURVE SMOOTH",
"60 160 LINE SMOOTH",
"60 60 OFFCURVE",
"121 0 OFFCURVE",
"240 0 CURVE SMOOTH",
"420 0 LINE",
"440 30 LINE",
"440 0 LINE",
"500 0 LINE",
"500 700 LINE",
"440 700 LINE",
"440 420 LINE"
);
},
{
closed = 1;
nodes = (
"120 450 LINE",
"320 450 LINE SMOOTH",
"400 450 OFFCURVE",
"440 413 OFFCURVE",
"440 340 CURVE SMOOTH",
"440 50 LINE",
"240 50 LINE SMOOTH",
"160 50 OFFCURVE",
"120 87 OFFCURVE",
"120 160 CURVE SMOOTH"
);
}
);
width = 570;
}
);
leftMetricsKey = o;
rightKerningGroup = d;
rightMetricsKey = "=|n";
unicode = 0064;
},
{
glyphname = e;
lastChange = "2017-03-25 20:15:49 +0000";
layers = (
{
anchors = (
{
name = bottom;
position = "{280, 0}";
},
{
name = ogonek;
position = "{504, 10}";
},
{
name = top;
position = "{280, 500}";
}
);
layerId = "65DE19D7-C0F2-4D8D-9C1D-34999E633ECA";
paths = (
{
closed = 1;
nodes = (
"460 80 LINE {name = hr00;}",
"460 100 LINE",
"240 100 LINE SMOOTH",
"201 100 OFFCURVE",
"180 120 OFFCURVE",
"180 160 CURVE SMOOTH",
"180 200 LINE",
"500 200 LINE",
"500 340 LINE SMOOTH",
"500 440 OFFCURVE",
"439 500 OFFCURVE",
"320 500 CURVE SMOOTH",
"220 500 LINE SMOOTH",
"120 500 OFFCURVE",
"60 440 OFFCURVE",
"60 360 CURVE SMOOTH",
"60 160 LINE SMOOTH",
"60 60 OFFCURVE",
"121 0 OFFCURVE",
"240 0 CURVE SMOOTH",
"407 0 LINE"
);
},
{
closed = 1;
nodes = (
"180 400 LINE",
"320 400 LINE SMOOTH",
"359 400 OFFCURVE",
"380 380 OFFCURVE",
"380 340 CURVE SMOOTH",
"380 300 LINE",
"180 300 LINE"
);
}
);
width = 560;
},
{
anchors = (
{
name = bottom;
position = "{280, 0}";
},
{
name = ogonek;
position = "{504, 10}";
},
{
name = top;
position = "{280, 500}";
}
);
guideLines = (
{
angle = 56.43;
position = "{440, 0}";
}
);
layerId = "FCEAB5BF-AFE7-45BC-83DB-D0DE89866BD6";
paths = (
{
closed = 1;
nodes = (
"460 30 LINE {name = hr00;}",
"460 50 LINE",
"240 50 LINE SMOOTH",
"160 50 OFFCURVE",
"120 87 OFFCURVE",
"120 160 CURVE SMOOTH",
"120 225 LINE",
"500 225 LINE",
"500 340 LINE SMOOTH",
"500 440 OFFCURVE",
"439 500 OFFCURVE",
"320 500 CURVE SMOOTH",
"220 500 LINE SMOOTH",
"120 500 OFFCURVE",
"60 440 OFFCURVE",
"60 360 CURVE SMOOTH",
"60 160 LINE SMOOTH",
"60 60 OFFCURVE",
"121 0 OFFCURVE",
"240 0 CURVE SMOOTH",
"440 0 LINE"
);
},
{
closed = 1;
nodes = (
"120 450 LINE",
"320 450 LINE SMOOTH",
"400 450 OFFCURVE",
"440 413 OFFCURVE",
"440 340 CURVE SMOOTH",
"440 275 LINE",
"120 275 LINE"
);
}
);
width = 560;
}
);
leftKerningGroup = c;
leftMetricsKey = o;
unicode = 0065;
},
{
glyphname = f;
lastChange = "2017-03-25 20:15:50 +0000";
layers = (
{
anchors = (
{
name = bottom;
position = "{175, 0}";
},
{
name = top;
position = "{175, 500}";
}
);
layerId = "65DE19D7-C0F2-4D8D-9C1D-34999E633ECA";
paths = (
{
closed = 1;
nodes = (
"100 500 LINE {name = hr00;}",
"20 500 LINE",
"20 400 LINE",
"100 400 LINE",
"100 0 LINE",
"220 0 LINE",
"220 400 LINE",
"320 400 LINE",
"320 500 LINE",
"220 500 LINE",
"220 600 LINE",
"320 600 LINE",
"320 700 LINE",
"260 700 LINE SMOOTH",
"160 700 OFFCURVE",
"100 640 OFFCURVE",
"100 560 CURVE SMOOTH"
);
}
);
width = 350;
},
{
anchors = (
{
name = bottom;
position = "{175, 0}";
},
{
name = top;
position = "{175, 500}";
}
);
layerId = "FCEAB5BF-AFE7-45BC-83DB-D0DE89866BD6";
paths = (
{
closed = 1;
nodes = (
"130 500 LINE {name = hr00;}",
"20 500 LINE",
"20 450 LINE",
"130 450 LINE",
"130 0 LINE",
"190 0 LINE",
"190 450 LINE",
"320 450 LINE",
"320 500 LINE",
"190 500 LINE",
"190 650 LINE",
"320 650 LINE",
"320 700 LINE",
"290 700 LINE SMOOTH",
"190 700 OFFCURVE",
"130 640 OFFCURVE",
"130 560 CURVE SMOOTH"
);
}
);
width = 350;
}
);
leftKerningGroup = f;
unicode = 0066;
},
{
glyphname = g;
lastChange = "2017-03-25 20:15:52 +0000";
layers = (
{
anchors = (
{
name = bottom;
position = "{285, 0}";
},
{
name = top;
position = "{285, 500}";
}
);
layerId = "65DE19D7-C0F2-4D8D-9C1D-34999E633ECA";
paths = (
{
closed = 1;
nodes = (
"380 80 LINE {name = hr00;}",
"380 -100 LINE",
"120 -100 LINE",
"120 -120 LINE",
"173 -200 LINE",
"340 -200 LINE SMOOTH",
"440 -200 OFFCURVE",
"500 -140 OFFCURVE",
"500 -60 CURVE SMOOTH",
"500 500 LINE",
"380 500 LINE",
"380 420 LINE",
"326 500 LINE",
"220 500 LINE SMOOTH",
"120 500 OFFCURVE",
"60 440 OFFCURVE",
"60 360 CURVE SMOOTH",
"60 160 LINE SMOOTH",
"60 60 OFFCURVE",
"120 0 OFFCURVE",
"240 0 CURVE SMOOTH",
"326 0 LINE"
);
},
{
closed = 1;
nodes = (
"380 100 LINE",
"240 100 LINE SMOOTH",
"200 100 OFFCURVE",
"180 120 OFFCURVE",
"180 160 CURVE SMOOTH",
"180 400 LINE",
"325 400 LINE SMOOTH",
"361 400 OFFCURVE",
"380 378 OFFCURVE",
"380 340 CURVE SMOOTH"
);
}
);
width = 570;
},
{
anchors = (
{
name = bottom;
position = "{285, 0}";
},
{
name = top;
position = "{285, 500}";
}
);
guideLines = (
{
angle = 56.43;
position = "{420, 0}";
}
);
layerId = "FCEAB5BF-AFE7-45BC-83DB-D0DE89866BD6";
paths = (
{
closed = 1;
nodes = (
"440 30 LINE {name = hr00;}",
"440 -150 LINE",
"120 -150 LINE",
"120 -170 LINE",
"140 -200 LINE",
"340 -200 LINE SMOOTH",
"440 -200 OFFCURVE",
"500 -140 OFFCURVE",
"500 -60 CURVE SMOOTH",
"500 500 LINE",
"440 500 LINE",
"440 420 LINE",
"386 500 LINE",
"220 500 LINE SMOOTH",
"120 500 OFFCURVE",
"60 440 OFFCURVE",
"60 360 CURVE SMOOTH",
"60 160 LINE SMOOTH",
"60 60 OFFCURVE",
"120 0 OFFCURVE",
"240 0 CURVE SMOOTH",
"420 0 LINE"
);
},
{
closed = 1;
nodes = (
"440 50 LINE",
"240 50 LINE SMOOTH",
"160 50 OFFCURVE",
"120 87 OFFCURVE",
"120 160 CURVE SMOOTH",
"120 450 LINE",
"320 450 LINE SMOOTH",
"400 450 OFFCURVE",
"440 413 OFFCURVE",
"440 340 CURVE SMOOTH"
);
}
);
width = 570;
}
);
leftKerningGroup = c;
leftMetricsKey = o;
rightMetricsKey = "=|n";
unicode = 0067;
},
{
glyphname = h;
lastChange = "2017-03-25 20:15:54 +0000";
layers = (
{
anchors = (
{
name = bottom;
position = "{293, 0}";
},
{
name = center;
position = "{293, 250}";
},
{
name = top;
position = "{293, 500}";
}
);
layerId = "65DE19D7-C0F2-4D8D-9C1D-34999E633ECA";
paths = (
{
closed = 1;
nodes = (
"190 400 LINE {name = hr00;}",
"330 400 LINE SMOOTH",
"369 400 OFFCURVE",
"390 380 OFFCURVE",
"390 340 CURVE SMOOTH",
"390 0 LINE",
"510 0 LINE",
"510 340 LINE SMOOTH",
"510 440 OFFCURVE",
"449 500 OFFCURVE",
"330 500 CURVE SMOOTH",
"243 500 LINE",
"190 420 LINE",
"190 700 LINE",
"70 700 LINE",
"70 0 LINE",
"190 0 LINE"
);
}
);
width = 575;
},
{
anchors = (
{
name = bottom;
position = "{283, 0}";
},
{
name = center;
position = "{283, 250}";
},
{
name = top;
position = "{283, 500}";
}
);
guideLines = (
{
angle = 56.43;
position = "{-192, 0}";
}
);
layerId = "FCEAB5BF-AFE7-45BC-83DB-D0DE89866BD6";
paths = (
{
closed = 1;
nodes = (
"120 450 LINE {name = hr00;}",
"320 450 LINE SMOOTH",
"400 450 OFFCURVE",
"440 413 OFFCURVE",
"440 340 CURVE SMOOTH",
"440 0 LINE",
"500 0 LINE",
"500 340 LINE SMOOTH",
"500 440 OFFCURVE",
"439 500 OFFCURVE",
"320 500 CURVE SMOOTH",
"140 500 LINE",
"120 470 LINE",
"120 700 LINE",
"60 700 LINE",
"60 0 LINE",
"120 0 LINE"
);
}
);
width = 565;
}
);
rightKerningGroup = a;
rightMetricsKey = n;
unicode = 0068;
},
{
glyphname = idotless;
lastChange = "2017-03-25 20:20:17 +0000";
layers = (
{
anchors = (
{
name = bottom;
position = "{130, 0}";
},
{
name = ogonek;
position = "{226, 10}";
},
{
name = top;
position = "{130, 500}";
}
);
layerId = "65DE19D7-C0F2-4D8D-9C1D-34999E633ECA";
paths = (
{
closed = 1;
nodes = (
"70 0 LINE {name = hr00;}",
"190 0 LINE",
"190 500 LINE",
"70 500 LINE"
);
}
);
width = 260;
},
{
anchors = (
{
name = bottom;
position = "{100, 0}";
},
{
name = ogonek;
position = "{180, 10}";
},
{
name = top;
position = "{100, 500}";
}
);
layerId = "FCEAB5BF-AFE7-45BC-83DB-D0DE89866BD6";
paths = (
{
closed = 1;
nodes = (
"70 0 LINE {name = hr00;}",
"130 0 LINE",
"130 500 LINE",
"70 500 LINE"
);
}
);
width = 200;
}
);
leftMetricsKey = n;
rightMetricsKey = "=|n";
unicode = 0131;
},
{
color = 6;
glyphname = j;
lastChange = "2017-03-25 20:21:05 +0000";
layers = (
{
components = (
{
name = jdotless;
},
{
name = dotaccentcomb;
transform = "{1, 0, 0, 1, -2, 0}";
}
);
layerId = "65DE19D7-C0F2-4D8D-9C1D-34999E633ECA";
width = 280;
},
{
background = {
paths = (
{
closed = 1;
nodes = (
"120 500 LINE {name = hr00;}",
"120 -150 LINE",
"-30 -150 LINE",
"-30 -170 LINE",
"-10 -200 LINE",
"20 -200 LINE SMOOTH",
"120 -200 OFFCURVE",
"180 -140 OFFCURVE",
"180 -60 CURVE SMOOTH",
"180 500 LINE"
);
},
{
closed = 1;
nodes = (
"106 640 CURVE SMOOTH",
"106 616 OFFCURVE",
"126 596 OFFCURVE",
"150 596 CURVE SMOOTH",
"174 596 OFFCURVE",
"194 616 OFFCURVE",
"194 640 CURVE SMOOTH",
"194 664 OFFCURVE",
"174 684 OFFCURVE",
"150 684 CURVE SMOOTH",
"126 684 OFFCURVE",
"106 664 OFFCURVE"
);
}
);
};
components = (
{
name = jdotless;
},
{
name = dotaccentcomb;
transform = "{1, 0, 0, 1, 26, 0}";
}
);
layerId = "FCEAB5BF-AFE7-45BC-83DB-D0DE89866BD6";
width = 250;
}
);
leftKerningGroup = i;
unicode = 006A;
userData = {
com.typemytype.robofont.mark = (
0.656,
1,
0.6,
1
);
};
},
{
glyphname = jdotless;
lastChange = "2017-03-25 20:20:51 +0000";
layers = (
{
anchors = (
{
name = bottom;
position = "{135, 0}";
},
{
name = top;
position = "{150, 500}";
}
);
layerId = "65DE19D7-C0F2-4D8D-9C1D-34999E633ECA";
paths = (
{
closed = 1;
nodes = (
"90 500 LINE {name = hr00;}",
"90 -100 LINE",
"-30 -100 LINE",
"-30 -120 LINE",
"24 -200 LINE",
"50 -200 LINE SMOOTH",
"150 -200 OFFCURVE",
"210 -140 OFFCURVE",
"210 -60 CURVE SMOOTH",
"210 500 LINE"
);
}
);
width = 280;
},
{
anchors = (
{
name = bottom;
position = "{125, 0}";
},
{
name = top;
position = "{150, 500}";
}
);
layerId = "FCEAB5BF-AFE7-45BC-83DB-D0DE89866BD6";
paths = (
{
closed = 1;
nodes = (
"120 500 LINE {name = hr00;}",
"120 -150 LINE",
"-30 -150 LINE",
"-30 -170 LINE",
"-10 -200 LINE",
"20 -200 LINE SMOOTH",
"120 -200 OFFCURVE",
"180 -140 OFFCURVE",
"180 -60 CURVE SMOOTH",
"180 500 LINE"
);
}
);
width = 250;
}
);
rightMetricsKey = "=|n";
unicode = 0237;
},
{
glyphname = k;
lastChange = "2017-03-25 20:16:09 +0000";
layers = (
{
anchors = (
{
name = bottom;
position = "{286, 0}";
},
{
name = top;
position = "{286, 500}";
}
);
layerId = "65DE19D7-C0F2-4D8D-9C1D-34999E633ECA";
paths = (
{
closed = 1;
nodes = (
"70 0 LINE",
"190 0 LINE",
"190 700 LINE",
"70 700 LINE"
);
},
{
closed = 1;
nodes = (
"153 210 LINE",
"323 210 LINE",
"323 312 LINE",
"153 312 LINE"
);
},
{
closed = 1;
nodes = (
"222 261 LINE",
"363 261 LINE",
"536 500 LINE",
"395 500 LINE"
);
},
{
closed = 1;
nodes = (
"402 0 LINE",
"527 0 LINE",
"472 202 LINE SMOOTH",
"448 290 OFFCURVE",
"370 312 OFFCURVE",
"298 312 CURVE",
"298 210 LINE",
"329 210 OFFCURVE",
"348 199 OFFCURVE",
"356 169 CURVE SMOOTH"
);
}
);
width = 572;
},
{
anchors = (
{
name = bottom;
position = "{260, 0}";
},
{
name = top;
position = "{260, 500}";
}
);
layerId = "FCEAB5BF-AFE7-45BC-83DB-D0DE89866BD6";
paths = (
{
closed = 1;
nodes = (
"70 700 LINE",
"70 0 LINE",
"190 0 LINE",
"190 260 LINE",
"363 0 LINE",
"500 0 LINE",
"321 270 LINE",
"473 500 LINE",
"336 500 LINE",
"190 280 LINE",
"190 700 LINE"
);
}
);
width = 520;
}
);
leftKerningGroup = i;
leftMetricsKey = h;
unicode = 006B;
},
{
glyphname = l;
lastChange = "2017-03-25 20:16:10 +0000";
layers = (
{
anchors = (
{
name = bottom;
position = "{153, 0}";
},
{
name = center;
position = "{125, 500}";
},
{
name = top;
position = "{125, 700}";
},
{
name = topright;
position = "{285, 700}";
}
);
layerId = "65DE19D7-C0F2-4D8D-9C1D-34999E633ECA";
paths = (
{
closed = 1;
nodes = (
"265 -3 LINE {name = hr00;}",
"265 97 LINE",
"245 97 LINE SMOOTH",
"206 97 OFFCURVE",
"185 117 OFFCURVE",
"185 157 CURVE SMOOTH",
"185 700 LINE",
"65 700 LINE",
"65 157 LINE SMOOTH",
"65 57 OFFCURVE",
"126 -3 OFFCURVE",
"245 -3 CURVE SMOOTH"
);
}
);
width = 305;
},
{
anchors = (
{
name = bottom;
position = "{153, 0}";
},
{
name = center;
position = "{153, 250}";
},
{
name = top;
position = "{153, 500}";
},
{
name = topright;
position = "{285, 500}";
}
);
layerId = "FCEAB5BF-AFE7-45BC-83DB-D0DE89866BD6";
paths = (
{
closed = 1;
nodes = (
"265 -3 LINE {name = hr00;}",
"265 47 LINE",
"245 47 LINE SMOOTH",
"165 47 OFFCURVE",
"125 84 OFFCURVE",
"125 157 CURVE SMOOTH",
"125 700 LINE",
"65 700 LINE",
"65 157 LINE SMOOTH",
"65 57 OFFCURVE",
"126 -3 OFFCURVE",
"245 -3 CURVE SMOOTH"
);
}
);
width = 305;
}
);
leftKerningGroup = b;
unicode = 006C;
},
{
glyphname = m;
lastChange = "2017-03-25 20:16:12 +0000";
layers = (
{
anchors = (
{
name = bottom;
position = "{403, 0}";
},
{
name = top;
position = "{403, 500}";
}
);
layerId = "65DE19D7-C0F2-4D8D-9C1D-34999E633ECA";
paths = (
{
closed = 1;
nodes = (
"70 500 LINE {name = hr00;}",
"70 0 LINE",
"190 0 LINE",
"190 400 LINE",
"285 400 LINE SMOOTH",
"325 400 OFFCURVE",
"345 380 OFFCURVE",
"345 340 CURVE SMOOTH",
"345 0 LINE",
"465 0 LINE",
"465 340 LINE SMOOTH",
"465 362 OFFCURVE",
"462 382 OFFCURVE",
"456 400 CURVE",
"560 400 LINE SMOOTH",
"600 400 OFFCURVE",
"620 380 OFFCURVE",
"620 340 CURVE SMOOTH",
"620 0 LINE",
"740 0 LINE",
"740 340 LINE SMOOTH",
"740 440 OFFCURVE",
"680 500 OFFCURVE",
"560 500 CURVE SMOOTH",
"499 500 LINE",
"447 422 LINE",
"421 472 OFFCURVE",
"367 500 OFFCURVE",
"285 500 CURVE SMOOTH",
"244 500 LINE",
"190 420 LINE",
"190 500 LINE"
);
}
);
width = 805;
},
{
anchors = (
{
name = bottom;
position = "{408, 0}";
},
{
name = top;
position = "{408, 500}";
}
);
guideLines = (
{
position = "{0, 470}";
},
{
position = "{0, 420}";
},
{
angle = 56.43;
position = "{68, 0}";
}
);
layerId = "FCEAB5BF-AFE7-45BC-83DB-D0DE89866BD6";
paths = (
{
closed = 1;
nodes = (
"70 500 LINE {name = hr00;}",
"70 0 LINE",
"130 0 LINE",
"130 450 LINE",
"259 450 LINE SMOOTH",
"339 450 OFFCURVE",
"379 413 OFFCURVE",
"379 340 CURVE SMOOTH",
"379 0 LINE",
"439 0 LINE",
"439 340 LINE SMOOTH",
"439 385 OFFCURVE",
"426 423 OFFCURVE",
"401 450 CURVE",
"570 450 LINE SMOOTH",
"650 450 OFFCURVE",
"690 413 OFFCURVE",
"690 340 CURVE SMOOTH",
"690 0 LINE",
"750 0 LINE",
"750 340 LINE SMOOTH",
"750 440 OFFCURVE",
"689 500 OFFCURVE",
"570 500 CURVE SMOOTH",
"394 500 LINE",
"375 471 LINE",
"346 490 OFFCURVE",
"307 500 OFFCURVE",
"259 500 CURVE SMOOTH",
"150 500 LINE",
"130 470 LINE",
"130 500 LINE"
);
}
);
width = 815;
}
);
leftKerningGroup = i;
leftMetricsKey = n;
rightKerningGroup = a;
rightMetricsKey = n;
unicode = 006D;
},
{
glyphname = n;
lastChange = "2017-03-25 20:16:13 +0000";
layers = (
{
anchors = (
{
name = bottom;
position = "{288, 0}";
},
{
name = top;
position = "{288, 500}";
}
);
layerId = "65DE19D7-C0F2-4D8D-9C1D-34999E633ECA";
paths = (
{
closed = 1;
nodes = (
"70 500 LINE {name = hr00;}",
"70 0 LINE",
"190 0 LINE",
"190 400 LINE",
"330 400 LINE SMOOTH",
"369 400 OFFCURVE",
"390 380 OFFCURVE",
"390 340 CURVE SMOOTH",
"390 0 LINE",
"510 0 LINE",
"510 340 LINE SMOOTH",
"510 440 OFFCURVE",
"449 500 OFFCURVE",
"330 500 CURVE SMOOTH",
"243 500 LINE",
"190 420 LINE",
"190 500 LINE"
);
}
);
width = 575;
},
{
anchors = (
{
name = bottom;
position = "{288, 0}";
},
{
name = top;
position = "{288, 500}";
}
);
guideLines = (
{
position = "{0, 450}";
},
{
angle = 90;
position = "{130, 0}";
},
{
angle = 90;
position = "{450, 0}";
},
{
angle = 56.43;
position = "{-182, 0}";
}
);
layerId = "FCEAB5BF-AFE7-45BC-83DB-D0DE89866BD6";
paths = (
{
closed = 1;
nodes = (
"70 500 LINE {name = hr00;}",
"70 0 LINE",
"130 0 LINE",
"130 450 LINE",
"330 450 LINE SMOOTH",
"410 450 OFFCURVE",
"450 413 OFFCURVE",
"450 340 CURVE SMOOTH",
"450 0 LINE",
"510 0 LINE",
"510 340 LINE SMOOTH",
"510 440 OFFCURVE",
"449 500 OFFCURVE",
"330 500 CURVE SMOOTH",
"150 500 LINE",
"130 470 LINE",
"130 500 LINE"
);
}
);
width = 575;
}
);
leftKerningGroup = i;
rightKerningGroup = a;
unicode = 006E;
},
{
color = 7;
glyphname = eng;
lastChange = "2017-03-25 20:11:35 +0000";
layers = (
{
components = (
{
name = n;
}
);
layerId = "65DE19D7-C0F2-4D8D-9C1D-34999E633ECA";
paths = (
{
closed = 1;
nodes = (
"390 0 LINE {name = hr00;}",
"390 -100 LINE",
"270 -100 LINE",
"270 -120 LINE",
"324 -200 LINE",
"350 -200 LINE SMOOTH",
"450 -200 OFFCURVE",
"510 -140 OFFCURVE",
"510 -60 CURVE SMOOTH",
"510 0 LINE"
);
}
);
width = 575;
},
{
layerId = "FCEAB5BF-AFE7-45BC-83DB-D0DE89866BD6";
width = 600;
}
);
leftMetricsKey = n;
rightMetricsKey = n;
unicode = 014B;
},
{
glyphname = o;
lastChange = "2017-03-25 20:16:14 +0000";
layers = (
{
anchors = (
{
name = bottom;
position = "{290, 0}";
},
{
name = center;
position = "{290, 250}";
},
{
name = ogonek;
position = "{522, 10}";
},
{
name = top;
position = "{290, 500}";
},
{
name = topright;
position = "{560, 500}";
}
);
guideLines = (
{
position = "{0, 340}";
},
{
angle = 90;
position = "{340, 0}";
}
);
layerId = "65DE19D7-C0F2-4D8D-9C1D-34999E633ECA";
paths = (
{
closed = 1;
nodes = (
"520 140 CURVE {name = hr00;}",
"520 340 LINE SMOOTH",
"520 440 OFFCURVE",
"459 500 OFFCURVE",
"340 500 CURVE SMOOTH",
"220 500 LINE SMOOTH",
"120 500 OFFCURVE",
"60 440 OFFCURVE",
"60 360 CURVE SMOOTH",
"60 160 LINE SMOOTH",
"60 60 OFFCURVE",
"121 0 OFFCURVE",
"240 0 CURVE SMOOTH",
"360 0 LINE SMOOTH",
"460 0 OFFCURVE",
"520 60 OFFCURVE"
);
},
{
closed = 1;
nodes = (
"180 400 LINE",
"340 400 LINE SMOOTH",
"379 400 OFFCURVE",
"400 380 OFFCURVE",
"400 340 CURVE SMOOTH",
"400 100 LINE",
"240 100 LINE SMOOTH",
"201 100 OFFCURVE",
"180 120 OFFCURVE",
"180 160 CURVE SMOOTH"
);
}
);
width = 580;
},
{
anchors = (
{
name = bottom;
position = "{290, 0}";
},
{
name = center;
position = "{290, 250}";
},
{
name = ogonek;
position = "{522, 10}";
},
{
name = top;
position = "{290, 500}";
},
{
name = topright;
position = "{560, 500}";
}
);
guideLines = (
{
angle = 90;
position = "{120, 0}";
},
{
angle = 90;
position = "{460, 0}";
}
);
layerId = "FCEAB5BF-AFE7-45BC-83DB-D0DE89866BD6";
paths = (
{
closed = 1;
nodes = (
"520 140 CURVE {name = hr00;}",
"520 340 LINE SMOOTH",
"520 440 OFFCURVE",
"459 500 OFFCURVE",
"340 500 CURVE SMOOTH",
"220 500 LINE SMOOTH",
"120 500 OFFCURVE",
"60 440 OFFCURVE",
"60 360 CURVE SMOOTH",
"60 160 LINE SMOOTH",
"60 60 OFFCURVE",
"121 0 OFFCURVE",
"240 0 CURVE SMOOTH",
"360 0 LINE SMOOTH",
"460 0 OFFCURVE",
"520 60 OFFCURVE"
);
},
{
closed = 1;
nodes = (
"120 450 LINE",
"340 450 LINE SMOOTH",
"420 450 OFFCURVE",
"460 413 OFFCURVE",
"460 340 CURVE SMOOTH",
"460 50 LINE",
"240 50 LINE SMOOTH",
"160 50 OFFCURVE",
"120 87 OFFCURVE",
"120 160 CURVE SMOOTH"
);
}
);
width = 580;
}
);
leftKerningGroup = c;
rightKerningGroup = b;
unicode = 006F;
userData = {
com.typemytype.robofont.guides = (
{
angle = 0;
isGlobal = 0;
magnetic = 5;
x = 0;
y = 340;
},
{
angle = 90;
isGlobal = 0;
magnetic = 5;
x = 340;
y = 0;
}
);
};
},
{
glyphname = oe;
lastChange = "2017-03-25 20:16:15 +0000";
layers = (
{
anchors = (
{
name = bottom;
position = "{415, 0}";
},
{
name = top;
position = "{415, 500}";
}
);
layerId = "65DE19D7-C0F2-4D8D-9C1D-34999E633ECA";
paths = (
{
closed = 1;
nodes = (
"480 200 LINE {name = hr00;}",
"770 200 LINE",
"770 340 LINE SMOOTH",
"770 440 OFFCURVE",
"709 500 OFFCURVE",
"590 500 CURVE SMOOTH",
"520 500 LINE SMOOTH",
"478 500 OFFCURVE",
"443 489 OFFCURVE",
"416 471 CURVE",
"387 490 OFFCURVE",
"348 500 OFFCURVE",
"300 500 CURVE SMOOTH",
"220 500 LINE SMOOTH",
"120 500 OFFCURVE",
"60 440 OFFCURVE",
"60 360 CURVE SMOOTH",
"60 160 LINE SMOOTH",
"60 60 OFFCURVE",
"121 0 OFFCURVE",
"240 0 CURVE SMOOTH",
"320 0 LINE SMOOTH",
"362 0 OFFCURVE",
"397 10 OFFCURVE",
"423 28 CURVE",
"452 10 OFFCURVE",
"491 0 OFFCURVE",
"540 0 CURVE SMOOTH",
"677 0 LINE",
"730 80 LINE",
"730 100 LINE",
"540 100 LINE SMOOTH",
"501 100 OFFCURVE",
"480 120 OFFCURVE",
"480 160 CURVE SMOOTH"
);
},
{
closed = 1;
nodes = (
"180 400 LINE",
"300 400 LINE SMOOTH",
"339 400 OFFCURVE",
"360 380 OFFCURVE",
"360 340 CURVE SMOOTH",
"360 100 LINE",
"240 100 LINE SMOOTH",
"201 100 OFFCURVE",
"180 120 OFFCURVE",
"180 160 CURVE SMOOTH"
);
},
{
closed = 1;
nodes = (
"480 400 LINE",
"590 400 LINE SMOOTH",
"629 400 OFFCURVE",
"650 380 OFFCURVE",
"650 340 CURVE SMOOTH",
"650 300 LINE",
"480 300 LINE"
);
}
);
width = 830;
},
{
anchors = (
{
name = bottom;
position = "{415, 0}";
},
{
name = top;
position = "{415, 500}";
}
);
guideLines = (
{
position = "{0, 339}";
}
);
layerId = "FCEAB5BF-AFE7-45BC-83DB-D0DE89866BD6";
paths = (
{
closed = 1;
nodes = (
"450 225 LINE {name = hr00;}",
"770 225 LINE",
"770 340 LINE SMOOTH",
"770 440 OFFCURVE",
"709 500 OFFCURVE",
"590 500 CURVE SMOOTH",
"550 500 LINE SMOOTH",
"490 500 OFFCURVE",
"444 478 OFFCURVE",
"417 444 CURVE",
"388 480 OFFCURVE",
"339 500 OFFCURVE",
"270 500 CURVE SMOOTH",
"220 500 LINE SMOOTH",
"120 500 OFFCURVE",
"60 440 OFFCURVE",
"60 360 CURVE SMOOTH",
"60 160 LINE SMOOTH",
"60 60 OFFCURVE",
"121 0 OFFCURVE",
"240 0 CURVE SMOOTH",
"290 0 LINE SMOOTH",
"350 0 OFFCURVE",
"395 21 OFFCURVE",
"422 56 CURVE",
"452 20 OFFCURVE",
"501 0 OFFCURVE",
"570 0 CURVE SMOOTH",
"677 0 LINE",
"697 30 LINE",
"697 50 LINE",
"570 50 LINE SMOOTH",
"490 50 OFFCURVE",
"450 87 OFFCURVE",
"450 160 CURVE SMOOTH"
);
},
{
closed = 1;
nodes = (
"120 450 LINE",
"270 450 LINE SMOOTH",
"350 450 OFFCURVE",
"390 413 OFFCURVE",
"390 340 CURVE SMOOTH",
"390 50 LINE",
"240 50 LINE SMOOTH",
"160 50 OFFCURVE",
"120 87 OFFCURVE",
"120 160 CURVE SMOOTH"
);
},
{
closed = 1;
nodes = (
"450 450 LINE",
"590 450 LINE SMOOTH",
"670 450 OFFCURVE",
"710 413 OFFCURVE",
"710 340 CURVE SMOOTH",
"710 275 LINE",
"450 275 LINE"
);
}
);
width = 830;
}
);
leftKerningGroup = c;
leftMetricsKey = o;
rightMetricsKey = e;
unicode = 0153;
},
{
glyphname = p;
lastChange = "2017-03-25 20:16:16 +0000";
layers = (
{
anchors = (
{
name = bottom;
position = "{290, 0}";
},
{
name = top;
position = "{290, 500}";
}
);
layerId = "65DE19D7-C0F2-4D8D-9C1D-34999E633ECA";
paths = (
{
closed = 1;
nodes = (
"190 80 LINE {name = hr00;}",
"243 0 LINE",
"350 0 LINE SMOOTH",
"450 0 OFFCURVE",
"510 60 OFFCURVE",
"510 140 CURVE SMOOTH",
"510 340 LINE SMOOTH",
"510 440 OFFCURVE",
"449 500 OFFCURVE",
"330 500 CURVE SMOOTH",
"243 500 LINE",
"190 420 LINE",
"190 500 LINE",
"70 500 LINE",
"70 -200 LINE",
"190 -200 LINE"
);
},
{
closed = 1;
nodes = (
"190 400 LINE",
"330 400 LINE SMOOTH",
"369 400 OFFCURVE",
"390 380 OFFCURVE",
"390 340 CURVE SMOOTH",
"390 100 LINE",
"244 100 LINE SMOOTH",
"211 100 OFFCURVE",
"190 120 OFFCURVE",
"190 154 CURVE SMOOTH"
);
}
);
width = 570;
},
{
anchors = (
{
name = bottom;
position = "{280, 0}";
},
{
name = top;
position = "{280, 500}";
}
);
guideLines = (
{
angle = 56.43;
position = "{-192, 0}";
}
);
layerId = "FCEAB5BF-AFE7-45BC-83DB-D0DE89866BD6";
paths = (
{
closed = 1;
nodes = (
"120 80 LINE {name = hr00;}",
"173 0 LINE",
"340 0 LINE SMOOTH",
"440 0 OFFCURVE",
"500 60 OFFCURVE",
"500 140 CURVE SMOOTH",
"500 340 LINE SMOOTH",
"500 440 OFFCURVE",
"439 500 OFFCURVE",
"320 500 CURVE SMOOTH",
"140 500 LINE",
"120 470 LINE",
"120 500 LINE",
"60 500 LINE",
"60 -200 LINE",
"120 -200 LINE"
);
},
{
closed = 1;
nodes = (
"120 450 LINE",
"320 450 LINE SMOOTH",
"400 450 OFFCURVE",
"440 413 OFFCURVE",
"440 340 CURVE SMOOTH",
"440 50 LINE",
"240 50 LINE SMOOTH",
"160 50 OFFCURVE",
"120 87 OFFCURVE",
"120 160 CURVE SMOOTH"
);
}
);
width = 560;
}
);
leftKerningGroup = i;
leftMetricsKey = h;
rightKerningGroup = b;
rightMetricsKey = o;
unicode = 0070;
},
{
glyphname = thorn;
lastChange = "2017-03-25 20:16:17 +0000";
layers = (
{
anchors = (
{
name = bottom;
position = "{285, 0}";
},
{
name = top;
position = "{285, 500}";
}
);
layerId = "65DE19D7-C0F2-4D8D-9C1D-34999E633ECA";
paths = (
{
closed = 1;
nodes = (
"190 80 LINE {name = hr00;}",
"243 0 LINE",
"350 0 LINE SMOOTH",
"450 0 OFFCURVE",
"510 60 OFFCURVE",
"510 140 CURVE SMOOTH",
"510 340 LINE SMOOTH",
"510 440 OFFCURVE",
"449 500 OFFCURVE",
"330 500 CURVE SMOOTH",
"243 500 LINE",
"190 420 LINE",
"190 700 LINE",
"70 700 LINE",
"70 -200 LINE",
"190 -200 LINE"
);
},
{
closed = 1;
nodes = (
"190 400 LINE",
"330 400 LINE SMOOTH",
"369 400 OFFCURVE",
"390 380 OFFCURVE",
"390 340 CURVE SMOOTH",
"390 100 LINE",
"244 100 LINE SMOOTH",
"211 100 OFFCURVE",
"190 120 OFFCURVE",
"190 154 CURVE SMOOTH"
);
}
);
width = 570;
},
{
anchors = (
{
name = bottom;
position = "{280, 0}";
},
{
name = top;
position = "{280, 500}";
}
);
layerId = "FCEAB5BF-AFE7-45BC-83DB-D0DE89866BD6";
paths = (
{
closed = 1;
nodes = (
"120 80 LINE {name = hr00;}",
"173 0 LINE",
"340 0 LINE SMOOTH",
"440 0 OFFCURVE",
"500 60 OFFCURVE",
"500 140 CURVE SMOOTH",
"500 340 LINE SMOOTH",
"500 440 OFFCURVE",
"439 500 OFFCURVE",
"320 500 CURVE SMOOTH",
"140 500 LINE",
"120 470 LINE",
"120 700 LINE",
"60 700 LINE",
"60 -200 LINE",
"120 -200 LINE"
);
},
{
closed = 1;
nodes = (
"120 450 LINE",
"320 450 LINE SMOOTH",
"400 450 OFFCURVE",
"440 413 OFFCURVE",
"440 340 CURVE SMOOTH",
"440 50 LINE",
"240 50 LINE SMOOTH",
"160 50 OFFCURVE",
"120 87 OFFCURVE",
"120 160 CURVE SMOOTH"
);
}
);
width = 560;
}
);
leftMetricsKey = h;
rightMetricsKey = o;
unicode = 00FE;
},
{
glyphname = q;
lastChange = "2017-03-25 20:16:19 +0000";
layers = (
{
anchors = (
{
name = bottom;
position = "{280, 0}";
},
{
name = top;
position = "{280, 500}";
}
);
layerId = "65DE19D7-C0F2-4D8D-9C1D-34999E633ECA";
paths = (
{
closed = 1;
nodes = (
"500 500 LINE {name = hr00;}",
"380 500 LINE",
"380 420 LINE",
"327 500 LINE",
"220 500 LINE SMOOTH",
"120 500 OFFCURVE",
"60 440 OFFCURVE",
"60 360 CURVE SMOOTH",
"60 160 LINE SMOOTH",
"60 60 OFFCURVE",
"121 0 OFFCURVE",
"240 0 CURVE SMOOTH",
"327 0 LINE",
"380 80 LINE",
"380 -200 LINE",
"500 -200 LINE"
);
},
{
closed = 1;
nodes = (
"180 400 LINE",
"325 400 LINE SMOOTH",
"359 400 OFFCURVE",
"380 380 OFFCURVE",
"380 346 CURVE SMOOTH",
"380 100 LINE",
"240 100 LINE SMOOTH",
"201 100 OFFCURVE",
"180 120 OFFCURVE",
"180 160 CURVE SMOOTH"
);
}
);
width = 570;
},
{
anchors = (
{
name = bottom;
position = "{280, 0}";
},
{
name = top;
position = "{280, 500}";
}
);
guideLines = (
{
angle = 56.43;
position = "{420, 0}";
}
);
layerId = "FCEAB5BF-AFE7-45BC-83DB-D0DE89866BD6";
paths = (
{
closed = 1;
nodes = (
"500 500 LINE {name = hr00;}",
"440 500 LINE",
"440 420 LINE",
"387 500 LINE",
"220 500 LINE SMOOTH",
"120 500 OFFCURVE",
"60 440 OFFCURVE",
"60 360 CURVE SMOOTH",
"60 160 LINE SMOOTH",
"60 60 OFFCURVE",
"121 0 OFFCURVE",
"240 0 CURVE SMOOTH",
"420 0 LINE",
"440 30 LINE",
"440 -200 LINE",
"500 -200 LINE"
);
},
{
closed = 1;
nodes = (
"120 450 LINE",
"320 450 LINE SMOOTH",
"400 450 OFFCURVE",
"440 413 OFFCURVE",
"440 340 CURVE SMOOTH",
"440 50 LINE",
"240 50 LINE SMOOTH",
"160 50 OFFCURVE",
"120 87 OFFCURVE",
"120 160 CURVE SMOOTH"
);
}
);
width = 560;
}
);
leftKerningGroup = c;
leftMetricsKey = o;
rightMetricsKey = "=|n";
unicode = 0071;
},
{
glyphname = r;
lastChange = "2017-03-25 20:16:20 +0000";
layers = (
{
anchors = (
{
name = bottom;
position = "{195, 0}";
},
{
name = top;
position = "{240, 500}";
}
);
layerId = "65DE19D7-C0F2-4D8D-9C1D-34999E633ECA";
paths = (
{
closed = 1;
nodes = (
"70 500 LINE {name = hr00;}",
"70 0 LINE",
"190 0 LINE",
"190 400 LINE",
"337 400 LINE",
"390 480 LINE",
"390 500 LINE",
"244 500 LINE",
"190 420 LINE",
"190 500 LINE"
);
}
);
width = 390;
},
{
anchors = (
{
name = bottom;
position = "{195, 0}";
},
{
name = top;
position = "{195, 500}";
}
);
guideLines = (
{
angle = 56.43;
position = "{71, 0}";
}
);
layerId = "FCEAB5BF-AFE7-45BC-83DB-D0DE89866BD6";
paths = (
{
closed = 1;
nodes = (
"70 500 LINE {name = hr00;}",
"70 0 LINE",
"130 0 LINE",
"130 450 LINE",
"371 450 LINE",
"390 480 LINE",
"390 500 LINE",
"150 500 LINE",
"130 470 LINE",
"130 500 LINE"
);
}
);
width = 390;
}
);
leftKerningGroup = i;
leftMetricsKey = n;
unicode = 0072;
},
{
glyphname = s;
lastChange = "2017-03-25 20:16:21 +0000";
layers = (
{
anchors = (
{
name = bottom;
position = "{280, 0}";
},
{
name = top;
position = "{280, 500}";
}
);
layerId = "65DE19D7-C0F2-4D8D-9C1D-34999E633ECA";
paths = (
{
closed = 1;
nodes = (
"180 400 LINE {name = hr00;}",
"320 400 LINE SMOOTH",
"352 400 OFFCURVE",
"372 386 OFFCURVE",
"378 360 CURVE",
"499 360 LINE",
"491 448 OFFCURVE",
"431 500 OFFCURVE",
"320 500 CURVE SMOOTH",
"220 500 LINE SMOOTH",
"120 500 OFFCURVE",
"60 440 OFFCURVE",
"60 360 CURVE SMOOTH",
"60 260 OFFCURVE",
"121 200 OFFCURVE",
"240 200 CURVE SMOOTH",
"320 200 LINE SMOOTH",
"359 200 OFFCURVE",
"380 180 OFFCURVE",
"380 140 CURVE SMOOTH",
"380 100 LINE",
"240 100 LINE SMOOTH",
"208 100 OFFCURVE",
"188 113 OFFCURVE",
"182 140 CURVE",
"61 140 LINE",
"68 52 OFFCURVE",
"129 0 OFFCURVE",
"240 0 CURVE SMOOTH",
"340 0 LINE SMOOTH",
"440 0 OFFCURVE",
"500 60 OFFCURVE",
"500 140 CURVE SMOOTH",
"500 240 OFFCURVE",
"439 300 OFFCURVE",
"320 300 CURVE SMOOTH",
"240 300 LINE SMOOTH",
"200 300 OFFCURVE",
"180 320 OFFCURVE",
"180 360 CURVE SMOOTH"
);
}
);
width = 560;
},
{
anchors = (
{
name = bottom;
position = "{280, 0}";
},
{
name = top;
position = "{280, 500}";
}
);
layerId = "FCEAB5BF-AFE7-45BC-83DB-D0DE89866BD6";
paths = (
{
closed = 1;
nodes = (
"120 450 LINE {name = hr00;}",
"320 450 LINE SMOOTH",
"400 450 OFFCURVE",
"432 414 OFFCURVE",
"439 360 CURVE",
"499 360 LINE",
"491 448 OFFCURVE",
"431 500 OFFCURVE",
"320 500 CURVE SMOOTH",
"220 500 LINE SMOOTH",
"120 500 OFFCURVE",
"60 440 OFFCURVE",
"60 360 CURVE SMOOTH",
"60 260 OFFCURVE",
"121 225 OFFCURVE",
"240 225 CURVE SMOOTH",
"320 225 LINE SMOOTH",
"400 225 OFFCURVE",
"440 188 OFFCURVE",
"440 115 CURVE SMOOTH",
"440 50 LINE",
"240 50 LINE SMOOTH",
"160 50 OFFCURVE",
"127 87 OFFCURVE",
"121 140 CURVE",
"61 140 LINE",
"68 52 OFFCURVE",
"129 0 OFFCURVE",
"240 0 CURVE SMOOTH",
"340 0 LINE SMOOTH",
"440 0 OFFCURVE",
"500 60 OFFCURVE",
"500 140 CURVE SMOOTH",
"500 240 OFFCURVE",
"439 275 OFFCURVE",
"320 275 CURVE SMOOTH",
"240 275 LINE SMOOTH",
"160 275 OFFCURVE",
"120 312 OFFCURVE",
"120 385 CURVE SMOOTH"
);
}
);
width = 560;
}
);
unicode = 0073;
},
{
glyphname = germandbls;
lastChange = "2017-03-25 20:16:22 +0000";
layers = (
{
anchors = (
{
name = bottom;
position = "{320, 0}";
},
{
name = top;
position = "{320, 500}";
}
);
layerId = "65DE19D7-C0F2-4D8D-9C1D-34999E633ECA";
paths = (
{
closed = 1;
nodes = (
"190 600 LINE {name = hr00;}",
"360 600 LINE SMOOTH",
"400 600 OFFCURVE",
"420 580 OFFCURVE",
"420 540 CURVE SMOOTH",
"420 500 LINE",
"400 500 LINE SMOOTH",
"300 500 OFFCURVE",
"240 440 OFFCURVE",
"240 360 CURVE SMOOTH",
"240 260 OFFCURVE",
"300 200 OFFCURVE",
"420 200 CURVE SMOOTH",
"460 200 OFFCURVE",
"480 180 OFFCURVE",
"480 140 CURVE SMOOTH",
"480 100 LINE",
"260 100 LINE",
"260 80 LINE",
"314 0 LINE",
"440 0 LINE SMOOTH",
"540 0 OFFCURVE",
"600 60 OFFCURVE",
"600 140 CURVE SMOOTH",
"600 240 OFFCURVE",
"540 300 OFFCURVE",
"420 300 CURVE SMOOTH",
"380 300 OFFCURVE",
"360 320 OFFCURVE",
"360 360 CURVE SMOOTH",
"360 400 LINE",
"540 400 LINE",
"540 540 LINE SMOOTH",
"540 640 OFFCURVE",
"480 700 OFFCURVE",
"360 700 CURVE SMOOTH",
"230 700 LINE SMOOTH",
"130 700 OFFCURVE",
"70 640 OFFCURVE",
"70 560 CURVE SMOOTH",
"70 0 LINE",
"190 0 LINE"
);
}
);
width = 640;
},
{
anchors = (
{
name = bottom;
position = "{320, 0}";
},
{
name = top;
position = "{320, 500}";
}
);
layerId = "FCEAB5BF-AFE7-45BC-83DB-D0DE89866BD6";
paths = (
{
closed = 1;
nodes = (
"130 650 LINE {name = hr00;}",
"360 650 LINE SMOOTH",
"440 650 OFFCURVE",
"480 613 OFFCURVE",
"480 540 CURVE SMOOTH",
"480 500 LINE",
"400 500 LINE SMOOTH",
"300 500 OFFCURVE",
"240 440 OFFCURVE",
"240 360 CURVE SMOOTH",
"240 260 OFFCURVE",
"300 225 OFFCURVE",
"420 225 CURVE SMOOTH",
"500 225 OFFCURVE",
"540 188 OFFCURVE",
"540 115 CURVE SMOOTH",
"540 50 LINE",
"294 50 LINE",
"294 30 LINE",
"314 0 LINE",
"440 0 LINE SMOOTH",
"540 0 OFFCURVE",
"600 60 OFFCURVE",
"600 140 CURVE SMOOTH",
"600 240 OFFCURVE",
"540 275 OFFCURVE",
"420 275 CURVE SMOOTH",
"340 275 OFFCURVE",
"300 312 OFFCURVE",
"300 385 CURVE SMOOTH",
"300 450 LINE",
"540 450 LINE",
"540 540 LINE SMOOTH",
"540 640 OFFCURVE",
"480 700 OFFCURVE",
"360 700 CURVE SMOOTH",
"230 700 LINE SMOOTH",
"130 700 OFFCURVE",
"70 640 OFFCURVE",
"70 560 CURVE SMOOTH",
"70 0 LINE",
"130 0 LINE"
);
}
);
width = 640;
}
);
leftMetricsKey = h;
unicode = 00DF;
},
{
glyphname = longs;
lastChange = "2017-03-25 20:16:24 +0000";
layers = (
{
anchors = (
{
name = bottom;
position = "{140, 0}";
},
{
name = top;
position = "{140, 500}";
}
);
layerId = "65DE19D7-C0F2-4D8D-9C1D-34999E633ECA";
paths = (
{
closed = 1;
nodes = (
"190 600 LINE {name = hr00;}",
"290 600 LINE",
"290 700 LINE",
"230 700 LINE SMOOTH",
"130 700 OFFCURVE",
"70 640 OFFCURVE",
"70 560 CURVE SMOOTH",
"70 0 LINE",
"190 0 LINE"
);
}
);
width = 280;
},
{
anchors = (
{
name = bottom;
position = "{140, 0}";
},
{
name = top;
position = "{140, 500}";
}
);
layerId = "FCEAB5BF-AFE7-45BC-83DB-D0DE89866BD6";
paths = (
{
closed = 1;
nodes = (
"130 650 LINE {name = hr00;}",
"290 650 LINE",
"290 700 LINE",
"230 700 LINE SMOOTH",
"130 700 OFFCURVE",
"70 640 OFFCURVE",
"70 560 CURVE SMOOTH",
"70 0 LINE",
"130 0 LINE"
);
}
);
width = 280;
}
);
leftKerningGroup = i;
leftMetricsKey = h;
unicode = 017F;
},
{
glyphname = t;
lastChange = "2017-03-25 20:16:25 +0000";
layers = (
{
anchors = (
{
name = bottom;
position = "{185, 0}";
},
{
name = center;
position = "{185, 250}";
},
{
name = top;
position = "{185, 500}";
},
{
name = topright;
position = "{350, 500}";
}
);
layerId = "65DE19D7-C0F2-4D8D-9C1D-34999E633ECA";
paths = (
{
closed = 1;
nodes = (
"105 580 LINE {name = hr00;}",
"105 500 LINE",
"20 500 LINE",
"20 400 LINE",
"100 400 LINE",
"100 157 LINE SMOOTH",
"100 57 OFFCURVE",
"161 -3 OFFCURVE",
"280 -3 CURVE SMOOTH",
"320 -3 LINE",
"320 97 LINE",
"280 97 LINE SMOOTH",
"241 97 OFFCURVE",
"220 117 OFFCURVE",
"220 157 CURVE SMOOTH",
"220 400 LINE",
"320 400 LINE",
"320 500 LINE",
"220 500 LINE",
"220 660 LINE",
"159 660 LINE"
);
}
);
width = 370;
},
{
anchors = (
{
name = bottom;
position = "{185, 0}";
},
{
name = center;
position = "{185, 250}";
},
{
name = top;
position = "{185, 500}";
},
{
name = topright;
position = "{350, 500}";
}
);
guideLines = (
{
angle = 56.43;
position = "{-309, 0}";
}
);
layerId = "FCEAB5BF-AFE7-45BC-83DB-D0DE89866BD6";
paths = (
{
closed = 1;
nodes = (
"105 624 LINE {name = hr00;}",
"105 500 LINE",
"20 500 LINE",
"20 450 LINE",
"100 450 LINE",
"100 157 LINE SMOOTH",
"100 57 OFFCURVE",
"161 -3 OFFCURVE",
"280 -3 CURVE SMOOTH",
"320 -3 LINE",
"320 47 LINE",
"280 47 LINE SMOOTH",
"200 47 OFFCURVE",
"160 84 OFFCURVE",
"160 157 CURVE SMOOTH",
"160 450 LINE",
"320 450 LINE",
"320 500 LINE",
"160 500 LINE",
"160 660 LINE",
"129 660 LINE"
);
}
);
width = 370;
}
);
unicode = 0074;
},
{
glyphname = u;
lastChange = "2017-03-25 20:16:27 +0000";
layers = (
{
anchors = (
{
name = bottom;
position = "{285, 0}";
},
{
name = ogonek;
position = "{509, 10}";
},
{
name = top;
position = "{285, 500}";
},
{
name = topright;
position = "{545, 500}";
}
);
layerId = "65DE19D7-C0F2-4D8D-9C1D-34999E633ECA";
paths = (
{
closed = 1;
nodes = (
"385 100 LINE {name = hr00;}",
"245 100 LINE SMOOTH",
"206 100 OFFCURVE",
"185 120 OFFCURVE",
"185 160 CURVE SMOOTH",
"185 500 LINE",
"65 500 LINE",
"65 160 LINE SMOOTH",
"65 60 OFFCURVE",
"126 0 OFFCURVE",
"245 0 CURVE SMOOTH",
"332 0 LINE",
"385 80 LINE",
"385 0 LINE",
"505 0 LINE",
"505 500 LINE",
"385 500 LINE"
);
}
);
width = 575;
},
{
anchors = (
{
name = bottom;
position = "{280, 0}";
},
{
name = ogonek;
position = "{504, 10}";
},
{
name = top;
position = "{280, 500}";
},
{
name = topright;
position = "{540, 500}";
}
);
guideLines = (
{
angle = 56.43;
position = "{420, 0}";
}
);
layerId = "FCEAB5BF-AFE7-45BC-83DB-D0DE89866BD6";
paths = (
{
closed = 1;
nodes = (
"440 50 LINE {name = hr00;}",
"240 50 LINE SMOOTH",
"160 50 OFFCURVE",
"120 87 OFFCURVE",
"120 160 CURVE SMOOTH",
"120 500 LINE",
"60 500 LINE",
"60 160 LINE SMOOTH",
"60 60 OFFCURVE",
"121 0 OFFCURVE",
"240 0 CURVE SMOOTH",
"420 0 LINE",
"440 30 LINE",
"440 0 LINE",
"500 0 LINE",
"500 500 LINE",
"440 500 LINE"
);
}
);
width = 560;
}
);
leftMetricsKey = "=|n";
rightMetricsKey = "=|n";
unicode = 0075;
},
{
glyphname = v;
lastChange = "2017-03-25 20:16:28 +0000";
layers = (
{
anchors = (
{
name = bottom;
position = "{273, 0}";
},
{
name = top;
position = "{273, 500}";
}
);
guideLines = (
{
position = "{0, 311}";
},
{
position = "{0, 51}";
},
{
position = "{0, 100}";
}
);
layerId = "65DE19D7-C0F2-4D8D-9C1D-34999E633ECA";
paths = (
{
closed = 1;
nodes = (
"148 100 LINE SMOOTH {name = hr00;}",
"168 39 OFFCURVE",
"191 -5 OFFCURVE",
"253 -5 CURVE SMOOTH",
"287 -5 LINE",
"287 51 LINE",
"138 495 LINE",
"15 495 LINE"
);
},
{
closed = 1;
nodes = (
"531 495 LINE",
"408 495 LINE",
"259 51 LINE",
"259 -5 LINE",
"293 -5 LINE SMOOTH",
"352 -5 OFFCURVE",
"378 39 OFFCURVE",
"398 100 CURVE SMOOTH"
);
},
{
closed = 1;
nodes = (
"229 64 LINE",
"328 64 LINE",
"328 100 LINE",
"229 100 LINE"
);
}
);
width = 546;
},
{
anchors = (
{
name = bottom;
position = "{240, 0}";
},
{
name = top;
position = "{240, 500}";
}
);
layerId = "FCEAB5BF-AFE7-45BC-83DB-D0DE89866BD6";
paths = (
{
closed = 1;
nodes = (
"196 0 LINE {name = hr00;}",
"284 0 LINE",
"472 500 LINE",
"346 500 LINE",
"240 218 LINE",
"134 500 LINE",
"8 500 LINE"
);
}
);
width = 480;
}
);
unicode = 0076;
userData = {
com.typemytype.robofont.guides = (
{
angle = 0;
isGlobal = 0;
magnetic = 5;
x = 0;
y = 311;
},
{
angle = 0;
isGlobal = 0;
magnetic = 5;
x = 0;
y = 51;
},
{
angle = 0;
isGlobal = 0;
magnetic = 5;
x = 0;
y = 100;
}
);
};
},
{
glyphname = w;
lastChange = "2017-03-25 20:16:29 +0000";
layers = (
{
anchors = (
{
name = bottom;
position = "{377, 0}";
},
{
name = top;
position = "{377, 500}";
}
);
guideLines = (
{
position = "{0, 300}";
}
);
layerId = "65DE19D7-C0F2-4D8D-9C1D-34999E633ECA";
paths = (
{
closed = 1;
nodes = (
"108 0 LINE {name = hr00;}",
"217 0 LINE",
"159 500 LINE",
"50 500 LINE"
);
},
{
closed = 1;
nodes = (
"178 0 LINE",
"298 0 LINE",
"298 80 LINE",
"178 80 LINE"
);
},
{
closed = 1;
nodes = (
"510 0 LINE",
"630 0 LINE",
"630 80 LINE",
"510 80 LINE"
);
},
{
closed = 1;
nodes = (
"318 415 LINE",
"438 415 LINE",
"438 495 LINE",
"318 495 LINE"
);
},
{
closed = 1;
nodes = (
"374 495 LINE",
"280 495 LINE",
"212 0 LINE",
"321 0 LINE"
);
},
{
closed = 1;
nodes = (
"432 0 LINE",
"541 0 LINE",
"473 495 LINE",
"379 495 LINE"
);
},
{
closed = 1;
nodes = (
"703 500 LINE",
"594 500 LINE",
"536 0 LINE",
"645 0 LINE"
);
}
);
width = 753;
},
{
anchors = (
{
name = bottom;
position = "{357, 0}";
},
{
name = top;
position = "{357, 500}";
}
);
guideLines = (
{
position = "{0, 300}";
}
);
layerId = "FCEAB5BF-AFE7-45BC-83DB-D0DE89866BD6";
paths = (
{
closed = 1;
nodes = (
"13 500 LINE {name = hr00;}",
"167 0 LINE",
"262 0 LINE",
"326 200 LINE SMOOTH",
"336 232 OFFCURVE",
"347 263 OFFCURVE",
"357 315 CURVE",
"367 263 OFFCURVE",
"377 232 OFFCURVE",
"387 200 CURVE SMOOTH",
"452 0 LINE",
"547 0 LINE",
"701 500 LINE",
"582 500 LINE",
"523 300 LINE SMOOTH",
"514 271 OFFCURVE",
"506 242 OFFCURVE",
"497 193 CURVE",
"487 242 OFFCURVE",
"478 271 OFFCURVE",
"468 300 CURVE SMOOTH",
"402 500 LINE",
"312 500 LINE",
"246 301 LINE SMOOTH",
"236 272 OFFCURVE",
"227 242 OFFCURVE",
"217 193 CURVE",
"208 242 OFFCURVE",
"200 271 OFFCURVE",
"191 300 CURVE SMOOTH",
"132 500 LINE"
);
}
);
width = 714;
}
);
unicode = 0077;
userData = {
com.typemytype.robofont.guides = (
{
angle = 0;
isGlobal = 0;
magnetic = 5;
x = 0;
y = 300;
}
);
};
},
{
glyphname = x;
lastChange = "2017-03-25 20:16:30 +0000";
layers = (
{
anchors = (
{
name = bottom;
position = "{250, 0}";
},
{
name = top;
position = "{250, 500}";
}
);
layerId = "65DE19D7-C0F2-4D8D-9C1D-34999E633ECA";
paths = (
{
closed = 1;
nodes = (
"140 200 LINE",
"360 200 LINE",
"360 310 LINE",
"140 310 LINE"
);
},
{
closed = 1;
nodes = (
"140 255 LINE",
"265 255 LINE",
"144 500 LINE",
"10 500 LINE"
);
},
{
closed = 1;
nodes = (
"490 500 LINE",
"356 500 LINE",
"235 255 LINE",
"360 255 LINE"
);
},
{
closed = 1;
nodes = (
"361 0 LINE",
"495 0 LINE",
"360 255 LINE",
"235 255 LINE"
);
},
{
closed = 1;
nodes = (
"265 255 LINE",
"140 255 LINE",
"5 0 LINE",
"139 0 LINE"
);
}
);
width = 500;
},
{
anchors = (
{
name = bottom;
position = "{251, 0}";
},
{
name = top;
position = "{251, 500}";
}
);
layerId = "FCEAB5BF-AFE7-45BC-83DB-D0DE89866BD6";
paths = (
{
closed = 1;
nodes = (
"50 500 LINE {name = hr00;}",
"215 262 LINE",
"35 0 LINE",
"99 0 LINE",
"247 216 LINE",
"397 0 LINE",
"466 0 LINE",
"289 254 LINE",
"457 500 LINE",
"394 500 LINE",
"258 299 LINE",
"119 500 LINE"
);
}
);
width = 502;
}
);
unicode = 0078;
},
{
glyphname = y;
lastChange = "2017-03-25 20:16:31 +0000";
layers = (
{
anchors = (
{
name = bottom;
position = "{285, 0}";
},
{
name = top;
position = "{285, 500}";
}
);
layerId = "65DE19D7-C0F2-4D8D-9C1D-34999E633ECA";
paths = (
{
closed = 1;
nodes = (
"385 120 LINE {name = hr00;}",
"245 120 LINE SMOOTH",
"206 120 OFFCURVE",
"185 140 OFFCURVE",
"185 180 CURVE SMOOTH",
"185 500 LINE",
"65 500 LINE",
"65 180 LINE SMOOTH",
"65 80 OFFCURVE",
"126 20 OFFCURVE",
"245 20 CURVE SMOOTH",
"332 20 LINE",
"385 100 LINE",
"385 -100 LINE",
"145 -100 LINE",
"145 -120 LINE",
"199 -200 LINE",
"345 -200 LINE SMOOTH",
"445 -200 OFFCURVE",
"505 -140 OFFCURVE",
"505 -60 CURVE SMOOTH",
"505 500 LINE",
"385 500 LINE"
);
}
);
width = 575;
},
{
anchors = (
{
name = bottom;
position = "{280, 0}";
},
{
name = top;
position = "{280, 500}";
}
);
guideLines = (
{
angle = 56.43;
position = "{407, 0}";
}
);
layerId = "FCEAB5BF-AFE7-45BC-83DB-D0DE89866BD6";
paths = (
{
closed = 1;
nodes = (
"440 70 LINE {name = hr00;}",
"240 70 LINE SMOOTH",
"160 70 OFFCURVE",
"120 107 OFFCURVE",
"120 180 CURVE SMOOTH",
"120 500 LINE",
"60 500 LINE",
"60 180 LINE SMOOTH",
"60 80 OFFCURVE",
"121 20 OFFCURVE",
"240 20 CURVE SMOOTH",
"420 20 LINE",
"440 50 LINE",
"440 -150 LINE",
"140 -150 LINE",
"140 -170 LINE",
"160 -200 LINE",
"340 -200 LINE SMOOTH",
"440 -200 OFFCURVE",
"500 -140 OFFCURVE",
"500 -60 CURVE SMOOTH",
"500 500 LINE",
"440 500 LINE"
);
}
);
width = 560;
}
);
leftMetricsKey = "=|n";
rightMetricsKey = "=|n";
unicode = 0079;
},
{
glyphname = z;
lastChange = "2017-03-25 20:16:32 +0000";
layers = (
{
anchors = (
{
name = bottom;
position = "{260, 0}";
},
{
name = top;
position = "{260, 500}";
}
);
guideLines = (
{
angle = 90;
position = "{206, 0}";
},
{
angle = 90;
position = "{314, 0}";
}
);
layerId = "65DE19D7-C0F2-4D8D-9C1D-34999E633ECA";
paths = (
{
closed = 1;
nodes = (
"60 500 LINE {name = hr00;}",
"60 400 LINE",
"313 400 LINE",
"50 90 LINE",
"50 0 LINE",
"470 0 LINE",
"470 100 LINE",
"206 100 LINE",
"470 410 LINE",
"470 500 LINE"
);
}
);
width = 520;
},
{
anchors = (
{
name = bottom;
position = "{260, 0}";
},
{
name = top;
position = "{260, 500}";
}
);
guideLines = (
{
angle = 90;
position = "{206, 0}";
},
{
angle = 90;
position = "{314, 0}";
}
);
layerId = "FCEAB5BF-AFE7-45BC-83DB-D0DE89866BD6";
paths = (
{
closed = 1;
nodes = (
"60 500 LINE {name = hr00;}",
"60 450 LINE",
"394 450 LINE",
"50 40 LINE",
"50 0 LINE",
"470 0 LINE",
"470 50 LINE",
"126 50 LINE",
"470 460 LINE",
"470 500 LINE"
);
}
);
width = 520;
}
);
unicode = 007A;
userData = {
com.typemytype.robofont.guides = (
{
angle = 90;
isGlobal = 0;
magnetic = 5;
x = 206;
y = 0;
},
{
angle = 90;
isGlobal = 0;
magnetic = 5;
x = 314;
y = 0;
}
);
};
},
{
glyphname = g.ss03;
lastChange = "2017-03-25 20:11:42 +0000";
layers = (
{
anchors = (
{
name = bottom;
position = "{263, 0}";
},
{
name = top;
position = "{263, 500}";
}
);
layerId = "65DE19D7-C0F2-4D8D-9C1D-34999E633ECA";
paths = (
{
closed = 1;
nodes = (
"60 319 LINE SMOOTH",
"60 219 OFFCURVE",
"121 159 OFFCURVE",
"240 159 CURVE SMOOTH",
"295 159 LINE SMOOTH",
"395 159 OFFCURVE",
"455 219 OFFCURVE",
"455 299 CURVE SMOOTH",
"455 340 LINE SMOOTH",
"455 440 OFFCURVE",
"394 500 OFFCURVE",
"275 500 CURVE SMOOTH",
"220 500 LINE SMOOTH",
"120 500 OFFCURVE",
"60 440 OFFCURVE",
"60 360 CURVE SMOOTH"
);
},
{
closed = 1;
nodes = (
"275 400 LINE SMOOTH",
"314 400 OFFCURVE",
"335 380 OFFCURVE",
"335 340 CURVE SMOOTH",
"335 259 LINE",
"240 259 LINE SMOOTH",
"201 259 OFFCURVE",
"180 279 OFFCURVE",
"180 319 CURVE SMOOTH",
"180 400 LINE"
);
},
{
closed = 1;
nodes = (
"494 500 LINE",
"432 500 LINE",
"379 420 LINE",
"379 400 LINE",
"494 400 LINE"
);
},
{
closed = 1;
nodes = (
"40 -40 CURVE SMOOTH",
"40 -140 OFFCURVE",
"101 -200 OFFCURVE",
"220 -200 CURVE SMOOTH",
"335 -200 LINE SMOOTH",
"435 -200 OFFCURVE",
"495 -140 OFFCURVE",
"495 -60 CURVE SMOOTH",
"495 40 OFFCURVE",
"434 100 OFFCURVE",
"315 100 CURVE SMOOTH",
"200 100 LINE SMOOTH",
"100 100 OFFCURVE",
"40 40 OFFCURVE"
);
},
{
closed = 1;
nodes = (
"315 0 LINE SMOOTH",
"354 0 OFFCURVE",
"375 -20 OFFCURVE",
"375 -60 CURVE SMOOTH",
"375 -100 LINE",
"220 -100 LINE SMOOTH",
"181 -100 OFFCURVE",
"160 -80 OFFCURVE",
"160 -40 CURVE SMOOTH",
"160 0 LINE"
);
},
{
closed = 1;
nodes = (
"240 59 LINE",
"201 59 OFFCURVE",
"180 79 OFFCURVE",
"180 119 CURVE SMOOTH",
"180 171 LINE",
"249 159 LINE",
"249 259 LINE",
"220 259 LINE SMOOTH",
"120 259 OFFCURVE",
"60 199 OFFCURVE",
"60 119 CURVE SMOOTH",
"60 63 OFFCURVE",
"79 20 OFFCURVE",
"116 -7 CURVE",
"140 9 OFFCURVE",
"187 9 OFFCURVE",
"240 9 CURVE"
);
}
);
width = 525;
},
{
layerId = "FCEAB5BF-AFE7-45BC-83DB-D0DE89866BD6";
width = 600;
}
);
},
{
glyphname = c.ss04;
lastChange = "2017-03-25 20:11:42 +0000";
layers = (
{
anchors = (
{
name = bottom;
position = "{235, 0}";
},
{
name = top;
position = "{235, 500}";
}
);
layerId = "65DE19D7-C0F2-4D8D-9C1D-34999E633ECA";
paths = (
{
closed = 1;
nodes = (
"180 400 LINE",
"420 400 LINE",
"420 500 LINE",
"220 500 LINE SMOOTH",
"120 500 OFFCURVE",
"60 440 OFFCURVE",
"60 360 CURVE SMOOTH",
"60 160 LINE SMOOTH",
"60 60 OFFCURVE",
"121 0 OFFCURVE",
"240 0 CURVE SMOOTH",
"420 0 LINE",
"420 100 LINE",
"240 100 LINE SMOOTH",
"201 100 OFFCURVE",
"180 120 OFFCURVE",
"180 160 CURVE SMOOTH"
);
}
);
width = 470;
},
{
layerId = "FCEAB5BF-AFE7-45BC-83DB-D0DE89866BD6";
width = 600;
}
);
leftMetricsKey = o;
},
{
glyphname = s.ss04;
lastChange = "2017-03-25 20:11:42 +0000";
layers = (
{
anchors = (
{
name = bottom;
position = "{265, 0}";
},
{
name = top;
position = "{265, 500}";
}
);
layerId = "65DE19D7-C0F2-4D8D-9C1D-34999E633ECA";
paths = (
{
closed = 1;
nodes = (
"175 400 LINE",
"435 400 LINE",
"435 500 LINE",
"215 500 LINE SMOOTH",
"115 500 OFFCURVE",
"55 440 OFFCURVE",
"55 360 CURVE SMOOTH",
"55 260 OFFCURVE",
"116 200 OFFCURVE",
"235 200 CURVE SMOOTH",
"295 200 LINE SMOOTH",
"334 200 OFFCURVE",
"355 180 OFFCURVE",
"355 140 CURVE SMOOTH",
"355 100 LINE",
"75 100 LINE",
"75 0 LINE",
"315 0 LINE SMOOTH",
"415 0 OFFCURVE",
"475 60 OFFCURVE",
"475 140 CURVE SMOOTH",
"475 240 OFFCURVE",
"414 300 OFFCURVE",
"295 300 CURVE SMOOTH",
"235 300 LINE SMOOTH",
"195 300 OFFCURVE",
"175 320 OFFCURVE",
"175 360 CURVE SMOOTH"
);
}
);
width = 530;
},
{
layerId = "FCEAB5BF-AFE7-45BC-83DB-D0DE89866BD6";
width = 600;
}
);
},
{
glyphname = x.ss05;
lastChange = "2017-03-25 20:11:42 +0000";
layers = (
{
layerId = "65DE19D7-C0F2-4D8D-9C1D-34999E633ECA";
paths = (
{
closed = 1;
nodes = (
"462 0 LINE",
"462 100 LINE",
"314 100 LINE",
"373 53 LINE",
"259 424 LINE SMOOTH",
"242 479 OFFCURVE",
"205 500 OFFCURVE",
"153 500 CURVE SMOOTH",
"20 500 LINE",
"20 400 LINE",
"194 400 LINE",
"138 424 LINE",
"245 67 LINE SMOOTH",
"259 21 OFFCURVE",
"290 0 OFFCURVE",
"340 0 CURVE SMOOTH"
);
},
{
closed = 1;
nodes = (
"260 400 LINE",
"437 400 LINE",
"490 480 LINE",
"490 500 LINE",
"314 500 LINE",
"260 420 LINE"
);
},
{
closed = 1;
nodes = (
"0 0 LINE",
"187 0 LINE",
"240 80 LINE",
"240 100 LINE",
"54 100 LINE",
"0 20 LINE"
);
}
);
width = 483;
},
{
layerId = "FCEAB5BF-AFE7-45BC-83DB-D0DE89866BD6";
width = 600;
}
);
},
{
glyphname = b.ss20;
lastChange = "2017-03-25 20:11:42 +0000";
layers = (
{
layerId = "65DE19D7-C0F2-4D8D-9C1D-34999E633ECA";
paths = (
{
closed = 1;
nodes = (
"65 159 LINE SMOOTH {name = hr00;}",
"65 46 OFFCURVE",
"139 -5 OFFCURVE",
"283 -5 CURVE SMOOTH",
"340 -5 OFFCURVE",
"379 -1 OFFCURVE",
"410 10 CURVE SMOOTH",
"477 33 OFFCURVE",
"505 85 OFFCURVE",
"505 142 CURVE SMOOTH",
"505 340 LINE SMOOTH",
"505 453 OFFCURVE",
"428 504 OFFCURVE",
"310 504 CURVE SMOOTH",
"286 504 OFFCURVE",
"255 502 OFFCURVE",
"238 500 CURVE",
"183 417 LINE",
"183 400 LINE",
"212 402 OFFCURVE",
"255 404 OFFCURVE",
"301 404 CURVE SMOOTH",
"365 404 OFFCURVE",
"385 380 OFFCURVE",
"385 340 CURVE SMOOTH",
"385 99 LINE",
"352 96 OFFCURVE",
"320 95 OFFCURVE",
"293 95 CURVE SMOOTH",
"253 95 OFFCURVE",
"222 98 OFFCURVE",
"203 113 CURVE SMOOTH",
"190 124 OFFCURVE",
"185 140 OFFCURVE",
"185 160 CURVE SMOOTH",
"185 700 LINE",
"65 700 LINE"
);
}
);
width = 565;
},
{
layerId = "FCEAB5BF-AFE7-45BC-83DB-D0DE89866BD6";
width = 600;
}
);
leftMetricsKey = l;
rightMetricsKey = o;
},
{
glyphname = c.ss20;
lastChange = "2017-03-25 20:11:42 +0000";
layers = (
{
layerId = "65DE19D7-C0F2-4D8D-9C1D-34999E633ECA";
paths = (
{
closed = 1;
nodes = (
"274 -5 CURVE SMOOTH {name = hr00;}",
"315 -5 OFFCURVE",
"354 -1 OFFCURVE",
"385 10 CURVE SMOOTH",
"452 33 OFFCURVE",
"480 85 OFFCURVE",
"480 142 CURVE SMOOTH",
"480 160 LINE",
"360 160 LINE",
"360 99 LINE",
"327 96 OFFCURVE",
"297 95 OFFCURVE",
"278 95 CURVE SMOOTH",
"229 95 OFFCURVE",
"208 102 OFFCURVE",
"195 115 CURVE SMOOTH",
"183 127 OFFCURVE",
"180 144 OFFCURVE",
"180 160 CURVE SMOOTH",
"180 401 LINE",
"213 404 OFFCURVE",
"243 405 OFFCURVE",
"262 405 CURVE SMOOTH",
"294 405 OFFCURVE",
"323 402 OFFCURVE",
"342 387 CURVE SMOOTH",
"355 376 OFFCURVE",
"360 360 OFFCURVE",
"360 339 CURVE",
"480 339 LINE",
"479 390 OFFCURVE",
"466 431 OFFCURVE",
"432 460 CURVE SMOOTH",
"397 490 OFFCURVE",
"345 505 OFFCURVE",
"264 505 CURVE SMOOTH",
"223 505 OFFCURVE",
"186 501 OFFCURVE",
"155 490 CURVE SMOOTH",
"88 467 OFFCURVE",
"60 415 OFFCURVE",
"60 358 CURVE SMOOTH",
"60 160 LINE SMOOTH",
"60 115 OFFCURVE",
"72 77 OFFCURVE",
"99 49 CURVE SMOOTH",
"134 13 OFFCURVE",
"186 -5 OFFCURVE"
);
}
);
width = 540;
},
{
layerId = "FCEAB5BF-AFE7-45BC-83DB-D0DE89866BD6";
width = 600;
}
);
leftMetricsKey = o;
rightMetricsKey = c;
},
{
glyphname = d.ss20;
lastChange = "2017-03-25 20:11:42 +0000";
layers = (
{
layerId = "65DE19D7-C0F2-4D8D-9C1D-34999E633ECA";
paths = (
{
closed = 1;
nodes = (
"500 700 LINE {name = hr00;}",
"380 700 LINE",
"380 0 LINE",
"500 0 LINE"
);
},
{
closed = 1;
nodes = (
"325 503 LINE",
"313 504 OFFCURVE",
"292 505 OFFCURVE",
"274 505 CURVE SMOOTH",
"225 505 OFFCURVE",
"186 501 OFFCURVE",
"155 490 CURVE SMOOTH",
"88 467 OFFCURVE",
"60 415 OFFCURVE",
"60 358 CURVE SMOOTH",
"60 160 LINE SMOOTH",
"60 47 OFFCURVE",
"137 -4 OFFCURVE",
"255 -4 CURVE SMOOTH",
"279 -4 OFFCURVE",
"310 -2 OFFCURVE",
"327 0 CURVE",
"382 83 LINE",
"382 100 LINE",
"353 98 OFFCURVE",
"310 96 OFFCURVE",
"264 96 CURVE SMOOTH",
"200 96 OFFCURVE",
"180 120 OFFCURVE",
"180 160 CURVE SMOOTH",
"180 401 LINE",
"213 404 OFFCURVE",
"245 405 OFFCURVE",
"272 405 CURVE SMOOTH",
"312 405 OFFCURVE",
"343 402 OFFCURVE",
"362 387 CURVE SMOOTH",
"375 376 OFFCURVE",
"380 360 OFFCURVE",
"380 340 CURVE",
"390 404 LINE"
);
}
);
width = 570;
},
{
layerId = "FCEAB5BF-AFE7-45BC-83DB-D0DE89866BD6";
width = 600;
}
);
leftMetricsKey = o;
rightMetricsKey = "=|n";
},
{
glyphname = e.ss20;
lastChange = "2017-03-25 20:11:42 +0000";
layers = (
{
guideLines = (
{
angle = 90;
position = "{274, 0}";
}
);
layerId = "65DE19D7-C0F2-4D8D-9C1D-34999E633ECA";
paths = (
{
closed = 1;
nodes = (
"460 80 LINE {name = hr00;}",
"460 99 LINE",
"396 96 OFFCURVE",
"338 95 OFFCURVE",
"307 95 CURVE SMOOTH",
"235 95 OFFCURVE",
"209 101 OFFCURVE",
"195 115 CURVE SMOOTH",
"183 127 OFFCURVE",
"180 144 OFFCURVE",
"180 160 CURVE SMOOTH",
"180 202 LINE",
"500 202 LINE",
"500 336 LINE SMOOTH",
"500 388 OFFCURVE",
"487 430 OFFCURVE",
"452 460 CURVE SMOOTH",
"417 490 OFFCURVE",
"363 505 OFFCURVE",
"274 505 CURVE SMOOTH",
"225 505 OFFCURVE",
"186 501 OFFCURVE",
"155 490 CURVE SMOOTH",
"88 467 OFFCURVE",
"60 415 OFFCURVE",
"60 358 CURVE SMOOTH",
"60 160 LINE SMOOTH",
"60 115 OFFCURVE",
"72 77 OFFCURVE",
"99 49 CURVE SMOOTH",
"134 13 OFFCURVE",
"188 -5 OFFCURVE",
"284 -5 CURVE SMOOTH",
"322 -5 OFFCURVE",
"369 -3 OFFCURVE",
"407 0 CURVE"
);
},
{
closed = 1;
nodes = (
"180 401 LINE",
"213 404 OFFCURVE",
"245 405 OFFCURVE",
"272 405 CURVE SMOOTH",
"312 405 OFFCURVE",
"343 402 OFFCURVE",
"362 387 CURVE SMOOTH",
"375 376 OFFCURVE",
"380 360 OFFCURVE",
"380 340 CURVE SMOOTH",
"380 298 LINE",
"180 298 LINE"
);
}
);
width = 560;
},
{
layerId = "FCEAB5BF-AFE7-45BC-83DB-D0DE89866BD6";
width = 600;
}
);
leftMetricsKey = o;
rightMetricsKey = e;
},
{
glyphname = f.ss20;
lastChange = "2017-03-25 20:11:42 +0000";
layers = (
{
layerId = "65DE19D7-C0F2-4D8D-9C1D-34999E633ECA";
paths = (
{
closed = 1;
nodes = (
"100 0 LINE {name = hr00;}",
"220 0 LINE",
"220 601 LINE",
"251 605 OFFCURVE",
"285 605 OFFCURVE",
"320 604 CURVE",
"320 703 LINE",
"268 706 OFFCURVE",
"226 701 OFFCURVE",
"195 690 CURVE SMOOTH",
"128 667 OFFCURVE",
"100 615 OFFCURVE",
"100 558 CURVE SMOOTH"
);
},
{
closed = 1;
nodes = (
"20 400 LINE",
"320 400 LINE",
"320 500 LINE",
"20 500 LINE"
);
}
);
width = 350;
},
{
layerId = "FCEAB5BF-AFE7-45BC-83DB-D0DE89866BD6";
width = 600;
}
);
leftMetricsKey = f;
rightMetricsKey = f;
},
{
glyphname = g.ss20;
lastChange = "2017-03-25 20:11:42 +0000";
layers = (
{
guideLines = (
{
position = "{0, -60}";
},
{
position = "{0, -140}";
},
{
angle = 90;
position = "{340, 0}";
},
{
angle = 90;
position = "{440, 0}";
}
);
layerId = "65DE19D7-C0F2-4D8D-9C1D-34999E633ECA";
paths = (
{
closed = 1;
nodes = (
"325 503 LINE {name = hr00;}",
"313 504 OFFCURVE",
"292 505 OFFCURVE",
"274 505 CURVE SMOOTH",
"225 505 OFFCURVE",
"186 501 OFFCURVE",
"155 490 CURVE SMOOTH",
"88 467 OFFCURVE",
"60 415 OFFCURVE",
"60 358 CURVE SMOOTH",
"60 160 LINE SMOOTH",
"60 47 OFFCURVE",
"137 -4 OFFCURVE",
"255 -4 CURVE SMOOTH",
"279 -4 OFFCURVE",
"310 -2 OFFCURVE",
"327 0 CURVE",
"382 83 LINE",
"382 100 LINE",
"353 98 OFFCURVE",
"310 96 OFFCURVE",
"264 96 CURVE SMOOTH",
"200 96 OFFCURVE",
"180 120 OFFCURVE",
"180 160 CURVE SMOOTH",
"180 401 LINE",
"213 404 OFFCURVE",
"245 405 OFFCURVE",
"272 405 CURVE SMOOTH",
"312 405 OFFCURVE",
"343 402 OFFCURVE",
"362 387 CURVE SMOOTH",
"375 376 OFFCURVE",
"380 360 OFFCURVE",
"380 340 CURVE",
"390 404 LINE"
);
},
{
closed = 1;
nodes = (
"380 -101 LINE",
"340 -104 OFFCURVE",
"303 -105 OFFCURVE",
"262 -105 CURVE SMOOTH",
"220 -105 OFFCURVE",
"175 -104 OFFCURVE",
"120 -101 CURVE",
"120 -120 LINE",
"173 -200 LINE",
"208 -203 OFFCURVE",
"255 -205 OFFCURVE",
"295 -205 CURVE SMOOTH",
"376 -205 OFFCURVE",
"429 -189 OFFCURVE",
"462 -156 CURVE SMOOTH",
"487 -131 OFFCURVE",
"500 -99 OFFCURVE",
"500 -60 CURVE SMOOTH",
"500 500 LINE",
"380 500 LINE"
);
}
);
width = 570;
},
{
layerId = "FCEAB5BF-AFE7-45BC-83DB-D0DE89866BD6";
width = 600;
}
);
leftMetricsKey = o;
rightMetricsKey = "=|n";
},
{
glyphname = h.ss20;
lastChange = "2017-03-25 20:11:42 +0000";
layers = (
{
layerId = "65DE19D7-C0F2-4D8D-9C1D-34999E633ECA";
paths = (
{
closed = 1;
nodes = (
"70 0 LINE {name = hr00;}",
"190 0 LINE",
"190 700 LINE",
"70 700 LINE"
);
},
{
closed = 1;
nodes = (
"390 0 LINE",
"510 0 LINE",
"510 340 LINE SMOOTH",
"510 453 OFFCURVE",
"433 504 OFFCURVE",
"315 504 CURVE SMOOTH",
"291 504 OFFCURVE",
"260 502 OFFCURVE",
"243 500 CURVE",
"188 417 LINE",
"188 400 LINE",
"217 402 OFFCURVE",
"260 404 OFFCURVE",
"306 404 CURVE SMOOTH",
"370 404 OFFCURVE",
"390 380 OFFCURVE",
"390 340 CURVE SMOOTH"
);
}
);
width = 575;
},
{
layerId = "FCEAB5BF-AFE7-45BC-83DB-D0DE89866BD6";
width = 600;
}
);
leftMetricsKey = h;
rightMetricsKey = n;
},
{
glyphname = l.ss20;
lastChange = "2017-03-25 20:11:42 +0000";
layers = (
{
layerId = "65DE19D7-C0F2-4D8D-9C1D-34999E633ECA";
paths = (
{
closed = 1;
nodes = (
"65 157 LINE SMOOTH {name = hr00;}",
"65 57 OFFCURVE",
"127 -5 OFFCURVE",
"229 -5 CURVE SMOOTH",
"245 -5 OFFCURVE",
"257 -4 OFFCURVE",
"265 -3 CURVE",
"265 95 LINE",
"251 95 LINE SMOOTH",
"204 95 OFFCURVE",
"185 117 OFFCURVE",
"185 157 CURVE SMOOTH",
"185 700 LINE",
"65 700 LINE"
);
}
);
width = 305;
},
{
layerId = "FCEAB5BF-AFE7-45BC-83DB-D0DE89866BD6";
width = 600;
}
);
leftMetricsKey = l;
rightMetricsKey = l;
},
{
glyphname = m.ss20;
lastChange = "2017-03-25 20:11:42 +0000";
layers = (
{
guideLines = (
{
position = "{0, 402}";
},
{
position = "{0, 424}";
}
);
layerId = "65DE19D7-C0F2-4D8D-9C1D-34999E633ECA";
paths = (
{
closed = 1;
nodes = (
"70 0 LINE {name = hr00;}",
"190 0 LINE",
"190 500 LINE",
"70 500 LINE"
);
},
{
closed = 1;
nodes = (
"345 0 LINE",
"465 0 LINE",
"465 340 LINE SMOOTH",
"465 453 OFFCURVE",
"386 503 OFFCURVE",
"281 503 CURVE SMOOTH",
"267 503 OFFCURVE",
"251 502 OFFCURVE",
"241 500 CURVE",
"185 417 LINE",
"185 402 LINE",
"200 403 OFFCURVE",
"223 404 OFFCURVE",
"246 404 CURVE SMOOTH",
"330 404 OFFCURVE",
"345 380 OFFCURVE",
"345 340 CURVE SMOOTH"
);
},
{
closed = 1;
nodes = (
"620 0 LINE",
"740 0 LINE",
"740 340 LINE SMOOTH",
"740 453 OFFCURVE",
"661 503 OFFCURVE",
"552 503 CURVE SMOOTH",
"534 503 OFFCURVE",
"510 501 OFFCURVE",
"496 498 CURVE",
"441 416 LINE",
"441 398 LINE",
"464 401 OFFCURVE",
"502 403 OFFCURVE",
"528 403 CURVE SMOOTH",
"605 403 OFFCURVE",
"620 380 OFFCURVE",
"620 340 CURVE SMOOTH"
);
}
);
width = 805;
},
{
layerId = "FCEAB5BF-AFE7-45BC-83DB-D0DE89866BD6";
width = 600;
}
);
leftMetricsKey = n;
rightMetricsKey = n;
},
{
glyphname = n.ss20;
lastChange = "2017-03-25 20:11:42 +0000";
layers = (
{
layerId = "65DE19D7-C0F2-4D8D-9C1D-34999E633ECA";
paths = (
{
closed = 1;
nodes = (
"390 0 LINE {name = hr00;}",
"510 0 LINE",
"510 340 LINE SMOOTH",
"510 453 OFFCURVE",
"433 504 OFFCURVE",
"315 504 CURVE SMOOTH",
"291 504 OFFCURVE",
"260 502 OFFCURVE",
"243 500 CURVE",
"188 417 LINE",
"188 400 LINE",
"217 402 OFFCURVE",
"260 404 OFFCURVE",
"306 404 CURVE SMOOTH",
"370 404 OFFCURVE",
"390 380 OFFCURVE",
"390 340 CURVE SMOOTH"
);
},
{
closed = 1;
nodes = (
"70 0 LINE",
"190 0 LINE",
"190 500 LINE",
"70 500 LINE"
);
}
);
width = 575;
},
{
layerId = "FCEAB5BF-AFE7-45BC-83DB-D0DE89866BD6";
width = 600;
}
);
leftMetricsKey = n;
rightMetricsKey = n;
},
{
glyphname = o.ss20;
lastChange = "2017-03-25 20:11:42 +0000";
layers = (
{
anchors = (
{
name = top;
position = "{290, 500}";
}
);
guideLines = (
{
position = "{0, 340}";
},
{
angle = 90;
position = "{290, 0}";
}
);
layerId = "65DE19D7-C0F2-4D8D-9C1D-34999E633ECA";
paths = (
{
closed = 1;
nodes = (
"520 336 LINE SMOOTH {name = hr00;}",
"520 388 OFFCURVE",
"507 430 OFFCURVE",
"472 460 CURVE SMOOTH",
"437 490 OFFCURVE",
"381 505 OFFCURVE",
"284 505 CURVE SMOOTH",
"227 505 OFFCURVE",
"186 501 OFFCURVE",
"155 490 CURVE SMOOTH",
"88 467 OFFCURVE",
"60 415 OFFCURVE",
"60 358 CURVE SMOOTH",
"60 164 LINE SMOOTH",
"60 112 OFFCURVE",
"73 70 OFFCURVE",
"108 40 CURVE SMOOTH",
"143 10 OFFCURVE",
"199 -5 OFFCURVE",
"296 -5 CURVE SMOOTH",
"353 -5 OFFCURVE",
"394 -1 OFFCURVE",
"425 10 CURVE SMOOTH",
"492 33 OFFCURVE",
"520 85 OFFCURVE",
"520 142 CURVE SMOOTH"
);
},
{
closed = 1;
nodes = (
"180 401 LINE",
"213 404 OFFCURVE",
"247 405 OFFCURVE",
"282 405 CURVE SMOOTH",
"330 405 OFFCURVE",
"363 402 OFFCURVE",
"382 387 CURVE SMOOTH",
"395 376 OFFCURVE",
"400 360 OFFCURVE",
"400 340 CURVE SMOOTH",
"400 99 LINE",
"367 96 OFFCURVE",
"333 95 OFFCURVE",
"298 95 CURVE SMOOTH",
"250 95 OFFCURVE",
"217 98 OFFCURVE",
"198 113 CURVE SMOOTH",
"185 124 OFFCURVE",
"180 140 OFFCURVE",
"180 160 CURVE SMOOTH"
);
}
);
width = 580;
},
{
layerId = "FCEAB5BF-AFE7-45BC-83DB-D0DE89866BD6";
width = 600;
}
);
leftMetricsKey = o;
rightMetricsKey = o;
},
{
glyphname = oe.ss20;
lastChange = "2017-03-25 20:11:42 +0000";
layers = (
{
layerId = "65DE19D7-C0F2-4D8D-9C1D-34999E633ECA";
paths = (
{
closed = 1;
nodes = (
"730 80 LINE {name = hr00;}",
"730 99 LINE",
"674 96 OFFCURVE",
"623 95 OFFCURVE",
"592 95 CURVE SMOOTH",
"528 95 OFFCURVE",
"508 103 OFFCURVE",
"495 115 CURVE SMOOTH",
"483 127 OFFCURVE",
"480 144 OFFCURVE",
"480 160 CURVE SMOOTH",
"480 202 LINE",
"770 202 LINE",
"770 336 LINE SMOOTH",
"770 388 OFFCURVE",
"757 430 OFFCURVE",
"722 460 CURVE SMOOTH",
"690 487 OFFCURVE",
"642 505 OFFCURVE",
"559 505 CURVE SMOOTH",
"521 505 OFFCURVE",
"485 501 OFFCURVE",
"455 490 CURVE SMOOTH",
"441 484 OFFCURVE",
"428 478 OFFCURVE",
"417 471 CURVE",
"385 492 OFFCURVE",
"337 505 OFFCURVE",
"264 505 CURVE SMOOTH",
"222 505 OFFCURVE",
"182 499 OFFCURVE",
"155 490 CURVE SMOOTH",
"88 468 OFFCURVE",
"60 415 OFFCURVE",
"60 358 CURVE SMOOTH",
"60 164 LINE SMOOTH",
"60 112 OFFCURVE",
"73 70 OFFCURVE",
"108 40 CURVE SMOOTH",
"142 11 OFFCURVE",
"195 -5 OFFCURVE",
"271 -5 CURVE SMOOTH",
"318 -5 OFFCURVE",
"354 -1 OFFCURVE",
"385 10 CURVE SMOOTH",
"399 15 OFFCURVE",
"411 21 OFFCURVE",
"422 29 CURVE",
"454 7 OFFCURVE",
"497 -5 OFFCURVE",
"569 -5 CURVE SMOOTH",
"603 -5 OFFCURVE",
"643 -3 OFFCURVE",
"677 0 CURVE"
);
},
{
closed = 1;
nodes = (
"180 401 LINE",
"200 403 OFFCURVE",
"235 405 OFFCURVE",
"262 405 CURVE SMOOTH",
"299 405 OFFCURVE",
"326 400 OFFCURVE",
"342 387 CURVE SMOOTH",
"355 376 OFFCURVE",
"360 360 OFFCURVE",
"360 340 CURVE SMOOTH",
"360 99 LINE",
"334 96 OFFCURVE",
"304 95 OFFCURVE",
"278 95 CURVE SMOOTH",
"242 95 OFFCURVE",
"215 99 OFFCURVE",
"198 113 CURVE SMOOTH",
"185 124 OFFCURVE",
"180 140 OFFCURVE",
"180 160 CURVE SMOOTH"
);
},
{
closed = 1;
nodes = (
"480 401 LINE",
"499 404 OFFCURVE",
"527 405 OFFCURVE",
"557 405 CURVE SMOOTH",
"592 405 OFFCURVE",
"617 399 OFFCURVE",
"632 387 CURVE SMOOTH",
"645 376 OFFCURVE",
"650 360 OFFCURVE",
"650 340 CURVE SMOOTH",
"650 298 LINE",
"480 298 LINE"
);
}
);
width = 830;
},
{
layerId = "FCEAB5BF-AFE7-45BC-83DB-D0DE89866BD6";
width = 600;
}
);
leftMetricsKey = o;
rightMetricsKey = e;
},
{
glyphname = p.ss20;
lastChange = "2017-03-25 20:11:42 +0000";
layers = (
{
layerId = "65DE19D7-C0F2-4D8D-9C1D-34999E633ECA";
paths = (
{
closed = 1;
nodes = (
"70 -200 LINE {name = hr00;}",
"190 -200 LINE",
"190 500 LINE",
"70 500 LINE"
);
},
{
closed = 1;
nodes = (
"245 -3 LINE",
"257 -4 OFFCURVE",
"278 -5 OFFCURVE",
"296 -5 CURVE SMOOTH",
"345 -5 OFFCURVE",
"384 -1 OFFCURVE",
"415 10 CURVE SMOOTH",
"482 33 OFFCURVE",
"510 85 OFFCURVE",
"510 142 CURVE SMOOTH",
"510 340 LINE SMOOTH",
"510 453 OFFCURVE",
"433 504 OFFCURVE",
"315 504 CURVE SMOOTH",
"291 504 OFFCURVE",
"260 502 OFFCURVE",
"243 500 CURVE",
"188 417 LINE",
"188 400 LINE",
"217 402 OFFCURVE",
"260 404 OFFCURVE",
"306 404 CURVE SMOOTH",
"370 404 OFFCURVE",
"390 380 OFFCURVE",
"390 340 CURVE SMOOTH",
"390 99 LINE",
"357 96 OFFCURVE",
"325 95 OFFCURVE",
"298 95 CURVE SMOOTH",
"258 95 OFFCURVE",
"227 98 OFFCURVE",
"208 113 CURVE SMOOTH",
"195 124 OFFCURVE",
"190 140 OFFCURVE",
"190 160 CURVE",
"180 96 LINE"
);
}
);
width = 570;
},
{
layerId = "FCEAB5BF-AFE7-45BC-83DB-D0DE89866BD6";
width = 600;
}
);
leftMetricsKey = h;
rightMetricsKey = o;
},
{
glyphname = q.ss20;
lastChange = "2017-03-25 20:11:42 +0000";
layers = (
{
layerId = "65DE19D7-C0F2-4D8D-9C1D-34999E633ECA";
paths = (
{
closed = 1;
nodes = (
"325 502 LINE {name = hr00;}",
"313 503 OFFCURVE",
"292 504 OFFCURVE",
"274 504 CURVE SMOOTH",
"225 504 OFFCURVE",
"186 500 OFFCURVE",
"155 489 CURVE SMOOTH",
"88 466 OFFCURVE",
"60 414 OFFCURVE",
"60 357 CURVE SMOOTH",
"60 159 LINE SMOOTH",
"60 46 OFFCURVE",
"137 -5 OFFCURVE",
"255 -5 CURVE SMOOTH",
"279 -5 OFFCURVE",
"310 -3 OFFCURVE",
"327 -1 CURVE",
"382 82 LINE",
"382 99 LINE",
"353 97 OFFCURVE",
"310 95 OFFCURVE",
"264 95 CURVE SMOOTH",
"200 95 OFFCURVE",
"180 119 OFFCURVE",
"180 159 CURVE SMOOTH",
"180 400 LINE",
"213 403 OFFCURVE",
"245 404 OFFCURVE",
"272 404 CURVE SMOOTH",
"312 404 OFFCURVE",
"343 401 OFFCURVE",
"362 386 CURVE SMOOTH",
"375 375 OFFCURVE",
"380 359 OFFCURVE",
"380 339 CURVE",
"390 403 LINE"
);
},
{
closed = 1;
nodes = (
"380 -200 LINE",
"500 -200 LINE",
"500 500 LINE",
"380 500 LINE"
);
}
);
width = 570;
},
{
layerId = "FCEAB5BF-AFE7-45BC-83DB-D0DE89866BD6";
width = 600;
}
);
leftMetricsKey = o;
rightMetricsKey = "=|n";
},
{
glyphname = s.ss20;
lastChange = "2017-03-25 20:11:42 +0000";
layers = (
{
layerId = "65DE19D7-C0F2-4D8D-9C1D-34999E633ECA";
paths = (
{
closed = 1;
nodes = (
"285 -5 CURVE SMOOTH {name = hr00;}",
"334 -5 OFFCURVE",
"374 -1 OFFCURVE",
"405 10 CURVE SMOOTH",
"472 33 OFFCURVE",
"500 85 OFFCURVE",
"500 142 CURVE SMOOTH",
"500 184 OFFCURVE",
"488 223 OFFCURVE",
"461 251 CURVE SMOOTH",
"426 287 OFFCURVE",
"388 298 OFFCURVE",
"284 301 CURVE SMOOTH",
"233 302 OFFCURVE",
"206 305 OFFCURVE",
"195 316 CURVE SMOOTH",
"183 328 OFFCURVE",
"180 345 OFFCURVE",
"180 361 CURVE SMOOTH",
"180 401 LINE",
"213 404 OFFCURVE",
"245 405 OFFCURVE",
"272 405 CURVE SMOOTH",
"312 405 OFFCURVE",
"343 402 OFFCURVE",
"362 387 CURVE SMOOTH",
"370 380 OFFCURVE",
"375 371 OFFCURVE",
"378 360 CURVE",
"499 360 LINE",
"495 401 OFFCURVE",
"480 436 OFFCURVE",
"452 460 CURVE SMOOTH",
"417 490 OFFCURVE",
"363 505 OFFCURVE",
"274 505 CURVE SMOOTH",
"225 505 OFFCURVE",
"186 501 OFFCURVE",
"155 490 CURVE SMOOTH",
"88 467 OFFCURVE",
"60 415 OFFCURVE",
"60 358 CURVE SMOOTH",
"60 316 OFFCURVE",
"72 277 OFFCURVE",
"99 249 CURVE SMOOTH",
"134 213 OFFCURVE",
"173 202 OFFCURVE",
"276 199 CURVE SMOOTH",
"327 198 OFFCURVE",
"354 195 OFFCURVE",
"365 184 CURVE SMOOTH",
"377 172 OFFCURVE",
"380 155 OFFCURVE",
"380 139 CURVE SMOOTH",
"380 97 LINE",
"350 96 OFFCURVE",
"324 95 OFFCURVE",
"307 95 CURVE SMOOTH",
"235 95 OFFCURVE",
"209 101 OFFCURVE",
"195 115 CURVE SMOOTH",
"188 122 OFFCURVE",
"184 131 OFFCURVE",
"182 140 CURVE",
"61 140 LINE",
"64 104 OFFCURVE",
"76 73 OFFCURVE",
"99 49 CURVE SMOOTH",
"134 13 OFFCURVE",
"189 -5 OFFCURVE"
);
}
);
width = 560;
},
{
layerId = "FCEAB5BF-AFE7-45BC-83DB-D0DE89866BD6";
width = 600;
}
);
leftMetricsKey = s;
rightMetricsKey = s;
},
{
glyphname = t.ss20;
lastChange = "2017-03-25 20:11:42 +0000";
layers = (
{
layerId = "65DE19D7-C0F2-4D8D-9C1D-34999E633ECA";
paths = (
{
closed = 1;
nodes = (
"105 580 LINE {name = hr00;}",
"105 500 LINE",
"20 500 LINE",
"20 400 LINE",
"100 400 LINE",
"100 157 LINE SMOOTH",
"100 57 OFFCURVE",
"163 -5 OFFCURVE",
"276 -5 CURVE SMOOTH",
"289 -5 OFFCURVE",
"303 -5 OFFCURVE",
"320 -3 CURVE",
"320 95 LINE",
"286 95 LINE SMOOTH",
"239 95 OFFCURVE",
"220 117 OFFCURVE",
"220 157 CURVE SMOOTH",
"220 400 LINE",
"320 400 LINE",
"320 500 LINE",
"220 500 LINE",
"220 660 LINE",
"159 660 LINE"
);
}
);
width = 370;
},
{
layerId = "FCEAB5BF-AFE7-45BC-83DB-D0DE89866BD6";
width = 600;
}
);
leftMetricsKey = t;
rightMetricsKey = t;
},
{
glyphname = u.ss20;
lastChange = "2017-03-25 20:11:42 +0000";
layers = (
{
layerId = "65DE19D7-C0F2-4D8D-9C1D-34999E633ECA";
paths = (
{
closed = 1;
nodes = (
"185 500 LINE {name = hr00;}",
"65 500 LINE",
"65 160 LINE SMOOTH",
"65 47 OFFCURVE",
"142 -4 OFFCURVE",
"260 -4 CURVE SMOOTH",
"284 -4 OFFCURVE",
"315 -2 OFFCURVE",
"332 0 CURVE",
"387 83 LINE",
"387 100 LINE",
"358 98 OFFCURVE",
"315 96 OFFCURVE",
"269 96 CURVE SMOOTH",
"205 96 OFFCURVE",
"185 120 OFFCURVE",
"185 160 CURVE"
);
},
{
closed = 1;
nodes = (
"385 0 LINE",
"505 0 LINE",
"505 500 LINE",
"385 500 LINE"
);
}
);
width = 575;
},
{
layerId = "FCEAB5BF-AFE7-45BC-83DB-D0DE89866BD6";
width = 600;
}
);
leftMetricsKey = "=|n";
rightMetricsKey = "=|n";
},
{
glyphname = y.ss20;
lastChange = "2017-03-25 20:11:42 +0000";
layers = (
{
layerId = "65DE19D7-C0F2-4D8D-9C1D-34999E633ECA";
paths = (
{
closed = 1;
nodes = (
"185 500 LINE {name = hr00;}",
"65 500 LINE",
"65 180 LINE SMOOTH",
"65 67 OFFCURVE",
"142 16 OFFCURVE",
"260 16 CURVE SMOOTH",
"284 16 OFFCURVE",
"315 18 OFFCURVE",
"332 20 CURVE",
"387 103 LINE",
"387 120 LINE",
"358 118 OFFCURVE",
"315 116 OFFCURVE",
"269 116 CURVE SMOOTH",
"205 116 OFFCURVE",
"185 140 OFFCURVE",
"185 180 CURVE SMOOTH"
);
},
{
closed = 1;
nodes = (
"385 -101 LINE",
"346 -104 OFFCURVE",
"307 -105 OFFCURVE",
"271 -105 CURVE SMOOTH",
"241 -105 OFFCURVE",
"191 -103 OFFCURVE",
"145 -101 CURVE",
"145 -120 LINE",
"198 -200 LINE",
"233 -203 OFFCURVE",
"276 -205 OFFCURVE",
"310 -205 CURVE SMOOTH",
"382 -205 OFFCURVE",
"434 -189 OFFCURVE",
"467 -156 CURVE SMOOTH",
"492 -131 OFFCURVE",
"505 -99 OFFCURVE",
"505 -60 CURVE SMOOTH",
"505 500 LINE",
"385 500 LINE"
);
}
);
width = 575;
},
{
layerId = "FCEAB5BF-AFE7-45BC-83DB-D0DE89866BD6";
width = 600;
}
);
leftMetricsKey = "=|n";
rightMetricsKey = "=|n";
},
{
color = 11;
glyphname = C_J;
lastChange = "2017-03-25 20:11:42 +0000";
layers = (
{
anchors = (
{
name = bottom_1;
position = "{247, 0}";
},
{
name = bottom_2;
position = "{760, 0}";
},
{
name = caret_1;
position = "{504, 0}";
},
{
name = top_1;
position = "{247, 500}";
},
{
name = top_2;
position = "{760, 500}";
}
);
guideLines = (
{
position = "{-10, 195}";
}
);
layerId = "65DE19D7-C0F2-4D8D-9C1D-34999E633ECA";
paths = (
{
closed = 1;
nodes = (
"594 510 LINE",
"585 636 OFFCURVE",
"500 710 OFFCURVE",
"343 710 CURVE SMOOTH",
"279 710 LINE SMOOTH",
"139 710 OFFCURVE",
"55 626 OFFCURVE",
"55 514 CURVE SMOOTH",
"55 214 LINE SMOOTH",
"55 74 OFFCURVE",
"140 -10 OFFCURVE",
"307 -10 CURVE SMOOTH",
"371 -10 LINE SMOOTH",
"511 -10 OFFCURVE",
"595 74 OFFCURVE",
"595 186 CURVE SMOOTH",
"595 190 LINE",
"473 190 LINE",
"530 92 LINE",
"299 92 LINE SMOOTH",
"217 92 OFFCURVE",
"177 133 OFFCURVE",
"177 214 CURVE SMOOTH",
"177 608 LINE",
"351 608 LINE SMOOTH",
"425 608 OFFCURVE",
"465 575 OFFCURVE",
"472 510 CURVE"
);
},
{
closed = 1;
nodes = (
"473 190 LINE",
"483 66 OFFCURVE",
"566 -10 OFFCURVE",
"724 -10 CURVE SMOOTH",
"728 -10 LINE SMOOTH",
"868 -10 OFFCURVE",
"952 74 OFFCURVE",
"952 186 CURVE SMOOTH",
"952 701 LINE",
"830 701 LINE",
"830 92 LINE",
"716 92 LINE SMOOTH",
"647 92 OFFCURVE",
"604 120 OFFCURVE",
"596 190 CURVE"
);
}
);
width = 1012;
},
{
layerId = "FCEAB5BF-AFE7-45BC-83DB-D0DE89866BD6";
width = 600;
}
);
leftMetricsKey = O;
rightMetricsKey = J;
userData = {
com.typemytype.robofont.guides = (
{
angle = 0;
isGlobal = 0;
magnetic = 5;
x = 0;
y = 195;
}
);
com.typemytype.robofont.mark = (
0.6,
0.704,
1,
1
);
};
},
{
color = 6;
glyphname = fi;
lastChange = "2017-03-25 20:16:34 +0000";
layers = (
{
anchors = (
{
name = caret_1;
position = "{350, 0}";
}
);
components = (
{
name = f;
},
{
name = i;
transform = "{1, 0, 0, 1, 350, 0}";
}
);
layerId = "65DE19D7-C0F2-4D8D-9C1D-34999E633ECA";
width = 610;
},
{
anchors = (
{
name = caret_1;
position = "{315, 0}";
}
);
layerId = "FCEAB5BF-AFE7-45BC-83DB-D0DE89866BD6";
paths = (
{
closed = 1;
nodes = (
"230 650 LINE {name = hr00;}",
"360 650 LINE",
"360 700 LINE",
"330 700 LINE SMOOTH",
"230 700 OFFCURVE",
"170 640 OFFCURVE",
"170 560 CURVE SMOOTH",
"170 500 LINE",
"60 500 LINE",
"60 450 LINE",
"170 450 LINE",
"170 0 LINE",
"230 0 LINE",
"230 450 LINE",
"480 450 LINE",
"480 0 LINE",
"540 0 LINE",
"540 500 LINE",
"230 500 LINE"
);
},
{
closed = 1;
nodes = (
"466 640 CURVE SMOOTH",
"466 616 OFFCURVE",
"486 596 OFFCURVE",
"510 596 CURVE SMOOTH",
"534 596 OFFCURVE",
"554 616 OFFCURVE",
"554 640 CURVE SMOOTH",
"554 664 OFFCURVE",
"534 684 OFFCURVE",
"510 684 CURVE SMOOTH",
"486 684 OFFCURVE",
"466 664 OFFCURVE"
);
}
);
width = 630;
}
);
leftKerningGroup = f;
unicode = FB01;
},
{
color = 11;
glyphname = longs_t;
lastChange = "2017-03-25 20:16:37 +0000";
layers = (
{
anchors = (
{
name = caret_1;
position = "{300, 0}";
}
);
layerId = "65DE19D7-C0F2-4D8D-9C1D-34999E633ECA";
paths = (
{
closed = 1;
nodes = (
"190 600 LINE {name = hr00;}",
"295 600 LINE SMOOTH",
"332 600 OFFCURVE",
"355 582 OFFCURVE",
"355 546 CURVE SMOOTH",
"355 500 LINE",
"270 500 LINE",
"270 400 LINE",
"350 400 LINE",
"350 157 LINE SMOOTH",
"350 57 OFFCURVE",
"411 -3 OFFCURVE",
"530 -3 CURVE SMOOTH",
"570 -3 LINE",
"570 97 LINE",
"530 97 LINE SMOOTH",
"491 97 OFFCURVE",
"470 117 OFFCURVE",
"470 157 CURVE SMOOTH",
"470 400 LINE",
"570 400 LINE",
"570 500 LINE",
"470 500 LINE",
"470 540 LINE SMOOTH",
"470 640 OFFCURVE",
"409 700 OFFCURVE",
"290 700 CURVE SMOOTH",
"230 700 LINE SMOOTH",
"130 700 OFFCURVE",
"70 640 OFFCURVE",
"70 560 CURVE SMOOTH",
"70 0 LINE",
"190 0 LINE"
);
}
);
width = 620;
},
{
anchors = (
{
name = caret_1;
position = "{300, 0}";
}
);
guideLines = (
{
position = "{0, 540}";
},
{
angle = 90;
position = "{349, 0}";
}
);
layerId = "FCEAB5BF-AFE7-45BC-83DB-D0DE89866BD6";
paths = (
{
closed = 1;
nodes = (
"130 650 LINE {name = hr00;}",
"235 650 LINE SMOOTH",
"315 650 OFFCURVE",
"355 613 OFFCURVE",
"355 540 CURVE SMOOTH",
"355 500 LINE",
"270 500 LINE",
"270 450 LINE",
"350 450 LINE",
"350 157 LINE SMOOTH",
"350 57 OFFCURVE",
"411 -3 OFFCURVE",
"530 -3 CURVE SMOOTH",
"570 -3 LINE",
"570 47 LINE",
"530 47 LINE SMOOTH",
"450 47 OFFCURVE",
"410 84 OFFCURVE",
"410 157 CURVE SMOOTH",
"410 450 LINE",
"570 450 LINE",
"570 500 LINE",
"410 500 LINE",
"410 540 LINE SMOOTH",
"410 640 OFFCURVE",
"349 700 OFFCURVE",
"231 700 CURVE SMOOTH",
"229 700 LINE SMOOTH",
"130 700 OFFCURVE",
"70 640 OFFCURVE",
"70 560 CURVE SMOOTH",
"70 0 LINE",
"130 0 LINE"
);
}
);
width = 600;
}
);
leftKerningGroup = i;
leftMetricsKey = h;
rightMetricsKey = t;
userData = {
com.typemytype.robofont.mark = (
0.6,
0.704,
1,
1
);
};
},
{
color = 11;
glyphname = longs_longs;
lastChange = "2017-03-25 20:16:38 +0000";
layers = (
{
anchors = (
{
name = bottom_1;
position = "{133, 0}";
},
{
name = bottom_2;
position = "{398, 0}";
},
{
name = caret_1;
position = "{265, 0}";
},
{
name = top_1;
position = "{133, 500}";
},
{
name = top_2;
position = "{398, 500}";
}
);
layerId = "65DE19D7-C0F2-4D8D-9C1D-34999E633ECA";
paths = (
{
closed = 1;
nodes = (
"190 580 LINE {name = hr00;}",
"321 580 LINE",
"320 573 OFFCURVE",
"320 567 OFFCURVE",
"320 560 CURVE SMOOTH",
"320 0 LINE",
"440 0 LINE",
"440 600 LINE",
"540 600 LINE",
"540 700 LINE",
"480 700 LINE SMOOTH",
"429 700 OFFCURVE",
"389 685 OFFCURVE",
"362 659 CURVE",
"335 673 OFFCURVE",
"301 680 OFFCURVE",
"260 680 CURVE SMOOTH",
"230 680 LINE SMOOTH",
"130 680 OFFCURVE",
"70 620 OFFCURVE",
"70 540 CURVE SMOOTH",
"70 0 LINE",
"190 0 LINE"
);
}
);
width = 530;
},
{
anchors = (
{
name = bottom_1;
position = "{133, 0}";
},
{
name = bottom_2;
position = "{398, 0}";
},
{
name = caret_1;
position = "{265, 0}";
},
{
name = top_1;
position = "{133, 500}";
},
{
name = top_2;
position = "{398, 500}";
}
);
guideLines = (
{
position = "{0, 620}";
},
{
angle = 90;
position = "{330, 0}";
}
);
layerId = "FCEAB5BF-AFE7-45BC-83DB-D0DE89866BD6";
paths = (
{
closed = 1;
nodes = (
"130 630 LINE {name = hr00;}",
"341 630 LINE",
"390 540 LINE",
"390 620 OFFCURVE",
"330 680 OFFCURVE",
"230 680 CURVE SMOOTH",
"130 680 OFFCURVE",
"70 620 OFFCURVE",
"70 540 CURVE SMOOTH",
"70 0 LINE",
"130 0 LINE"
);
},
{
closed = 1;
nodes = (
"320 560 CURVE",
"320 0 LINE",
"380 0 LINE",
"380 650 LINE",
"540 650 LINE",
"540 700 LINE",
"480 700 LINE SMOOTH",
"380 700 OFFCURVE",
"320 640 OFFCURVE"
);
}
);
width = 530;
}
);
leftKerningGroup = i;
leftMetricsKey = h;
rightMetricsKey = longs;
userData = {
com.typemytype.robofont.mark = (
0.6,
0.704,
1,
1
);
};
},
{
color = 6;
glyphname = mu;
lastChange = "2017-03-25 20:11:35 +0000";
layers = (
{
components = (
{
name = micro;
}
);
layerId = "65DE19D7-C0F2-4D8D-9C1D-34999E633ECA";
width = 570;
},
{
guideLines = (
{
angle = 56.43;
position = "{420, 0}";
}
);
layerId = "FCEAB5BF-AFE7-45BC-83DB-D0DE89866BD6";
paths = (
{
closed = 1;
nodes = (
"60 -200 LINE {name = hr00;}",
"120 -200 LINE",
"120 31 LINE",
"149 11 OFFCURVE",
"189 0 OFFCURVE",
"240 0 CURVE SMOOTH",
"420 0 LINE",
"440 30 LINE",
"440 0 LINE",
"500 0 LINE",
"500 500 LINE",
"440 500 LINE",
"440 50 LINE",
"240 50 LINE SMOOTH",
"160 50 OFFCURVE",
"120 87 OFFCURVE",
"120 160 CURVE SMOOTH",
"120 500 LINE",
"60 500 LINE"
);
}
);
width = 560;
}
);
unicode = 03BC;
userData = {
com.typemytype.robofont.mark = (
0.6,
0.986,
1,
1
);
};
},
{
color = 4;
glyphname = pi;
lastChange = "2017-03-25 20:11:42 +0000";
layers = (
{
layerId = "65DE19D7-C0F2-4D8D-9C1D-34999E633ECA";
paths = (
{
closed = 1;
nodes = (
"0 500 LINE {name = hr00;}",
"0 400 LINE",
"100 400 LINE",
"100 0 LINE",
"220 0 LINE",
"220 400 LINE",
"380 400 LINE",
"380 157 LINE SMOOTH",
"380 57 OFFCURVE",
"441 -3 OFFCURVE",
"560 -3 CURVE SMOOTH",
"580 -3 LINE",
"580 97 LINE",
"560 97 LINE SMOOTH",
"521 97 OFFCURVE",
"500 117 OFFCURVE",
"500 157 CURVE SMOOTH",
"500 400 LINE",
"610 400 LINE",
"610 500 LINE"
);
}
);
width = 650;
},
{
layerId = "FCEAB5BF-AFE7-45BC-83DB-D0DE89866BD6";
width = 600;
}
);
unicode = 03C0;
userData = {
com.typemytype.robofont.mark = (
0.656,
1,
0.6,
1
);
};
},
{
color = 9;
glyphname = "hamza-ar";
lastChange = "2019-05-17 23:32:30 +0000";
layers = (
{
background = {
paths = (
{
closed = 1;
nodes = (
"351 69 LINE",
"255 69 LINE SMOOTH",
"237 69 OFFCURVE",
"224 87 QCURVE SMOOTH",
"212 104 OFFCURVE",
"212 123 QCURVE SMOOTH",
"212 145 OFFCURVE",
"233 145 QCURVE SMOOTH",
"351 145 LINE",
"351 215 LINE",
"192 215 LINE SMOOTH",
"159 215 OFFCURVE",
"116 169 OFFCURVE",
"116 136 QCURVE SMOOTH",
"116 89 OFFCURVE",
"159 69 QCURVE",
"98 69 LINE",
"98 -1 LINE",
"351 -1 LINE"
);
}
);
};
layerId = "65DE19D7-C0F2-4D8D-9C1D-34999E633ECA";
paths = (
{
closed = 1;
nodes = (
"175 191 LINE",
"474 191 LINE",
"474 266 LINE",
"175 266 LINE"
);
},
{
closed = 1;
nodes = (
"236 250 LINE",
"274 250 LINE",
"274 382 LINE",
"236 382 LINE"
);
},
{
closed = 1;
nodes = (
"229 359 LINE",
"454 359 LINE",
"454 437 LINE",
"229 437 LINE"
);
}
);
width = 600;
},
{
layerId = "FCEAB5BF-AFE7-45BC-83DB-D0DE89866BD6";
width = 600;
}
);
unicode = 0621;
},
{
color = 9;
glyphname = "alef-ar";
lastChange = "2019-05-17 23:32:30 +0000";
layers = (
{
anchors = (
{
name = bottom;
position = "{180, 0}";
},
{
name = top;
position = "{180, 700}";
}
);
background = {
paths = (
{
closed = 1;
nodes = (
"250 666 LINE",
"217 643 OFFCURVE",
"183 620 QCURVE",
"150 591 OFFCURVE",
"150 552 QCURVE SMOOTH",
"150 0 LINE",
"250 0 LINE"
);
}
);
};
layerId = "65DE19D7-C0F2-4D8D-9C1D-34999E633ECA";
paths = (
{
closed = 1;
nodes = (
"120 0 LINE",
"240 0 LINE",
"240 700 LINE",
"120 700 LINE"
);
}
);
width = 360;
},
{
layerId = "FCEAB5BF-AFE7-45BC-83DB-D0DE89866BD6";
width = 600;
}
);
unicode = 0627;
},
{
color = 9;
glyphname = "alef-ar.fina";
lastChange = "2019-05-17 23:32:30 +0000";
layers = (
{
anchors = (
{
name = bottom;
position = "{180, 0}";
},
{
name = top;
position = "{180, 700}";
}
);
background = {
paths = (
{
closed = 1;
nodes = (
"370 117 LINE",
"249 117 LINE",
"249 557 LINE SMOOTH",
"249 596 OFFCURVE",
"216 623 QCURVE",
"183 645 OFFCURVE",
"149 666 QCURVE",
"149 0 LINE",
"370 0 LINE"
);
}
);
};
layerId = "65DE19D7-C0F2-4D8D-9C1D-34999E633ECA";
paths = (
{
closed = 1;
nodes = (
"365 100 LINE",
"240 100 LINE",
"240 700 LINE",
"120 700 LINE",
"120 140 LINE SMOOTH",
"120 60 OFFCURVE",
"180 0 OFFCURVE",
"280 0 CURVE SMOOTH",
"365 0 LINE"
);
}
);
width = 360;
},
{
layerId = "FCEAB5BF-AFE7-45BC-83DB-D0DE89866BD6";
width = 600;
}
);
unicode = FE8E;
},
{
color = 2;
glyphname = "alef-ar.short";
lastChange = "2019-05-17 23:48:08 +0000";
layers = (
{
anchors = (
{
name = bottom;
position = "{180, 0}";
},
{
name = top;
position = "{180, 600}";
}
);
layerId = "65DE19D7-C0F2-4D8D-9C1D-34999E633ECA";
paths = (
{
closed = 1;
nodes = (
"120 0 LINE",
"240 0 LINE",
"240 600 LINE",
"120 600 LINE"
);
}
);
width = 360;
},
{
layerId = "FCEAB5BF-AFE7-45BC-83DB-D0DE89866BD6";
width = 600;
}
);
},
{
color = 2;
glyphname = "alef-ar.fina.short";
lastChange = "2019-05-17 23:48:22 +0000";
layers = (
{
anchors = (
{
name = bottom;
position = "{180, 0}";
},
{
name = top;
position = "{180, 600}";
}
);
layerId = "65DE19D7-C0F2-4D8D-9C1D-34999E633ECA";
paths = (
{
closed = 1;
nodes = (
"365 100 LINE",
"240 100 LINE",
"240 600 LINE",
"120 600 LINE",
"120 140 LINE SMOOTH",
"120 60 OFFCURVE",
"180 0 OFFCURVE",
"280 0 CURVE SMOOTH",
"365 0 LINE"
);
}
);
width = 360;
},
{
layerId = "FCEAB5BF-AFE7-45BC-83DB-D0DE89866BD6";
width = 600;
}
);
},
{
color = 2;
glyphname = "alefHamzaabove-ar";
lastChange = "2019-05-17 23:48:33 +0000";
layers = (
{
background = {
paths = (
{
closed = 1;
nodes = (
"258 581 LINE",
"202 581 LINE SMOOTH",
"177 581 OFFCURVE",
"177 611 QCURVE SMOOTH",
"177 625 OFFCURVE",
"189 625 QCURVE SMOOTH",
"258 625 LINE",
"258 666 LINE",
"165 666 LINE SMOOTH",
"121 666 OFFCURVE",
"121 620 QCURVE SMOOTH",
"121 593 OFFCURVE",
"146 581 QCURVE",
"110 581 LINE",
"110 539 LINE",
"258 539 LINE"
);
},
{
closed = 1;
nodes = (
"254 489 LINE",
"154 489 LINE",
"154 0 LINE",
"254 0 LINE"
);
}
);
};
components = (
{
name = "alef-ar.short";
},
{
name = "hamzaabove-ar";
transform = "{1, 0, 0, 1, -145, -100}";
}
);
layerId = "65DE19D7-C0F2-4D8D-9C1D-34999E633ECA";
width = 360;
},
{
layerId = "FCEAB5BF-AFE7-45BC-83DB-D0DE89866BD6";
width = 600;
}
);
unicode = 0623;
},
{
color = 2;
glyphname = "alefHamzaabove-ar.fina";
lastChange = "2019-05-17 23:48:31 +0000";
layers = (
{
background = {
paths = (
{
closed = 1;
nodes = (
"258 581 LINE",
"202 581 LINE SMOOTH",
"177 581 OFFCURVE",
"177 611 QCURVE SMOOTH",
"177 625 OFFCURVE",
"189 625 QCURVE SMOOTH",
"258 625 LINE",
"258 666 LINE",
"165 666 LINE SMOOTH",
"121 666 OFFCURVE",
"121 620 QCURVE SMOOTH",
"121 593 OFFCURVE",
"146 581 QCURVE",
"110 581 LINE",
"110 539 LINE",
"258 539 LINE"
);
},
{
closed = 1;
nodes = (
"370 117 LINE",
"249 117 LINE",
"249 489 LINE",
"149 489 LINE",
"149 0 LINE",
"370 0 LINE"
);
}
);
};
components = (
{
name = "alef-ar.fina.short";
},
{
name = "hamzaabove-ar";
transform = "{1, 0, 0, 1, -145, -100}";
}
);
layerId = "65DE19D7-C0F2-4D8D-9C1D-34999E633ECA";
width = 360;
},
{
layerId = "FCEAB5BF-AFE7-45BC-83DB-D0DE89866BD6";
width = 600;
}
);
unicode = FE84;
},
{
color = 2;
glyphname = "alefHamzabelow-ar";
lastChange = "2019-05-17 23:32:30 +0000";
layers = (
{
background = {
paths = (
{
closed = 1;
nodes = (
"300 666 LINE",
"267 643 OFFCURVE",
"233 620 QCURVE",
"200 591 OFFCURVE",
"200 552 QCURVE SMOOTH",
"200 0 LINE",
"300 0 LINE"
);
},
{
closed = 1;
nodes = (
"256 -159 LINE",
"200 -159 LINE SMOOTH",
"175 -159 OFFCURVE",
"175 -129 QCURVE SMOOTH",
"175 -115 OFFCURVE",
"187 -115 QCURVE SMOOTH",
"256 -115 LINE",
"256 -74 LINE",
"163 -74 LINE SMOOTH",
"119 -74 OFFCURVE",
"119 -120 QCURVE SMOOTH",
"119 -147 OFFCURVE",
"144 -159 QCURVE",
"108 -159 LINE",
"108 -201 LINE",
"256 -201 LINE"
);
}
);
};
components = (
{
name = "alef-ar";
},
{
name = "hamzabelow-ar";
}
);
layerId = "65DE19D7-C0F2-4D8D-9C1D-34999E633ECA";
width = 360;
},
{
layerId = "FCEAB5BF-AFE7-45BC-83DB-D0DE89866BD6";
width = 600;
}
);
unicode = 0625;
},
{
color = 2;
glyphname = "alefHamzabelow-ar.fina";
lastChange = "2019-05-17 23:32:30 +0000";
layers = (
{
background = {
paths = (
{
closed = 1;
nodes = (
"370 117 LINE",
"249 117 LINE",
"249 557 LINE SMOOTH",
"249 596 OFFCURVE",
"216 623 QCURVE",
"183 645 OFFCURVE",
"149 666 QCURVE",
"149 0 LINE",
"370 0 LINE"
);
},
{
closed = 1;
nodes = (
"288 -159 LINE",
"232 -159 LINE SMOOTH",
"207 -159 OFFCURVE",
"207 -129 QCURVE SMOOTH",
"207 -115 OFFCURVE",
"219 -115 QCURVE SMOOTH",
"288 -115 LINE",
"288 -74 LINE",
"195 -74 LINE SMOOTH",
"151 -74 OFFCURVE",
"151 -120 QCURVE SMOOTH",
"151 -147 OFFCURVE",
"176 -159 QCURVE",
"140 -159 LINE",
"140 -201 LINE",
"288 -201 LINE"
);
}
);
};
components = (
{
name = "alef-ar.fina";
},
{
name = "hamzabelow-ar";
}
);
layerId = "65DE19D7-C0F2-4D8D-9C1D-34999E633ECA";
width = 360;
},
{
layerId = "FCEAB5BF-AFE7-45BC-83DB-D0DE89866BD6";
width = 600;
}
);
unicode = FE88;
},
{
color = 2;
glyphname = "alefMadda-ar.fina";
lastChange = "2019-05-17 23:32:30 +0000";
layers = (
{
background = {
paths = (
{
closed = 1;
nodes = (
"295 653 LINE",
"263 634 OFFCURVE",
"227 634 QCURVE SMOOTH",
"205 634 OFFCURVE",
"149 664 OFFCURVE",
"131 664 QCURVE SMOOTH",
"96 664 OFFCURVE",
"65 646 QCURVE",
"65 600 LINE",
"97 614 OFFCURVE",
"131 614 QCURVE SMOOTH",
"146 614 OFFCURVE",
"202 589 OFFCURVE",
"217 589 QCURVE SMOOTH",
"259 589 OFFCURVE",
"295 607 QCURVE"
);
},
{
closed = 1;
nodes = (
"420 117 LINE",
"249 117 LINE",
"249 549 LINE",
"149 549 LINE",
"149 0 LINE",
"420 0 LINE"
);
}
);
};
components = (
{
name = "alef-ar.fina.short";
},
{
name = "madda-ar";
}
);
layerId = "65DE19D7-C0F2-4D8D-9C1D-34999E633ECA";
width = 360;
},
{
layerId = "FCEAB5BF-AFE7-45BC-83DB-D0DE89866BD6";
width = 600;
}
);
unicode = FE82;
},
{
color = 9;
glyphname = "behDotless-ar.medi";
lastChange = "2019-05-17 23:38:38 +0000";
layers = (
{
anchors = (
{
name = bottom;
position = "{240, 0}";
},
{
name = ring;
position = "{0, 0}";
},
{
name = top;
position = "{240, 399}";
}
);
background = {
paths = (
{
closed = 1;
nodes = (
"266 -148 CURVE SMOOTH",
"266 -183 OFFCURVE",
"295 -212 OFFCURVE",
"330 -212 CURVE SMOOTH",
"365 -212 OFFCURVE",
"394 -183 OFFCURVE",
"394 -148 CURVE SMOOTH",
"394 -113 OFFCURVE",
"365 -84 OFFCURVE",
"330 -84 CURVE SMOOTH",
"295 -84 OFFCURVE",
"266 -113 OFFCURVE"
);
},
{
closed = 1;
nodes = (
"86 -148 CURVE SMOOTH",
"86 -183 OFFCURVE",
"115 -212 OFFCURVE",
"150 -212 CURVE SMOOTH",
"185 -212 OFFCURVE",
"214 -183 OFFCURVE",
"214 -148 CURVE SMOOTH",
"214 -113 OFFCURVE",
"185 -84 OFFCURVE",
"150 -84 CURVE SMOOTH",
"115 -84 OFFCURVE",
"86 -113 OFFCURVE"
);
}
);
};
components = (
{
name = "behDotless-ar.init";
},
{
name = arab.003;
transform = "{1, 0, 0, 1, 60, 0}";
}
);
guideLines = (
{
angle = 90;
position = "{300, 0}";
}
);
layerId = "65DE19D7-C0F2-4D8D-9C1D-34999E633ECA";
width = 420;
},
{
layerId = "FCEAB5BF-AFE7-45BC-83DB-D0DE89866BD6";
width = 600;
}
);
},
{
color = 9;
glyphname = "behDotless-ar.init";
lastChange = "2019-05-17 23:38:11 +0000";
layers = (
{
anchors = (
{
name = bottom;
position = "{150, 0}";
},
{
name = init;
position = "{240, 100}";
},
{
name = ring;
position = "{0, 0}";
},
{
name = top;
position = "{240, 399}";
}
);
background = {
paths = (
{
closed = 1;
nodes = (
"176 -148 CURVE SMOOTH",
"176 -183 OFFCURVE",
"205 -212 OFFCURVE",
"240 -212 CURVE SMOOTH",
"275 -212 OFFCURVE",
"304 -183 OFFCURVE",
"304 -148 CURVE SMOOTH",
"304 -113 OFFCURVE",
"275 -84 OFFCURVE",
"240 -84 CURVE SMOOTH",
"205 -84 OFFCURVE",
"176 -113 OFFCURVE"
);
},
{
closed = 1;
nodes = (
"-4 -148 CURVE SMOOTH",
"-4 -183 OFFCURVE",
"25 -212 OFFCURVE",
"60 -212 CURVE SMOOTH",
"95 -212 OFFCURVE",
"124 -183 OFFCURVE",
"124 -148 CURVE SMOOTH",
"124 -113 OFFCURVE",
"95 -84 OFFCURVE",
"60 -84 CURVE SMOOTH",
"25 -84 OFFCURVE",
"-4 -113 OFFCURVE"
);
}
);
};
layerId = "65DE19D7-C0F2-4D8D-9C1D-34999E633ECA";
paths = (
{
closed = 1;
nodes = (
"120 0 LINE SMOOTH",
"239 0 OFFCURVE",
"300 60 OFFCURVE",
"300 160 CURVE SMOOTH",
"300 399 LINE",
"180 399 LINE",
"180 160 LINE SMOOTH",
"180 120 OFFCURVE",
"159 100 OFFCURVE",
"120 100 CURVE SMOOTH",
"-5 100 LINE",
"-5 0 LINE"
);
}
);
width = 420;
},
{
layerId = "FCEAB5BF-AFE7-45BC-83DB-D0DE89866BD6";
width = 600;
}
);
},
{
color = 2;
glyphname = "beh-ar";
lastChange = "2019-05-17 23:32:30 +0000";
layers = (
{
background = {
paths = (
{
closed = 1;
nodes = (
"600 300 LINE",
"564 273 OFFCURVE",
"528 246 QCURVE",
"507 228 OFFCURVE",
"503 204 QCURVE SMOOTH",
"500 188 OFFCURVE",
"500 117 QCURVE",
"170 117 LINE",
"170 237 LINE",
"108 191 LINE SMOOTH",
"85 174 OFFCURVE",
"79 163 QCURVE SMOOTH",
"70 149 OFFCURVE",
"70 124 QCURVE SMOOTH",
"70 50 LINE SMOOTH",
"70 32 OFFCURVE",
"105 0 OFFCURVE",
"124 0 QCURVE SMOOTH",
"546 0 LINE SMOOTH",
"564 0 OFFCURVE",
"600 32 OFFCURVE",
"600 50 QCURVE SMOOTH"
);
},
{
closed = 1;
nodes = (
"385 -128 OFFCURVE",
"357 -100 OFFCURVE",
"335 -100 QCURVE SMOOTH",
"313 -100 OFFCURVE",
"285 -128 OFFCURVE",
"285 -150 QCURVE SMOOTH",
"285 -172 OFFCURVE",
"313 -200 OFFCURVE",
"335 -200 QCURVE SMOOTH",
"357 -200 OFFCURVE",
"385 -172 OFFCURVE",
"385 -150 QCURVE SMOOTH"
);
}
);
};
components = (
{
name = "behDotless-ar";
},
{
name = "dotbelow-ar";
}
);
layerId = "65DE19D7-C0F2-4D8D-9C1D-34999E633ECA";
width = 600;
},
{
layerId = "FCEAB5BF-AFE7-45BC-83DB-D0DE89866BD6";
width = 600;
}
);
unicode = 0628;
},
{
color = 2;
glyphname = "beh-ar.fina";
lastChange = "2019-05-17 23:32:30 +0000";
layers = (
{
background = {
paths = (
{
closed = 1;
nodes = (
"670 117 LINE",
"600 117 LINE",
"600 300 LINE",
"564 273 OFFCURVE",
"528 246 QCURVE",
"507 228 OFFCURVE",
"503 204 QCURVE SMOOTH",
"500 188 OFFCURVE",
"500 117 QCURVE",
"170 117 LINE",
"170 237 LINE",
"108 191 LINE SMOOTH",
"85 174 OFFCURVE",
"79 163 QCURVE SMOOTH",
"70 149 OFFCURVE",
"70 124 QCURVE SMOOTH",
"70 50 LINE SMOOTH",
"70 32 OFFCURVE",
"105 0 OFFCURVE",
"124 0 QCURVE SMOOTH",
"670 0 LINE"
);
},
{
closed = 1;
nodes = (
"385 -128 OFFCURVE",
"357 -100 OFFCURVE",
"335 -100 QCURVE SMOOTH",
"313 -100 OFFCURVE",
"285 -128 OFFCURVE",
"285 -150 QCURVE SMOOTH",
"285 -172 OFFCURVE",
"313 -200 OFFCURVE",
"335 -200 QCURVE SMOOTH",
"357 -200 OFFCURVE",
"385 -172 OFFCURVE",
"385 -150 QCURVE SMOOTH"
);
}
);
};
components = (
{
name = "behDotless-ar.fina";
},
{
name = "dotbelow-ar";
}
);
layerId = "65DE19D7-C0F2-4D8D-9C1D-34999E633ECA";
width = 600;
},
{
layerId = "FCEAB5BF-AFE7-45BC-83DB-D0DE89866BD6";
width = 600;
}
);
unicode = FE90;
},
{
color = 4;
glyphname = "beh-ar.medi";
lastChange = "2019-05-17 23:32:30 +0000";
layers = (
{
background = {
paths = (
{
closed = 1;
nodes = (
"370 117 LINE",
"300 117 LINE",
"300 300 LINE",
"220 241 OFFCURVE",
"211 227 QCURVE SMOOTH",
"200 208 OFFCURVE",
"200 117 QCURVE",
"0 117 LINE",
"-70 0 LINE",
"370 0 LINE"
);
},
{
closed = 1;
nodes = (
"240 -128 OFFCURVE",
"212 -100 OFFCURVE",
"190 -100 QCURVE SMOOTH",
"168 -100 OFFCURVE",
"140 -128 OFFCURVE",
"140 -150 QCURVE SMOOTH",
"140 -172 OFFCURVE",
"168 -200 OFFCURVE",
"190 -200 QCURVE SMOOTH",
"212 -200 OFFCURVE",
"240 -172 OFFCURVE",
"240 -150 QCURVE SMOOTH"
);
}
);
};
components = (
{
name = "behDotless-ar.medi";
},
{
name = "dotbelow-ar";
transform = "{1, 0, 0, 1, 76, 0}";
}
);
layerId = "65DE19D7-C0F2-4D8D-9C1D-34999E633ECA";
width = 420;
},
{
layerId = "FCEAB5BF-AFE7-45BC-83DB-D0DE89866BD6";
width = 600;
}
);
unicode = FE92;
userData = {
com.typemytype.robofont.mark = (
0.6,
0.609,
1,
1
);
};
},
{
color = 4;
glyphname = "beh-ar.init";
lastChange = "2019-05-17 23:32:30 +0000";
layers = (
{
background = {
paths = (
{
closed = 1;
nodes = (
"300 300 LINE",
"218 239 OFFCURVE",
"211 228 QCURVE SMOOTH",
"200 209 OFFCURVE",
"200 117 QCURVE",
"0 117 LINE",
"-70 0 LINE",
"245 0 LINE SMOOTH",
"264 0 OFFCURVE",
"300 31 OFFCURVE",
"300 50 QCURVE SMOOTH"
);
},
{
closed = 1;
nodes = (
"240 -128 OFFCURVE",
"212 -100 OFFCURVE",
"190 -100 QCURVE SMOOTH",
"168 -100 OFFCURVE",
"140 -128 OFFCURVE",
"140 -150 QCURVE SMOOTH",
"140 -172 OFFCURVE",
"168 -200 OFFCURVE",
"190 -200 QCURVE SMOOTH",
"212 -200 OFFCURVE",
"240 -172 OFFCURVE",
"240 -150 QCURVE SMOOTH"
);
}
);
};
components = (
{
name = "behDotless-ar.init";
},
{
alignment = -1;
name = "dotbelow-ar";
transform = "{1, 0, 0, 1, 46, 0}";
}
);
layerId = "65DE19D7-C0F2-4D8D-9C1D-34999E633ECA";
width = 420;
},
{
layerId = "FCEAB5BF-AFE7-45BC-83DB-D0DE89866BD6";
width = 600;
}
);
unicode = FE91;
userData = {
com.typemytype.robofont.mark = (
0.6,
0.609,
1,
1
);
};
},
{
color = 4;
glyphname = "alefMaksura-ar.medi";
lastChange = "2019-05-17 23:32:30 +0000";
layers = (
{
background = {
paths = (
{
closed = 1;
nodes = (
"471 117 LINE",
"400 117 LINE",
"400 300 LINE",
"320 247 OFFCURVE",
"311 229 QCURVE SMOOTH",
"300 210 OFFCURVE",
"300 117 QCURVE",
"0 117 LINE",
"-70 0 LINE",
"471 0 LINE"
);
}
);
};
components = (
{
name = "behDotless-ar.medi";
}
);
layerId = "65DE19D7-C0F2-4D8D-9C1D-34999E633ECA";
width = 420;
},
{
layerId = "FCEAB5BF-AFE7-45BC-83DB-D0DE89866BD6";
width = 600;
}
);
unicode = FBE9;
},
{
color = 4;
glyphname = "alefMaksura-ar.init";
lastChange = "2019-05-17 23:32:30 +0000";
layers = (
{
background = {
paths = (
{
closed = 1;
nodes = (
"400 300 LINE",
"320 247 OFFCURVE",
"311 229 QCURVE SMOOTH",
"300 210 OFFCURVE",
"300 117 QCURVE",
"0 117 LINE",
"-70 0 LINE",
"346 0 LINE SMOOTH",
"364 0 OFFCURVE",
"400 32 OFFCURVE",
"400 50 QCURVE SMOOTH"
);
}
);
};
components = (
{
name = "behDotless-ar.init";
}
);
layerId = "65DE19D7-C0F2-4D8D-9C1D-34999E633ECA";
width = 420;
},
{
layerId = "FCEAB5BF-AFE7-45BC-83DB-D0DE89866BD6";
width = 600;
}
);
unicode = FBE8;
},
{
color = 2;
glyphname = "teh-ar";
lastChange = "2019-05-17 23:32:30 +0000";
layers = (
{
anchors = (
{
name = bottom;
position = "{300, 0}";
},
{
name = top;
position = "{300, 500}";
}
);
background = {
paths = (
{
closed = 1;
nodes = (
"480 447 OFFCURVE",
"452 475 OFFCURVE",
"430 475 QCURVE SMOOTH",
"408 475 OFFCURVE",
"380 447 OFFCURVE",
"380 425 QCURVE SMOOTH",
"380 403 OFFCURVE",
"408 375 OFFCURVE",
"430 375 QCURVE SMOOTH",
"452 375 OFFCURVE",
"480 403 OFFCURVE",
"480 425 QCURVE SMOOTH"
);
},
{
closed = 1;
nodes = (
"310 447 OFFCURVE",
"282 475 OFFCURVE",
"260 475 QCURVE SMOOTH",
"238 475 OFFCURVE",
"210 447 OFFCURVE",
"210 425 QCURVE SMOOTH",
"210 403 OFFCURVE",
"238 375 OFFCURVE",
"260 375 QCURVE SMOOTH",
"282 375 OFFCURVE",
"310 403 OFFCURVE",
"310 425 QCURVE SMOOTH"
);
},
{
closed = 1;
nodes = (
"600 300 LINE",
"564 273 OFFCURVE",
"528 246 QCURVE",
"507 228 OFFCURVE",
"503 204 QCURVE SMOOTH",
"500 188 OFFCURVE",
"500 117 QCURVE",
"170 117 LINE",
"170 237 LINE",
"108 191 LINE SMOOTH",
"85 174 OFFCURVE",
"79 163 QCURVE SMOOTH",
"70 149 OFFCURVE",
"70 124 QCURVE SMOOTH",
"70 50 LINE SMOOTH",
"70 32 OFFCURVE",
"105 0 OFFCURVE",
"124 0 QCURVE SMOOTH",
"546 0 LINE SMOOTH",
"564 0 OFFCURVE",
"600 32 OFFCURVE",
"600 50 QCURVE SMOOTH"
);
}
);
};
components = (
{
name = "behDotless-ar";
},
{
name = "twodotshorizontalabove-ar";
}
);
layerId = "65DE19D7-C0F2-4D8D-9C1D-34999E633ECA";
width = 600;
},
{
layerId = "FCEAB5BF-AFE7-45BC-83DB-D0DE89866BD6";
width = 600;
}
);
unicode = 062A;
},
{
color = 2;
glyphname = "teh-ar.fina";
lastChange = "2019-05-17 23:32:30 +0000";
layers = (
{
anchors = (
{
name = bottom;
position = "{300, 0}";
},
{
name = top;
position = "{300, 500}";
}
);
background = {
paths = (
{
closed = 1;
nodes = (
"460 457 OFFCURVE",
"432 485 OFFCURVE",
"410 485 QCURVE SMOOTH",
"388 485 OFFCURVE",
"360 457 OFFCURVE",
"360 435 QCURVE SMOOTH",
"360 413 OFFCURVE",
"388 385 OFFCURVE",
"410 385 QCURVE SMOOTH",
"432 385 OFFCURVE",
"460 413 OFFCURVE",
"460 435 QCURVE SMOOTH"
);
},
{
closed = 1;
nodes = (
"290 457 OFFCURVE",
"262 485 OFFCURVE",
"240 485 QCURVE SMOOTH",
"218 485 OFFCURVE",
"190 457 OFFCURVE",
"190 435 QCURVE SMOOTH",
"190 413 OFFCURVE",
"218 385 OFFCURVE",
"240 385 QCURVE SMOOTH",
"262 385 OFFCURVE",
"290 413 OFFCURVE",
"290 435 QCURVE SMOOTH"
);
},
{
closed = 1;
nodes = (
"670 117 LINE",
"600 117 LINE",
"600 300 LINE",
"564 273 OFFCURVE",
"528 246 QCURVE",
"507 228 OFFCURVE",
"503 204 QCURVE SMOOTH",
"500 188 OFFCURVE",
"500 117 QCURVE",
"170 117 LINE",
"170 237 LINE",
"108 191 LINE SMOOTH",
"85 174 OFFCURVE",
"79 163 QCURVE SMOOTH",
"70 149 OFFCURVE",
"70 124 QCURVE SMOOTH",
"70 50 LINE SMOOTH",
"70 32 OFFCURVE",
"105 0 OFFCURVE",
"124 0 QCURVE SMOOTH",
"670 0 LINE"
);
}
);
};
components = (
{
name = "behDotless-ar.fina";
},
{
name = "twodotshorizontalabove-ar";
}
);
layerId = "65DE19D7-C0F2-4D8D-9C1D-34999E633ECA";
width = 600;
},
{
layerId = "FCEAB5BF-AFE7-45BC-83DB-D0DE89866BD6";
width = 600;
}
);
unicode = FE96;
},
{
color = 4;
glyphname = "teh-ar.medi";
lastChange = "2019-05-17 23:32:30 +0000";
layers = (
{
background = {
paths = (
{
closed = 1;
nodes = (
"380 477 OFFCURVE",
"352 505 OFFCURVE",
"330 505 QCURVE SMOOTH",
"308 505 OFFCURVE",
"280 477 OFFCURVE",
"280 455 QCURVE SMOOTH",
"280 433 OFFCURVE",
"308 405 OFFCURVE",
"330 405 QCURVE SMOOTH",
"352 405 OFFCURVE",
"380 433 OFFCURVE",
"380 455 QCURVE SMOOTH"
);
},
{
closed = 1;
nodes = (
"210 477 OFFCURVE",
"182 505 OFFCURVE",
"160 505 QCURVE SMOOTH",
"138 505 OFFCURVE",
"110 477 OFFCURVE",
"110 455 QCURVE SMOOTH",
"110 433 OFFCURVE",
"138 405 OFFCURVE",
"160 405 QCURVE SMOOTH",
"182 405 OFFCURVE",
"210 433 OFFCURVE",
"210 455 QCURVE SMOOTH"
);
},
{
closed = 1;
nodes = (
"471 117 LINE",
"400 117 LINE",
"400 300 LINE",
"320 247 OFFCURVE",
"311 229 QCURVE SMOOTH",
"300 210 OFFCURVE",
"300 117 QCURVE",
"0 117 LINE",
"-70 0 LINE",
"471 0 LINE"
);
}
);
};
components = (
{
name = "behDotless-ar.medi";
},
{
name = "twodotshorizontalabove-ar";
transform = "{1, 0, 0, 1, -24, -101}";
}
);
guideLines = (
{
angle = 90;
position = "{240, 0}";
}
);
layerId = "65DE19D7-C0F2-4D8D-9C1D-34999E633ECA";
width = 420;
},
{
layerId = "FCEAB5BF-AFE7-45BC-83DB-D0DE89866BD6";
width = 600;
}
);
unicode = FE98;
userData = {
com.typemytype.robofont.guides = (
{
angle = 90;
isGlobal = 0;
magnetic = 5;
x = 240;
y = 0;
}
);
com.typemytype.robofont.mark = (
0.6,
0.609,
1,
1
);
};
},
{
color = 4;
glyphname = "teh-ar.init";
lastChange = "2019-05-17 23:32:30 +0000";
layers = (
{
background = {
paths = (
{
closed = 1;
nodes = (
"385 522 OFFCURVE",
"357 550 OFFCURVE",
"335 550 QCURVE SMOOTH",
"313 550 OFFCURVE",
"285 522 OFFCURVE",
"285 500 QCURVE SMOOTH",
"285 478 OFFCURVE",
"313 450 OFFCURVE",
"335 450 QCURVE SMOOTH",
"357 450 OFFCURVE",
"385 478 OFFCURVE",
"385 500 QCURVE SMOOTH"
);
},
{
closed = 1;
nodes = (
"215 522 OFFCURVE",
"187 550 OFFCURVE",
"165 550 QCURVE SMOOTH",
"143 550 OFFCURVE",
"115 522 OFFCURVE",
"115 500 QCURVE SMOOTH",
"115 478 OFFCURVE",
"143 450 OFFCURVE",
"165 450 QCURVE SMOOTH",
"187 450 OFFCURVE",
"215 478 OFFCURVE",
"215 500 QCURVE SMOOTH"
);
},
{
closed = 1;
nodes = (
"400 300 LINE",
"320 247 OFFCURVE",
"311 229 QCURVE SMOOTH",
"300 210 OFFCURVE",
"300 117 QCURVE",
"0 117 LINE",
"-70 0 LINE",
"346 0 LINE SMOOTH",
"364 0 OFFCURVE",
"400 32 OFFCURVE",
"400 50 QCURVE SMOOTH"
);
}
);
};
components = (
{
name = "behDotless-ar.init";
},
{
name = "twodotshorizontalabove-ar";
transform = "{1, 0, 0, 1, -24, -101}";
}
);
layerId = "65DE19D7-C0F2-4D8D-9C1D-34999E633ECA";
width = 420;
},
{
layerId = "FCEAB5BF-AFE7-45BC-83DB-D0DE89866BD6";
width = 600;
}
);
unicode = FE97;
userData = {
com.typemytype.robofont.mark = (
0.6,
0.609,
1,
1
);
};
},
{
color = 2;
glyphname = "theh-ar";
lastChange = "2019-05-17 23:32:30 +0000";
layers = (
{
anchors = (
{
name = bottom;
position = "{300, 0}";
},
{
name = top;
position = "{300, 500}";
}
);
background = {
paths = (
{
closed = 1;
nodes = (
"384 597 OFFCURVE",
"337 597 QCURVE SMOOTH",
"290 597 OFFCURVE",
"290 553 QCURVE SMOOTH",
"290 509 OFFCURVE",
"337 509 QCURVE SMOOTH",
"384 509 OFFCURVE",
"384 553 QCURVE SMOOTH"
);
},
{
closed = 1;
nodes = (
"465 487 OFFCURVE",
"418 487 QCURVE SMOOTH",
"370 487 OFFCURVE",
"370 443 QCURVE SMOOTH",
"370 398 OFFCURVE",
"418 398 QCURVE SMOOTH",
"465 398 OFFCURVE",
"465 443 QCURVE SMOOTH"
);
},
{
closed = 1;
nodes = (
"304 487 OFFCURVE",
"257 487 QCURVE SMOOTH",
"210 487 OFFCURVE",
"210 443 QCURVE SMOOTH",
"210 398 OFFCURVE",
"257 398 QCURVE SMOOTH",
"304 398 OFFCURVE",
"304 443 QCURVE SMOOTH"
);
},
{
closed = 1;
nodes = (
"600 300 LINE",
"564 273 OFFCURVE",
"528 246 QCURVE",
"507 228 OFFCURVE",
"503 204 QCURVE SMOOTH",
"500 188 OFFCURVE",
"500 117 QCURVE",
"170 117 LINE",
"170 237 LINE",
"108 191 LINE SMOOTH",
"85 174 OFFCURVE",
"79 163 QCURVE SMOOTH",
"70 149 OFFCURVE",
"70 124 QCURVE SMOOTH",
"70 50 LINE SMOOTH",
"70 32 OFFCURVE",
"105 0 OFFCURVE",
"124 0 QCURVE SMOOTH",
"546 0 LINE SMOOTH",
"564 0 OFFCURVE",
"600 32 OFFCURVE",
"600 50 QCURVE SMOOTH"
);
}
);
};
components = (
{
name = "behDotless-ar";
},
{
name = "threedotsupabove-ar";
}
);
layerId = "65DE19D7-C0F2-4D8D-9C1D-34999E633ECA";
width = 600;
},
{
layerId = "FCEAB5BF-AFE7-45BC-83DB-D0DE89866BD6";
width = 600;
}
);
unicode = 062B;
},
{
color = 2;
glyphname = "theh-ar.fina";
lastChange = "2019-05-17 23:32:30 +0000";
layers = (
{
anchors = (
{
name = bottom;
position = "{300, 0}";
},
{
name = top;
position = "{300, 500}";
}
);
background = {
paths = (
{
closed = 1;
nodes = (
"384 599 OFFCURVE",
"337 599 QCURVE SMOOTH",
"290 599 OFFCURVE",
"290 554 QCURVE SMOOTH",
"290 510 OFFCURVE",
"337 510 QCURVE SMOOTH",
"384 510 OFFCURVE",
"384 554 QCURVE SMOOTH"
);
},
{
closed = 1;
nodes = (
"464 488 OFFCURVE",
"417 488 QCURVE SMOOTH",
"370 488 OFFCURVE",
"370 443 QCURVE SMOOTH",
"370 399 OFFCURVE",
"417 399 QCURVE SMOOTH",
"464 399 OFFCURVE",
"464 443 QCURVE SMOOTH"
);
},
{
closed = 1;
nodes = (
"304 488 OFFCURVE",
"257 488 QCURVE SMOOTH",
"210 488 OFFCURVE",
"210 443 QCURVE SMOOTH",
"210 399 OFFCURVE",
"257 399 QCURVE SMOOTH",
"304 399 OFFCURVE",
"304 443 QCURVE SMOOTH"
);
},
{
closed = 1;
nodes = (
"670 117 LINE",
"600 117 LINE",
"600 300 LINE",
"564 273 OFFCURVE",
"528 246 QCURVE",
"507 228 OFFCURVE",
"503 204 QCURVE SMOOTH",
"500 188 OFFCURVE",
"500 117 QCURVE",
"170 117 LINE",
"170 237 LINE",
"108 191 LINE SMOOTH",
"85 174 OFFCURVE",
"79 163 QCURVE SMOOTH",
"70 149 OFFCURVE",
"70 124 QCURVE SMOOTH",
"70 50 LINE SMOOTH",
"70 32 OFFCURVE",
"105 0 OFFCURVE",
"124 0 QCURVE SMOOTH",
"670 0 LINE"
);
}
);
};
components = (
{
name = "behDotless-ar.fina";
},
{
name = "threedotsupabove-ar";
}
);
layerId = "65DE19D7-C0F2-4D8D-9C1D-34999E633ECA";
width = 600;
},
{
layerId = "FCEAB5BF-AFE7-45BC-83DB-D0DE89866BD6";
width = 600;
}
);
unicode = FE9A;
},
{
color = 4;
glyphname = "theh-ar.medi";
lastChange = "2019-05-17 23:32:30 +0000";
layers = (
{
background = {
paths = (
{
closed = 1;
nodes = (
"322 653 OFFCURVE",
"276 653 QCURVE SMOOTH",
"229 653 OFFCURVE",
"229 607 QCURVE SMOOTH",
"229 561 OFFCURVE",
"276 561 QCURVE SMOOTH",
"322 561 OFFCURVE",
"322 607 QCURVE SMOOTH"
);
},
{
closed = 1;
nodes = (
"400 539 OFFCURVE",
"354 539 QCURVE SMOOTH",
"308 539 OFFCURVE",
"308 494 QCURVE SMOOTH",
"308 448 OFFCURVE",
"354 448 QCURVE SMOOTH",
"400 448 OFFCURVE",
"400 494 QCURVE SMOOTH"
);
},
{
closed = 1;
nodes = (
"243 539 OFFCURVE",
"197 539 QCURVE SMOOTH",
"150 539 OFFCURVE",
"150 494 QCURVE SMOOTH",
"150 448 OFFCURVE",
"197 448 QCURVE SMOOTH",
"243 448 OFFCURVE",
"243 494 QCURVE SMOOTH"
);
},
{
closed = 1;
nodes = (
"471 117 LINE",
"400 117 LINE",
"400 300 LINE",
"320 247 OFFCURVE",
"311 229 QCURVE SMOOTH",
"300 210 OFFCURVE",
"300 117 QCURVE",
"0 117 LINE",
"-70 0 LINE",
"471 0 LINE"
);
}
);
};
components = (
{
name = "behDotless-ar.medi";
},
{
name = "threedotsupabove-ar";
transform = "{1, 0, 0, 1, -14, -101}";
}
);
layerId = "65DE19D7-C0F2-4D8D-9C1D-34999E633ECA";
width = 420;
},
{
layerId = "FCEAB5BF-AFE7-45BC-83DB-D0DE89866BD6";
width = 600;
}
);
unicode = FE9C;
userData = {
com.typemytype.robofont.mark = (
0.6,
0.986,
1,
1
);
};
},
{
color = 4;
glyphname = "theh-ar.init";
lastChange = "2019-05-17 23:32:30 +0000";
layers = (
{
background = {
paths = (
{
closed = 1;
nodes = (
"322 653 OFFCURVE",
"276 653 QCURVE SMOOTH",
"229 653 OFFCURVE",
"229 607 QCURVE SMOOTH",
"229 561 OFFCURVE",
"276 561 QCURVE SMOOTH",
"322 561 OFFCURVE",
"322 607 QCURVE SMOOTH"
);
},
{
closed = 1;
nodes = (
"400 539 OFFCURVE",
"354 539 QCURVE SMOOTH",
"308 539 OFFCURVE",
"308 494 QCURVE SMOOTH",
"308 448 OFFCURVE",
"354 448 QCURVE SMOOTH",
"400 448 OFFCURVE",
"400 494 QCURVE SMOOTH"
);
},
{
closed = 1;
nodes = (
"243 539 OFFCURVE",
"197 539 QCURVE SMOOTH",
"150 539 OFFCURVE",
"150 494 QCURVE SMOOTH",
"150 448 OFFCURVE",
"197 448 QCURVE SMOOTH",
"243 448 OFFCURVE",
"243 494 QCURVE SMOOTH"
);
},
{
closed = 1;
nodes = (
"400 300 LINE",
"320 247 OFFCURVE",
"311 229 QCURVE SMOOTH",
"300 210 OFFCURVE",
"300 117 QCURVE",
"0 117 LINE",
"-70 0 LINE",
"346 0 LINE SMOOTH",
"364 0 OFFCURVE",
"400 32 OFFCURVE",
"400 50 QCURVE SMOOTH"
);
}
);
};
components = (
{
name = "behDotless-ar.init";
},
{
alignment = 1;
name = "threedotsupabove-ar";
transform = "{1, 0, 0, 1, -14, -101}";
}
);
layerId = "65DE19D7-C0F2-4D8D-9C1D-34999E633ECA";
width = 420;
},
{
layerId = "FCEAB5BF-AFE7-45BC-83DB-D0DE89866BD6";
width = 600;
}
);
unicode = FE9B;
userData = {
com.typemytype.robofont.mark = (
0.6,
0.986,
1,
1
);
};
},
{
color = 2;
glyphname = "jeem-ar";
lastChange = "2019-05-17 23:32:30 +0000";
layers = (
{
anchors = (
{
name = bottom;
position = "{300, 0}";
},
{
name = top;
position = "{300, 500}";
}
);
background = {
paths = (
{
closed = 1;
nodes = (
"450 117 LINE",
"437 124 OFFCURVE",
"374 177 OFFCURVE",
"366 189 QCURVE",
"337 244 OFFCURVE",
"309 299 QCURVE",
"266 370 OFFCURVE",
"220 370 QCURVE SMOOTH",
"180 370 OFFCURVE",
"150 325 QCURVE",
"150 221 LINE",
"167 251 OFFCURVE",
"199 251 QCURVE SMOOTH",
"220 251 OFFCURVE",
"234 222 QCURVE",
"243 199 OFFCURVE",
"261 154 OFFCURVE",
"310 117 QCURVE",
"198 117 LINE SMOOTH",
"127 117 OFFCURVE",
"30 19 OFFCURVE",
"30 -52 QCURVE SMOOTH",
"30 -112 OFFCURVE",
"67 -166 QCURVE SMOOTH",
"109 -226 OFFCURVE",
"166 -226 QCURVE SMOOTH",
"182 -226 OFFCURVE",
"198 -220 QCURVE",
"202 -224 OFFCURVE",
"208 -224 QCURVE SMOOTH",
"221 -224 OFFCURVE",
"255 -188 OFFCURVE",
"255 -175 QCURVE SMOOTH",
"255 -101 LINE",
"166 -101 LINE SMOOTH",
"135 -101 OFFCURVE",
"135 -56 QCURVE SMOOTH",
"135 0 OFFCURVE",
"171 0 QCURVE SMOOTH",
"402 0 LINE SMOOTH",
"423 0 OFFCURVE",
"450 29 OFFCURVE",
"450 50 QCURVE SMOOTH"
);
},
{
closed = 1;
nodes = (
"450 -123 OFFCURVE",
"422 -95 OFFCURVE",
"400 -95 QCURVE SMOOTH",
"378 -95 OFFCURVE",
"350 -123 OFFCURVE",
"350 -145 QCURVE SMOOTH",
"350 -167 OFFCURVE",
"378 -195 OFFCURVE",
"400 -195 QCURVE SMOOTH",
"422 -195 OFFCURVE",
"450 -167 OFFCURVE",
"450 -145 QCURVE SMOOTH"
);
}
);
};
components = (
{
name = "hah-ar";
},
{
name = "dotcenter-ar";
}
);
layerId = "65DE19D7-C0F2-4D8D-9C1D-34999E633ECA";
width = 600;
},
{
layerId = "FCEAB5BF-AFE7-45BC-83DB-D0DE89866BD6";
width = 600;
}
);
unicode = 062C;
},
{
color = 2;
glyphname = "jeem-ar.fina";
lastChange = "2019-05-17 23:32:30 +0000";
layers = (
{
anchors = (
{
name = bottom;
position = "{300, 0}";
},
{
name = top;
position = "{300, 500}";
}
);
background = {
paths = (
{
closed = 1;
nodes = (
"520 117 LINE",
"450 117 LINE",
"437 124 OFFCURVE",
"406 150 QCURVE SMOOTH",
"374 177 OFFCURVE",
"366 189 QCURVE",
"337 244 OFFCURVE",
"309 298 QCURVE",
"266 370 OFFCURVE",
"220 370 QCURVE SMOOTH",
"180 370 OFFCURVE",
"150 325 QCURVE",
"150 221 LINE",
"166 251 OFFCURVE",
"199 251 QCURVE SMOOTH",
"219 251 OFFCURVE",
"233 222 QCURVE SMOOTH",
"243 199 OFFCURVE",
"252 176 QCURVE",
"264 152 OFFCURVE",
"310 117 QCURVE",
"198 117 LINE SMOOTH",
"127 117 OFFCURVE",
"30 19 OFFCURVE",
"30 -52 QCURVE SMOOTH",
"30 -220 OFFCURVE",
"198 -220 QCURVE SMOOTH",
"254 -220 OFFCURVE",
"254 -170 QCURVE SMOOTH",
"254 -101 LINE",
"166 -101 LINE SMOOTH",
"135 -101 OFFCURVE",
"135 -52 QCURVE SMOOTH",
"135 0 OFFCURVE",
"171 0 QCURVE SMOOTH",
"520 0 LINE"
);
},
{
closed = 1;
nodes = (
"450 -123 OFFCURVE",
"422 -95 OFFCURVE",
"400 -95 QCURVE SMOOTH",
"378 -95 OFFCURVE",
"350 -123 OFFCURVE",
"350 -145 QCURVE SMOOTH",
"350 -167 OFFCURVE",
"378 -195 OFFCURVE",
"400 -195 QCURVE SMOOTH",
"422 -195 OFFCURVE",
"450 -167 OFFCURVE",
"450 -145 QCURVE SMOOTH"
);
}
);
};
components = (
{
name = "hah-ar.fina";
},
{
name = "dotcenter-ar";
}
);
layerId = "65DE19D7-C0F2-4D8D-9C1D-34999E633ECA";
width = 600;
},
{
layerId = "FCEAB5BF-AFE7-45BC-83DB-D0DE89866BD6";
width = 600;
}
);
unicode = FE9E;
},
{
color = 2;
glyphname = "jeem-ar.medi";
lastChange = "2019-05-17 23:32:30 +0000";
layers = (
{
anchors = (
{
name = bottom;
position = "{300, 0}";
},
{
name = top;
position = "{300, 500}";
}
);
background = {
paths = (
{
closed = 1;
nodes = (
"570 117 LINE",
"431 117 LINE",
"331 268 LINE SMOOTH",
"295 322 OFFCURVE",
"288 331 QCURVE SMOOTH",
"258 365 OFFCURVE",
"224 365 QCURVE SMOOTH",
"188 365 OFFCURVE",
"164 325 QCURVE",
"164 225 LINE",
"184 245 OFFCURVE",
"214 245 QCURVE SMOOTH",
"247 245 OFFCURVE",
"278 198 QCURVE SMOOTH",
"331 117 LINE",
"0 117 LINE",
"-70 0 LINE",
"409 0 LINE",
"450 -62 LINE",
"450 0 LINE",
"570 0 LINE"
);
},
{
closed = 1;
nodes = (
"335 -128 OFFCURVE",
"307 -100 OFFCURVE",
"285 -100 QCURVE SMOOTH",
"263 -100 OFFCURVE",
"235 -128 OFFCURVE",
"235 -150 QCURVE SMOOTH",
"235 -172 OFFCURVE",
"263 -200 OFFCURVE",
"285 -200 QCURVE SMOOTH",
"307 -200 OFFCURVE",
"335 -172 OFFCURVE",
"335 -150 QCURVE SMOOTH"
);
}
);
};
components = (
{
name = "hah-ar.medi";
},
{
name = "dotbelow-ar";
transform = "{1, 0, 0, 1, 136, 0}";
}
);
layerId = "65DE19D7-C0F2-4D8D-9C1D-34999E633ECA";
width = 600;
},
{
layerId = "FCEAB5BF-AFE7-45BC-83DB-D0DE89866BD6";
width = 600;
}
);
unicode = FEA0;
},
{
color = 2;
glyphname = "jeem-ar.init";
lastChange = "2019-05-17 23:32:30 +0000";
layers = (
{
anchors = (
{
name = bottom;
position = "{300, 0}";
},
{
name = top;
position = "{300, 500}";
}
);
background = {
paths = (
{
closed = 1;
nodes = (
"450 117 LINE",
"437 124 OFFCURVE",
"374 177 OFFCURVE",
"366 189 QCURVE",
"337 244 OFFCURVE",
"309 299 QCURVE",
"266 370 OFFCURVE",
"220 370 QCURVE SMOOTH",
"180 370 OFFCURVE",
"150 325 QCURVE",
"150 221 LINE",
"167 251 OFFCURVE",
"199 251 QCURVE SMOOTH",
"220 251 OFFCURVE",
"234 222 QCURVE",
"243 199 OFFCURVE",
"261 154 OFFCURVE",
"310 117 QCURVE",
"0 117 LINE",
"-70 0 LINE",
"390 0 LINE SMOOTH",
"413 0 OFFCURVE",
"450 28 OFFCURVE",
"450 50 QCURVE SMOOTH"
);
},
{
closed = 1;
nodes = (
"235 -128 OFFCURVE",
"207 -100 OFFCURVE",
"185 -100 QCURVE SMOOTH",
"163 -100 OFFCURVE",
"135 -128 OFFCURVE",
"135 -150 QCURVE SMOOTH",
"135 -172 OFFCURVE",
"163 -200 OFFCURVE",
"185 -200 QCURVE SMOOTH",
"207 -200 OFFCURVE",
"235 -172 OFFCURVE",
"235 -150 QCURVE SMOOTH"
);
}
);
};
components = (
{
name = "hah-ar.init";
},
{
name = "dotbelow-ar";
transform = "{1, 0, 0, 1, 136, 0}";
}
);
layerId = "65DE19D7-C0F2-4D8D-9C1D-34999E633ECA";
width = 600;
},
{
layerId = "FCEAB5BF-AFE7-45BC-83DB-D0DE89866BD6";
width = 600;
}
);
unicode = FE9F;
},
{
color = 9;
glyphname = "hah-ar";
lastChange = "2019-05-17 23:32:30 +0000";
layers = (
{
anchors = (
{
name = bottom;
position = "{300, 0}";
},
{
name = center;
position = "{300, 250}";
},
{
name = top;
position = "{300, 500}";
}
);
background = {
paths = (
{
closed = 1;
nodes = (
"450 -101 LINE",
"166 -101 LINE SMOOTH",
"151 -101 OFFCURVE",
"143 -85 QCURVE SMOOTH",
"135 -72 OFFCURVE",
"135 -57 QCURVE SMOOTH",
"135 0 OFFCURVE",
"171 0 QCURVE SMOOTH",
"402 0 LINE SMOOTH",
"423 0 OFFCURVE",
"450 29 OFFCURVE",
"450 50 QCURVE SMOOTH",
"450 117 LINE",
"437 124 OFFCURVE",
"406 150 QCURVE SMOOTH",
"374 177 OFFCURVE",
"366 189 QCURVE",
"337 244 OFFCURVE",
"309 299 QCURVE",
"266 370 OFFCURVE",
"220 370 QCURVE SMOOTH",
"180 370 OFFCURVE",
"150 325 QCURVE",
"150 221 LINE",
"167 251 OFFCURVE",
"199 251 QCURVE SMOOTH",
"220 251 OFFCURVE",
"234 222 QCURVE",
"243 199 OFFCURVE",
"261 154 OFFCURVE",
"310 117 QCURVE",
"198 117 LINE SMOOTH",
"127 117 OFFCURVE",
"30 19 OFFCURVE",
"30 -52 QCURVE SMOOTH",
"30 -122 OFFCURVE",
"128 -220 OFFCURVE",
"198 -220 QCURVE SMOOTH",
"401 -220 LINE SMOOTH",
"421 -220 OFFCURVE",
"450 -190 OFFCURVE",
"450 -170 QCURVE SMOOTH"
);
}
);
};
layerId = "65DE19D7-C0F2-4D8D-9C1D-34999E633ECA";
width = 600;
},
{
layerId = "FCEAB5BF-AFE7-45BC-83DB-D0DE89866BD6";
width = 600;
}
);
unicode = 062D;
},
{
color = 2;
glyphname = "hah-ar.fina";
lastChange = "2019-05-17 23:32:30 +0000";
layers = (
{
anchors = (
{
name = bottom;
position = "{300, 0}";
},
{
name = center;
position = "{300, 250}";
},
{
name = top;
position = "{300, 500}";
}
);
background = {
paths = (
{
closed = 1;
nodes = (
"520 117 LINE",
"450 117 LINE",
"437 124 OFFCURVE",
"406 150 QCURVE SMOOTH",
"374 177 OFFCURVE",
"366 189 QCURVE",
"337 244 OFFCURVE",
"309 298 QCURVE",
"266 370 OFFCURVE",
"220 370 QCURVE SMOOTH",
"180 370 OFFCURVE",
"150 325 QCURVE",
"150 221 LINE",
"167 251 OFFCURVE",
"199 251 QCURVE SMOOTH",
"220 251 OFFCURVE",
"234 222 QCURVE",
"243 199 OFFCURVE",
"261 154 OFFCURVE",
"310 117 QCURVE",
"198 117 LINE SMOOTH",
"127 117 OFFCURVE",
"30 19 OFFCURVE",
"30 -52 QCURVE SMOOTH",
"30 -122 OFFCURVE",
"128 -220 OFFCURVE",
"198 -220 QCURVE SMOOTH",
"401 -220 LINE SMOOTH",
"422 -220 OFFCURVE",
"450 -190 OFFCURVE",
"450 -170 QCURVE SMOOTH",
"450 -101 LINE",
"166 -101 LINE SMOOTH",
"151 -101 OFFCURVE",
"143 -85 QCURVE SMOOTH",
"135 -72 OFFCURVE",
"135 -57 QCURVE SMOOTH",
"135 0 OFFCURVE",
"171 0 QCURVE SMOOTH",
"520 0 LINE"
);
}
);
};
layerId = "65DE19D7-C0F2-4D8D-9C1D-34999E633ECA";
width = 600;
},
{
layerId = "FCEAB5BF-AFE7-45BC-83DB-D0DE89866BD6";
width = 600;
}
);
unicode = FEA2;
},
{
color = 2;
glyphname = "hah-ar.medi";
lastChange = "2019-05-17 23:32:30 +0000";
layers = (
{
anchors = (
{
name = bottom;
position = "{300, 0}";
},
{
name = top;
position = "{300, 500}";
}
);
background = {
paths = (
{
closed = 1;
nodes = (
"570 117 LINE",
"431 117 LINE",
"331 268 LINE SMOOTH",
"295 322 OFFCURVE",
"288 331 QCURVE SMOOTH",
"258 365 OFFCURVE",
"224 365 QCURVE SMOOTH",
"188 365 OFFCURVE",
"164 325 QCURVE",
"164 225 LINE",
"184 245 OFFCURVE",
"214 245 QCURVE SMOOTH",
"247 245 OFFCURVE",
"278 198 QCURVE SMOOTH",
"331 117 LINE",
"0 117 LINE",
"-70 0 LINE",
"409 0 LINE",
"450 -62 LINE",
"450 0 LINE",
"570 0 LINE"
);
}
);
};
layerId = "65DE19D7-C0F2-4D8D-9C1D-34999E633ECA";
width = 600;
},
{
layerId = "FCEAB5BF-AFE7-45BC-83DB-D0DE89866BD6";
width = 600;
}
);
unicode = FEA4;
},
{
color = 9;
glyphname = "hah-ar.init";
lastChange = "2019-05-17 23:32:30 +0000";
layers = (
{
anchors = (
{
name = bottom;
position = "{300, 0}";
},
{
name = top;
position = "{300, 500}";
}
);
background = {
paths = (
{
closed = 1;
nodes = (
"450 117 LINE",
"435 125 OFFCURVE",
"377 174 OFFCURVE",
"366 189 QCURVE",
"337 241 OFFCURVE",
"326 269 QCURVE",
"295 320 OFFCURVE",
"284 333 QCURVE SMOOTH",
"253 370 OFFCURVE",
"220 370 QCURVE SMOOTH",
"180 370 OFFCURVE",
"150 325 QCURVE",
"150 221 LINE",
"167 251 OFFCURVE",
"199 251 QCURVE SMOOTH",
"220 251 OFFCURVE",
"235 222 QCURVE",
"243 199 OFFCURVE",
"261 154 OFFCURVE",
"310 117 QCURVE",
"0 117 LINE",
"-70 0 LINE",
"390 0 LINE SMOOTH",
"413 0 OFFCURVE",
"450 28 OFFCURVE",
"450 50 QCURVE SMOOTH"
);
}
);
};
layerId = "65DE19D7-C0F2-4D8D-9C1D-34999E633ECA";
width = 600;
},
{
layerId = "FCEAB5BF-AFE7-45BC-83DB-D0DE89866BD6";
width = 600;
}
);
unicode = FEA3;
},
{
color = 2;
glyphname = "khah-ar";
lastChange = "2019-05-17 23:32:30 +0000";
layers = (
{
anchors = (
{
name = bottom;
position = "{300, 0}";
},
{
name = top;
position = "{300, 500}";
}
);
background = {
paths = (
{
closed = 1;
nodes = (
"300 562 OFFCURVE",
"272 590 OFFCURVE",
"250 590 QCURVE SMOOTH",
"228 590 OFFCURVE",
"200 562 OFFCURVE",
"200 540 QCURVE SMOOTH",
"200 518 OFFCURVE",
"228 490 OFFCURVE",
"250 490 QCURVE SMOOTH",
"272 490 OFFCURVE",
"300 518 OFFCURVE",
"300 540 QCURVE SMOOTH"
);
},
{
closed = 1;
nodes = (
"450 -101 LINE",
"166 -101 LINE SMOOTH",
"151 -101 OFFCURVE",
"143 -85 QCURVE SMOOTH",
"135 -72 OFFCURVE",
"135 -57 QCURVE SMOOTH",
"135 0 OFFCURVE",
"171 0 QCURVE SMOOTH",
"402 0 LINE SMOOTH",
"423 0 OFFCURVE",
"450 29 OFFCURVE",
"450 50 QCURVE SMOOTH",
"450 117 LINE",
"437 124 OFFCURVE",
"406 150 QCURVE SMOOTH",
"374 177 OFFCURVE",
"366 189 QCURVE",
"337 244 OFFCURVE",
"309 299 QCURVE",
"266 370 OFFCURVE",
"220 370 QCURVE SMOOTH",
"180 370 OFFCURVE",
"150 325 QCURVE",
"150 221 LINE",
"167 251 OFFCURVE",
"199 251 QCURVE SMOOTH",
"220 251 OFFCURVE",
"234 222 QCURVE",
"243 199 OFFCURVE",
"261 154 OFFCURVE",
"310 117 QCURVE",
"198 117 LINE SMOOTH",
"127 117 OFFCURVE",
"30 19 OFFCURVE",
"30 -52 QCURVE SMOOTH",
"30 -122 OFFCURVE",
"128 -220 OFFCURVE",
"198 -220 QCURVE SMOOTH",
"401 -220 LINE SMOOTH",
"421 -220 OFFCURVE",
"450 -190 OFFCURVE",
"450 -170 QCURVE SMOOTH"
);
}
);
};
components = (
{
name = "hah-ar";
},
{
name = "dotabove-ar";
transform = "{1, 0, 0, 1, 136, 0}";
}
);
layerId = "65DE19D7-C0F2-4D8D-9C1D-34999E633ECA";
width = 600;
},
{
layerId = "FCEAB5BF-AFE7-45BC-83DB-D0DE89866BD6";
width = 600;
}
);
unicode = 062E;
},
{
color = 2;
glyphname = "khah-ar.fina";
lastChange = "2019-05-17 23:32:30 +0000";
layers = (
{
anchors = (
{
name = bottom;
position = "{300, 0}";
},
{
name = top;
position = "{300, 500}";
}
);
background = {
paths = (
{
closed = 1;
nodes = (
"275 577 OFFCURVE",
"247 605 OFFCURVE",
"225 605 QCURVE SMOOTH",
"203 605 OFFCURVE",
"175 577 OFFCURVE",
"175 555 QCURVE SMOOTH",
"175 533 OFFCURVE",
"203 505 OFFCURVE",
"225 505 QCURVE SMOOTH",
"247 505 OFFCURVE",
"275 533 OFFCURVE",
"275 555 QCURVE SMOOTH"
);
},
{
closed = 1;
nodes = (
"495 117 LINE",
"425 117 LINE",
"412 124 OFFCURVE",
"381 150 QCURVE SMOOTH",
"349 177 OFFCURVE",
"341 189 QCURVE",
"312 244 OFFCURVE",
"284 298 QCURVE",
"241 370 OFFCURVE",
"195 370 QCURVE SMOOTH",
"155 370 OFFCURVE",
"125 325 QCURVE",
"125 221 LINE",
"141 251 OFFCURVE",
"174 251 QCURVE SMOOTH",
"195 251 OFFCURVE",
"209 222 QCURVE",
"218 199 OFFCURVE",
"236 154 OFFCURVE",
"285 117 QCURVE",
"173 117 LINE SMOOTH",
"103 117 OFFCURVE",
"5 19 OFFCURVE",
"5 -52 QCURVE SMOOTH",
"5 -122 OFFCURVE",
"104 -220 OFFCURVE",
"173 -220 QCURVE SMOOTH",
"376 -220 LINE SMOOTH",
"396 -220 OFFCURVE",
"425 -190 OFFCURVE",
"425 -170 QCURVE SMOOTH",
"425 -101 LINE",
"141 -101 LINE SMOOTH",
"126 -101 OFFCURVE",
"117 -85 QCURVE SMOOTH",
"110 -72 OFFCURVE",
"110 -57 QCURVE SMOOTH",
"110 0 OFFCURVE",
"146 0 QCURVE SMOOTH",
"495 0 LINE"
);
}
);
};
components = (
{
name = "hah-ar.fina";
},
{
name = "dotabove-ar";
transform = "{1, 0, 0, 1, 136, 0}";
}
);
layerId = "65DE19D7-C0F2-4D8D-9C1D-34999E633ECA";
width = 600;
},
{
layerId = "FCEAB5BF-AFE7-45BC-83DB-D0DE89866BD6";
width = 600;
}
);
unicode = FEA6;
},
{
color = 2;
glyphname = "khah-ar.medi";
lastChange = "2019-05-17 23:32:30 +0000";
layers = (
{
anchors = (
{
name = bottom;
position = "{300, 0}";
},
{
name = top;
position = "{300, 500}";
}
);
background = {
paths = (
{
closed = 1;
nodes = (
"275 552 OFFCURVE",
"247 580 OFFCURVE",
"225 580 QCURVE SMOOTH",
"203 580 OFFCURVE",
"175 552 OFFCURVE",
"175 530 QCURVE SMOOTH",
"175 508 OFFCURVE",
"203 480 OFFCURVE",
"225 480 QCURVE SMOOTH",
"247 480 OFFCURVE",
"275 508 OFFCURVE",
"275 530 QCURVE SMOOTH"
);
},
{
closed = 1;
nodes = (
"570 117 LINE",
"431 117 LINE",
"331 268 LINE SMOOTH",
"295 322 OFFCURVE",
"288 331 QCURVE SMOOTH",
"258 365 OFFCURVE",
"224 365 QCURVE SMOOTH",
"188 365 OFFCURVE",
"164 325 QCURVE",
"164 225 LINE",
"184 245 OFFCURVE",
"214 245 QCURVE SMOOTH",
"247 245 OFFCURVE",
"278 198 QCURVE SMOOTH",
"331 117 LINE",
"0 117 LINE",
"-70 0 LINE",
"409 0 LINE",
"450 -62 LINE",
"450 0 LINE",
"570 0 LINE"
);
}
);
};
components = (
{
name = "hah-ar.medi";
},
{
name = "dotabove-ar";
transform = "{1, 0, 0, 1, 136, 0}";
}
);
layerId = "65DE19D7-C0F2-4D8D-9C1D-34999E633ECA";
width = 600;
},
{
layerId = "FCEAB5BF-AFE7-45BC-83DB-D0DE89866BD6";
width = 600;
}
);
unicode = FEA8;
},
{
color = 2;
glyphname = "khah-ar.init";
lastChange = "2019-05-17 23:32:30 +0000";
layers = (
{
anchors = (
{
name = bottom;
position = "{300, 0}";
},
{
name = top;
position = "{300, 500}";
}
);
background = {
paths = (
{
closed = 1;
nodes = (
"225 552 OFFCURVE",
"197 580 OFFCURVE",
"175 580 QCURVE SMOOTH",
"153 580 OFFCURVE",
"125 552 OFFCURVE",
"125 530 QCURVE SMOOTH",
"125 508 OFFCURVE",
"153 480 OFFCURVE",
"175 480 QCURVE SMOOTH",
"197 480 OFFCURVE",
"225 508 OFFCURVE",
"225 530 QCURVE SMOOTH"
);
},
{
closed = 1;
nodes = (
"450 117 LINE",
"437 124 OFFCURVE",
"374 177 OFFCURVE",
"366 189 QCURVE",
"337 244 OFFCURVE",
"309 299 QCURVE",
"266 370 OFFCURVE",
"220 370 QCURVE SMOOTH",
"180 370 OFFCURVE",
"150 325 QCURVE",
"150 221 LINE",
"167 251 OFFCURVE",
"199 251 QCURVE SMOOTH",
"220 251 OFFCURVE",
"234 222 QCURVE",
"243 199 OFFCURVE",
"261 154 OFFCURVE",
"310 117 QCURVE",
"0 117 LINE",
"-70 0 LINE",
"390 0 LINE SMOOTH",
"413 0 OFFCURVE",
"450 28 OFFCURVE",
"450 50 QCURVE SMOOTH"
);
}
);
};
components = (
{
name = "hah-ar.init";
},
{
name = "dotabove-ar";
transform = "{1, 0, 0, 1, 136, 0}";
}
);
layerId = "65DE19D7-C0F2-4D8D-9C1D-34999E633ECA";
width = 600;
},
{
layerId = "FCEAB5BF-AFE7-45BC-83DB-D0DE89866BD6";
width = 600;
}
);
unicode = FEA7;
},
{
color = 9;
glyphname = "dal-ar";
lastChange = "2019-05-17 23:32:30 +0000";
layers = (
{
anchors = (
{
name = bottom;
position = "{330, 0}";
},
{
name = top;
position = "{300, 320}";
}
);
background = {
paths = (
{
closed = 1;
nodes = (
"500 220 LINE SMOOTH",
"500 260 OFFCURVE",
"444 316 OFFCURVE",
"400 316 QCURVE SMOOTH",
"238 316 LINE SMOOTH",
"217 316 OFFCURVE",
"193 333 QCURVE SMOOTH",
"171 348 OFFCURVE",
"160 367 QCURVE",
"160 216 LINE",
"357 216 LINE SMOOTH",
"371 216 OFFCURVE",
"400 193 OFFCURVE",
"400 179 QCURVE SMOOTH",
"400 117 LINE",
"104 117 LINE",
"104 0 LINE",
"452 0 LINE SMOOTH",
"473 0 OFFCURVE",
"500 29 OFFCURVE",
"500 50 QCURVE SMOOTH"
);
}
);
};
layerId = "65DE19D7-C0F2-4D8D-9C1D-34999E633ECA";
paths = (
{
closed = 1;
nodes = (
"160 320 LINE",
"160 220 LINE",
"420 220 LINE",
"420 100 LINE",
"110 100 LINE",
"110 80 LINE",
"163 0 LINE",
"540 0 LINE",
"540 180 LINE SMOOTH",
"540 260 OFFCURVE",
"480 320 OFFCURVE",
"380 320 CURVE SMOOTH"
);
}
);
width = 660;
},
{
layerId = "FCEAB5BF-AFE7-45BC-83DB-D0DE89866BD6";
width = 600;
}
);
unicode = 062F;
userData = {
com.typemytype.robofont.mark = (
0.6,
0.986,
1,
1
);
};
},
{
color = 5;
glyphname = "dal-ar.fina";
lastChange = "2019-05-17 23:32:30 +0000";
layers = (
{
background = {
paths = (
{
closed = 1;
nodes = (
"570 117 LINE",
"500 117 LINE",
"500 220 LINE SMOOTH",
"500 260 OFFCURVE",
"444 316 OFFCURVE",
"400 316 QCURVE SMOOTH",
"238 316 LINE SMOOTH",
"217 316 OFFCURVE",
"193 333 QCURVE SMOOTH",
"171 348 OFFCURVE",
"160 367 QCURVE",
"160 216 LINE",
"357 216 LINE SMOOTH",
"371 216 OFFCURVE",
"400 193 OFFCURVE",
"400 179 QCURVE SMOOTH",
"400 117 LINE",
"104 117 LINE",
"104 0 LINE",
"570 0 LINE"
);
}
);
};
components = (
{
name = "dal-ar";
}
);
layerId = "65DE19D7-C0F2-4D8D-9C1D-34999E633ECA";
paths = (
{
closed = 1;
nodes = (
"665 0 LINE",
"665 100 LINE",
"520 100 LINE",
"520 0 LINE"
);
}
);
width = 660;
},
{
layerId = "FCEAB5BF-AFE7-45BC-83DB-D0DE89866BD6";
width = 600;
}
);
unicode = FEAA;
},
{
color = 4;
glyphname = "thal-ar";
lastChange = "2019-05-17 23:32:30 +0000";
layers = (
{
background = {
paths = (
{
closed = 1;
nodes = (
"280 602 OFFCURVE",
"252 630 OFFCURVE",
"230 630 QCURVE SMOOTH",
"208 630 OFFCURVE",
"180 602 OFFCURVE",
"180 580 QCURVE SMOOTH",
"180 558 OFFCURVE",
"208 530 OFFCURVE",
"230 530 QCURVE SMOOTH",
"252 530 OFFCURVE",
"280 558 OFFCURVE",
"280 580 QCURVE SMOOTH"
);
},
{
closed = 1;
nodes = (
"500 220 LINE SMOOTH",
"500 260 OFFCURVE",
"444 316 OFFCURVE",
"400 316 QCURVE SMOOTH",
"238 316 LINE SMOOTH",
"217 316 OFFCURVE",
"193 333 QCURVE SMOOTH",
"171 348 OFFCURVE",
"160 367 QCURVE",
"160 216 LINE",
"357 216 LINE SMOOTH",
"371 216 OFFCURVE",
"400 193 OFFCURVE",
"400 179 QCURVE SMOOTH",
"400 117 LINE",
"104 117 LINE",
"104 0 LINE",
"452 0 LINE SMOOTH",
"473 0 OFFCURVE",
"500 29 OFFCURVE",
"500 50 QCURVE SMOOTH"
);
}
);
};
components = (
{
name = "thal-ar.isol";
}
);
layerId = "65DE19D7-C0F2-4D8D-9C1D-34999E633ECA";
width = 660;
},
{
layerId = "FCEAB5BF-AFE7-45BC-83DB-D0DE89866BD6";
width = 600;
}
);
unicode = 0630;
userData = {
com.typemytype.robofont.mark = (
0.6,
0.609,
1,
1
);
};
},
{
color = 4;
glyphname = "thal-ar.fina";
lastChange = "2019-05-17 23:32:30 +0000";
layers = (
{
background = {
paths = (
{
closed = 1;
nodes = (
"280 602 OFFCURVE",
"252 630 OFFCURVE",
"230 630 QCURVE SMOOTH",
"208 630 OFFCURVE",
"180 602 OFFCURVE",
"180 580 QCURVE SMOOTH",
"180 558 OFFCURVE",
"208 530 OFFCURVE",
"230 530 QCURVE SMOOTH",
"252 530 OFFCURVE",
"280 558 OFFCURVE",
"280 580 QCURVE SMOOTH"
);
},
{
closed = 1;
nodes = (
"570 117 LINE",
"500 117 LINE",
"500 220 LINE SMOOTH",
"500 260 OFFCURVE",
"444 316 OFFCURVE",
"400 316 QCURVE SMOOTH",
"238 316 LINE SMOOTH",
"217 316 OFFCURVE",
"193 333 QCURVE SMOOTH",
"171 348 OFFCURVE",
"160 367 QCURVE",
"160 216 LINE",
"357 216 LINE SMOOTH",
"371 216 OFFCURVE",
"400 193 OFFCURVE",
"400 179 QCURVE SMOOTH",
"400 117 LINE",
"104 117 LINE",
"104 0 LINE",
"570 0 LINE"
);
}
);
};
components = (
{
name = "dal-ar.fina";
},
{
name = "dotabove-ar";
transform = "{1, 0, 0, 1, 136, -180}";
}
);
layerId = "65DE19D7-C0F2-4D8D-9C1D-34999E633ECA";
width = 660;
},
{
layerId = "FCEAB5BF-AFE7-45BC-83DB-D0DE89866BD6";
width = 600;
}
);
unicode = FEAC;
userData = {
com.typemytype.robofont.mark = (
0.6,
0.609,
1,
1
);
};
},
{
color = 9;
glyphname = "reh-ar";
lastChange = "2019-05-17 23:40:42 +0000";
layers = (
{
anchors = (
{
name = bottom;
position = "{120, -200}";
},
{
name = init;
position = "{240, 100}";
},
{
name = top;
position = "{190, 350}";
}
);
background = {
paths = (
{
closed = 1;
nodes = (
"300 235 LINE",
"220 195 OFFCURVE",
"216 191 QCURVE SMOOTH",
"184 167 OFFCURVE",
"184 113 QCURVE SMOOTH",
"184 -57 LINE",
"55 -57 LINE",
"60 -108 OFFCURVE",
"132 -168 OFFCURVE",
"184 -168 QCURVE SMOOTH",
"235 -168 OFFCURVE",
"300 -107 OFFCURVE",
"300 -57 QCURVE SMOOTH"
);
}
);
};
layerId = "65DE19D7-C0F2-4D8D-9C1D-34999E633ECA";
paths = (
{
closed = 1;
nodes = (
"73 -200 LINE",
"120 -200 LINE SMOOTH",
"239 -200 OFFCURVE",
"300 -140 OFFCURVE",
"300 -40 CURVE SMOOTH",
"300 270 LINE",
"246 350 LINE",
"180 350 LINE",
"180 -40 LINE SMOOTH",
"180 -80 OFFCURVE",
"159 -100 OFFCURVE",
"120 -100 CURVE SMOOTH",
"20 -100 LINE",
"20 -120 LINE"
);
}
);
width = 420;
},
{
layerId = "FCEAB5BF-AFE7-45BC-83DB-D0DE89866BD6";
width = 600;
}
);
unicode = 0631;
},
{
color = 9;
glyphname = "reh-ar.fina";
lastChange = "2019-05-17 23:40:54 +0000";
layers = (
{
background = {
paths = (
{
closed = 1;
nodes = (
"430 117 LINE",
"300 117 LINE",
"300 235 LINE",
"220 195 OFFCURVE",
"216 191 QCURVE SMOOTH",
"184 167 OFFCURVE",
"184 113 QCURVE SMOOTH",
"184 -57 LINE",
"55 -57 LINE",
"60 -106 OFFCURVE",
"134 -173 OFFCURVE",
"184 -173 QCURVE SMOOTH",
"233 -173 OFFCURVE",
"300 -106 OFFCURVE",
"300 -57 QCURVE SMOOTH",
"300 0 LINE",
"430 0 LINE"
);
}
);
};
components = (
{
name = "reh-ar";
},
{
name = arab.005;
transform = "{1, 0, 0, 1, 60, 0}";
}
);
layerId = "65DE19D7-C0F2-4D8D-9C1D-34999E633ECA";
width = 420;
},
{
layerId = "FCEAB5BF-AFE7-45BC-83DB-D0DE89866BD6";
width = 600;
}
);
leftMetricsKey = "reh-ar";
unicode = FEAE;
userData = {
com.typemytype.robofont.mark = (
0.6,
0.986,
1,
1
);
};
},
{
color = 4;
glyphname = "zain-ar";
lastChange = "2019-05-17 23:32:30 +0000";
layers = (
{
background = {
paths = (
{
closed = 1;
nodes = (
"270 457 OFFCURVE",
"242 485 OFFCURVE",
"220 485 QCURVE SMOOTH",
"198 485 OFFCURVE",
"170 457 OFFCURVE",
"170 435 QCURVE SMOOTH",
"170 413 OFFCURVE",
"198 385 OFFCURVE",
"220 385 QCURVE SMOOTH",
"242 385 OFFCURVE",
"270 413 OFFCURVE",
"270 435 QCURVE SMOOTH"
);
},
{
closed = 1;
nodes = (
"300 235 LINE",
"220 195 OFFCURVE",
"216 191 QCURVE SMOOTH",
"184 167 OFFCURVE",
"184 113 QCURVE SMOOTH",
"184 -57 LINE",
"55 -57 LINE",
"60 -108 OFFCURVE",
"132 -168 OFFCURVE",
"184 -168 QCURVE SMOOTH",
"235 -168 OFFCURVE",
"300 -107 OFFCURVE",
"300 -57 QCURVE SMOOTH"
);
}
);
};
components = (
{
name = "reh-ar";
},
{
name = "dotabove-ar";
transform = "{1, 0, 0, 1, 26, -150}";
}
);
layerId = "65DE19D7-C0F2-4D8D-9C1D-34999E633ECA";
width = 420;
},
{
layerId = "FCEAB5BF-AFE7-45BC-83DB-D0DE89866BD6";
width = 600;
}
);
unicode = 0632;
userData = {
com.typemytype.robofont.mark = (
0.6,
0.609,
1,
1
);
};
},
{
color = 4;
glyphname = "zain-ar.fina";
lastChange = "2019-05-17 23:32:30 +0000";
layers = (
{
background = {
paths = (
{
closed = 1;
nodes = (
"270 457 OFFCURVE",
"242 485 OFFCURVE",
"220 485 QCURVE SMOOTH",
"198 485 OFFCURVE",
"170 457 OFFCURVE",
"170 435 QCURVE SMOOTH",
"170 413 OFFCURVE",
"198 385 OFFCURVE",
"220 385 QCURVE SMOOTH",
"242 385 OFFCURVE",
"270 413 OFFCURVE",
"270 435 QCURVE SMOOTH"
);
},
{
closed = 1;
nodes = (
"430 117 LINE",
"300 117 LINE",
"300 235 LINE",
"220 195 OFFCURVE",
"216 191 QCURVE SMOOTH",
"184 167 OFFCURVE",
"184 113 QCURVE SMOOTH",
"184 -57 LINE",
"55 -57 LINE",
"60 -106 OFFCURVE",
"134 -173 OFFCURVE",
"184 -173 QCURVE SMOOTH",
"233 -173 OFFCURVE",
"300 -106 OFFCURVE",
"300 -57 QCURVE SMOOTH",
"300 0 LINE",
"430 0 LINE"
);
}
);
};
components = (
{
name = "reh-ar.fina";
},
{
name = "dotabove-ar";
transform = "{1, 0, 0, 1, 26, -150}";
}
);
layerId = "65DE19D7-C0F2-4D8D-9C1D-34999E633ECA";
width = 420;
},
{
layerId = "FCEAB5BF-AFE7-45BC-83DB-D0DE89866BD6";
width = 600;
}
);
unicode = FEB0;
userData = {
com.typemytype.robofont.mark = (
0.6,
0.609,
1,
1
);
};
},
{
color = 9;
glyphname = "seen-ar";
lastChange = "2019-05-17 23:42:28 +0000";
layers = (
{
anchors = (
{
name = bottom;
position = "{900, 0}";
},
{
name = init;
position = "{1200, 100}";
},
{
name = top;
position = "{900, 400}";
}
);
background = {
paths = (
{
closed = 1;
nodes = (
"800 316 LINE",
"724 278 LINE SMOOTH",
"701 267 OFFCURVE",
"701 232 QCURVE SMOOTH",
"701 117 LINE",
"629 117 LINE",
"629 280 LINE",
"551 241 OFFCURVE",
"545 237 QCURVE SMOOTH",
"529 224 OFFCURVE",
"529 188 QCURVE SMOOTH",
"529 181 OFFCURVE",
"530 135 OFFCURVE",
"530 117 QCURVE",
"456 117 LINE",
"456 233 LINE",
"424 219 OFFCURVE",
"393 205 QCURVE",
"356 186 OFFCURVE",
"343 160 QCURVE SMOOTH",
"334 143 OFFCURVE",
"333 116 QCURVE SMOOTH",
"332 99 OFFCURVE",
"334 65 QCURVE SMOOTH",
"337 28 OFFCURVE",
"337 14 QCURVE",
"337 14 LINE",
"337 -44 OFFCURVE",
"277 -95 OFFCURVE",
"233 -95 QCURVE SMOOTH",
"185 -95 OFFCURVE",
"159 -65 QCURVE SMOOTH",
"140 -42 OFFCURVE",
"131 5 QCURVE",
"125 46 OFFCURVE",
"120 87 QCURVE",
"59 63 OFFCURVE",
"59 -32 QCURVE SMOOTH",
"59 -108 OFFCURVE",
"122 -156 QCURVE SMOOTH",
"179 -201 OFFCURVE",
"257 -201 QCURVE SMOOTH",
"338 -201 OFFCURVE",
"456 -81 OFFCURVE",
"455 0 QCURVE",
"744 0 LINE SMOOTH",
"800 0 OFFCURVE",
"800 48 QCURVE SMOOTH"
);
}
);
};
layerId = "65DE19D7-C0F2-4D8D-9C1D-34999E633ECA";
paths = (
{
closed = 1;
nodes = (
"540 200 LINE",
"540 -40 LINE SMOOTH",
"540 -80 OFFCURVE",
"519 -100 OFFCURVE",
"480 -100 CURVE SMOOTH",
"240 -100 LINE",
"240 150 LINE",
"120 150 LINE",
"120 -60 LINE SMOOTH",
"120 -140 OFFCURVE",
"180 -200 OFFCURVE",
"280 -200 CURVE SMOOTH",
"480 -200 LINE SMOOTH",
"599 -200 OFFCURVE",
"660 -140 OFFCURVE",
"660 -40 CURVE SMOOTH",
"660 200 LINE"
);
},
{
closed = 1;
nodes = (
"840 400 LINE",
"840 160 LINE SMOOTH",
"840 120 OFFCURVE",
"819 100 OFFCURVE",
"780 100 CURVE SMOOTH",
"660 100 LINE",
"660 270 LINE",
"606 350 LINE",
"540 350 LINE",
"540 140 LINE SMOOTH",
"540 60 OFFCURVE",
"600 0 OFFCURVE",
"700 0 CURVE SMOOTH",
"780 0 LINE SMOOTH",
"899 0 OFFCURVE",
"960 60 OFFCURVE",
"960 160 CURVE SMOOTH",
"960 400 LINE"
);
},
{
closed = 1;
nodes = (
"1206 500 LINE",
"1140 500 LINE",
"1140 160 LINE SMOOTH",
"1140 120 OFFCURVE",
"1119 100 OFFCURVE",
"1080 100 CURVE SMOOTH",
"960 100 LINE",
"960 350 LINE",
"840 350 LINE",
"840 140 LINE SMOOTH",
"840 60 OFFCURVE",
"900 0 OFFCURVE",
"1000 0 CURVE SMOOTH",
"1080 0 LINE SMOOTH",
"1199 0 OFFCURVE",
"1260 60 OFFCURVE",
"1260 160 CURVE SMOOTH",
"1260 420 LINE"
);
}
);
width = 1380;
},
{
layerId = "FCEAB5BF-AFE7-45BC-83DB-D0DE89866BD6";
width = 600;
}
);
unicode = 0633;
},
{
color = 4;
glyphname = "seen-ar.fina";
lastChange = "2019-05-17 23:42:34 +0000";
layers = (
{
background = {
paths = (
{
closed = 1;
nodes = (
"870 117 LINE",
"800 117 LINE",
"800 316 LINE",
"724 278 LINE SMOOTH",
"701 267 OFFCURVE",
"701 232 QCURVE SMOOTH",
"701 117 LINE",
"629 117 LINE",
"629 280 LINE",
"551 241 OFFCURVE",
"545 237 QCURVE SMOOTH",
"529 224 OFFCURVE",
"529 188 QCURVE SMOOTH",
"529 181 OFFCURVE",
"530 135 OFFCURVE",
"530 117 QCURVE",
"456 117 LINE",
"456 233 LINE",
"424 219 OFFCURVE",
"393 205 QCURVE",
"356 186 OFFCURVE",
"343 160 QCURVE SMOOTH",
"333 139 OFFCURVE",
"333 104 QCURVE SMOOTH",
"333 90 OFFCURVE",
"337 29 OFFCURVE",
"337 14 QCURVE SMOOTH",
"337 -44 OFFCURVE",
"277 -95 OFFCURVE",
"233 -95 QCURVE SMOOTH",
"185 -95 OFFCURVE",
"159 -65 QCURVE SMOOTH",
"140 -42 OFFCURVE",
"131 5 QCURVE",
"125 46 OFFCURVE",
"120 87 QCURVE",
"59 63 OFFCURVE",
"59 -32 QCURVE SMOOTH",
"59 -108 OFFCURVE",
"122 -156 QCURVE SMOOTH",
"179 -201 OFFCURVE",
"257 -201 QCURVE SMOOTH",
"338 -201 OFFCURVE",
"456 -81 OFFCURVE",
"455 0 QCURVE",
"870 0 LINE"
);
}
);
};
components = (
{
name = "seen-ar";
},
{
name = arab.005;
transform = "{1, 0, 0, 1, 1020, 0}";
}
);
layerId = "65DE19D7-C0F2-4D8D-9C1D-34999E633ECA";
width = 1380;
},
{
layerId = "FCEAB5BF-AFE7-45BC-83DB-D0DE89866BD6";
width = 600;
}
);
leftMetricsKey = "seen-ar";
unicode = FEB2;
userData = {
com.typemytype.robofont.mark = (
0.6,
0.986,
1,
1
);
};
},
{
color = 9;
glyphname = "seen-ar.medi";
lastChange = "2019-05-17 23:42:44 +0000";
layers = (
{
background = {
paths = (
{
closed = 1;
nodes = (
"621 117 LINE",
"550 117 LINE",
"550 316 LINE",
"474 278 LINE SMOOTH",
"451 267 OFFCURVE",
"451 232 QCURVE SMOOTH",
"451 117 LINE",
"379 117 LINE",
"379 280 LINE",
"300 241 OFFCURVE",
"295 237 QCURVE SMOOTH",
"279 224 OFFCURVE",
"279 188 QCURVE SMOOTH",
"279 181 OFFCURVE",
"280 135 OFFCURVE",
"280 117 QCURVE",
"206 117 LINE",
"206 233 LINE",
"163 211 OFFCURVE",
"119 189 QCURVE",
"107 178 OFFCURVE",
"107 117 QCURVE",
"0 117 LINE",
"-70 0 LINE",
"621 0 LINE"
);
}
);
};
components = (
{
name = "seen-ar.init";
},
{
name = arab.005;
transform = "{1, 0, 0, 1, 660, 0}";
}
);
layerId = "65DE19D7-C0F2-4D8D-9C1D-34999E633ECA";
width = 1020;
},
{
layerId = "FCEAB5BF-AFE7-45BC-83DB-D0DE89866BD6";
width = 600;
}
);
leftMetricsKey = "seen-ar.init";
unicode = FEB4;
userData = {
com.typemytype.robofont.mark = (
0.6,
0.986,
1,
1
);
};
},
{
color = 9;
glyphname = "seen-ar.init";
lastChange = "2019-05-17 23:41:08 +0000";
layers = (
{
anchors = (
{
name = bottom;
position = "{540, 0}";
},
{
name = init;
position = "{840, 100}";
},
{
name = top;
position = "{540, 400}";
}
);
background = {
paths = (
{
closed = 1;
nodes = (
"550 316 LINE",
"476 279 OFFCURVE",
"466 271 QCURVE SMOOTH",
"449 256 OFFCURVE",
"449 219 QCURVE SMOOTH",
"449 211 OFFCURVE",
"451 145 OFFCURVE",
"451 117 QCURVE",
"379 117 LINE",
"379 280 LINE",
"300 241 OFFCURVE",
"295 237 QCURVE SMOOTH",
"279 224 OFFCURVE",
"279 188 QCURVE SMOOTH",
"279 182 OFFCURVE",
"280 135 OFFCURVE",
"280 117 QCURVE",
"206 117 LINE",
"206 233 LINE",
"123 191 LINE SMOOTH",
"108 184 OFFCURVE",
"106 157 QCURVE SMOOTH",
"107 167 OFFCURVE",
"107 117 QCURVE",
"0 117 LINE",
"-70 0 LINE",
"494 0 LINE SMOOTH",
"550 0 OFFCURVE",
"550 48 QCURVE SMOOTH"
);
}
);
};
layerId = "65DE19D7-C0F2-4D8D-9C1D-34999E633ECA";
paths = (
{
closed = 1;
nodes = (
"-5 0 LINE",
"120 0 LINE SMOOTH",
"239 0 OFFCURVE",
"300 60 OFFCURVE",
"300 160 CURVE SMOOTH",
"300 200 LINE",
"180 200 LINE",
"180 160 LINE SMOOTH",
"180 120 OFFCURVE",
"159 100 OFFCURVE",
"120 100 CURVE SMOOTH",
"-5 100 LINE"
);
},
{
closed = 1;
nodes = (
"480 400 LINE",
"480 160 LINE SMOOTH",
"480 120 OFFCURVE",
"459 100 OFFCURVE",
"420 100 CURVE SMOOTH",
"240 100 LINE",
"300 185 LINE",
"300 270 LINE",
"246 350 LINE",
"180 350 LINE",
"180 140 LINE SMOOTH",
"180 60 OFFCURVE",
"240 0 OFFCURVE",
"340 0 CURVE SMOOTH",
"420 0 LINE SMOOTH",
"539 0 OFFCURVE",
"600 60 OFFCURVE",
"600 160 CURVE SMOOTH",
"600 400 LINE"
);
},
{
closed = 1;
nodes = (
"846 500 LINE",
"780 500 LINE",
"780 160 LINE SMOOTH",
"780 120 OFFCURVE",
"759 100 OFFCURVE",
"720 100 CURVE SMOOTH",
"600 100 LINE",
"600 350 LINE",
"480 350 LINE",
"480 140 LINE SMOOTH",
"480 60 OFFCURVE",
"540 0 OFFCURVE",
"640 0 CURVE SMOOTH",
"720 0 LINE SMOOTH",
"839 0 OFFCURVE",
"900 60 OFFCURVE",
"900 160 CURVE SMOOTH",
"900 420 LINE"
);
}
);
width = 1020;
},
{
layerId = "FCEAB5BF-AFE7-45BC-83DB-D0DE89866BD6";
width = 600;
}
);
rightMetricsKey = "seen-ar";
unicode = FEB3;
},
{
color = 4;
glyphname = "sheen-ar";
lastChange = "2019-05-17 23:32:30 +0000";
layers = (
{
background = {
paths = (
{
closed = 1;
nodes = (
"651 625 OFFCURVE",
"633 639 QCURVE SMOOTH",
"617 651 OFFCURVE",
"593 651 QCURVE SMOOTH",
"569 651 OFFCURVE",
"552 639 QCURVE SMOOTH",
"534 625 OFFCURVE",
"534 602 QCURVE SMOOTH",
"534 579 OFFCURVE",
"552 566 QCURVE SMOOTH",
"569 554 OFFCURVE",
"593 554 QCURVE SMOOTH",
"617 554 OFFCURVE",
"633 566 QCURVE SMOOTH",
"651 579 OFFCURVE",
"651 602 QCURVE SMOOTH"
);
},
{
closed = 1;
nodes = (
"751 505 OFFCURVE",
"732 519 QCURVE SMOOTH",
"716 531 OFFCURVE",
"692 531 QCURVE SMOOTH",
"668 531 OFFCURVE",
"651 519 QCURVE SMOOTH",
"633 505 OFFCURVE",
"633 482 QCURVE SMOOTH",
"633 459 OFFCURVE",
"651 446 QCURVE SMOOTH",
"668 434 OFFCURVE",
"692 434 QCURVE SMOOTH",
"716 434 OFFCURVE",
"732 446 QCURVE SMOOTH",
"751 459 OFFCURVE",
"751 482 QCURVE SMOOTH"
);
},
{
closed = 1;
nodes = (
"551 505 OFFCURVE",
"533 519 QCURVE SMOOTH",
"517 531 OFFCURVE",
"493 531 QCURVE SMOOTH",
"469 531 OFFCURVE",
"453 519 QCURVE SMOOTH",
"434 505 OFFCURVE",
"434 482 QCURVE SMOOTH",
"434 459 OFFCURVE",
"453 446 QCURVE SMOOTH",
"469 434 OFFCURVE",
"493 434 QCURVE SMOOTH",
"517 434 OFFCURVE",
"533 446 QCURVE SMOOTH",
"551 459 OFFCURVE",
"551 482 QCURVE SMOOTH"
);
},
{
closed = 1;
nodes = (
"800 316 LINE",
"724 278 LINE SMOOTH",
"701 267 OFFCURVE",
"701 232 QCURVE SMOOTH",
"701 117 LINE",
"629 117 LINE",
"629 280 LINE",
"551 241 OFFCURVE",
"545 237 QCURVE SMOOTH",
"529 224 OFFCURVE",
"529 188 QCURVE SMOOTH",
"529 181 OFFCURVE",
"530 135 OFFCURVE",
"530 117 QCURVE",
"456 117 LINE",
"456 233 LINE",
"424 219 OFFCURVE",
"393 205 QCURVE",
"356 186 OFFCURVE",
"343 160 QCURVE SMOOTH",
"334 143 OFFCURVE",
"333 116 QCURVE SMOOTH",
"332 99 OFFCURVE",
"334 65 QCURVE SMOOTH",
"337 28 OFFCURVE",
"337 14 QCURVE",
"337 14 LINE",
"337 -44 OFFCURVE",
"277 -95 OFFCURVE",
"233 -95 QCURVE SMOOTH",
"185 -95 OFFCURVE",
"159 -65 QCURVE SMOOTH",
"140 -42 OFFCURVE",
"131 5 QCURVE",
"125 46 OFFCURVE",
"120 87 QCURVE",
"59 63 OFFCURVE",
"59 -32 QCURVE SMOOTH",
"59 -108 OFFCURVE",
"122 -156 QCURVE SMOOTH",
"179 -201 OFFCURVE",
"257 -201 QCURVE SMOOTH",
"338 -201 OFFCURVE",
"456 -81 OFFCURVE",
"455 0 QCURVE",
"744 0 LINE SMOOTH",
"800 0 OFFCURVE",
"800 48 QCURVE SMOOTH"
);
}
);
};
components = (
{
name = "seen-ar";
},
{
name = "threedotsupabove-ar";
transform = "{1, 0, 0, 1, 646, -100}";
}
);
layerId = "65DE19D7-C0F2-4D8D-9C1D-34999E633ECA";
width = 1380;
},
{
layerId = "FCEAB5BF-AFE7-45BC-83DB-D0DE89866BD6";
width = 600;
}
);
unicode = 0634;
userData = {
com.typemytype.robofont.mark = (
0.6,
0.986,
1,
1
);
};
},
{
color = 4;
glyphname = "sheen-ar.fina";
lastChange = "2019-05-17 23:45:35 +0000";
layers = (
{
background = {
paths = (
{
closed = 1;
nodes = (
"679 605 OFFCURVE",
"662 618 QCURVE SMOOTH",
"646 630 OFFCURVE",
"623 630 QCURVE SMOOTH",
"600 630 OFFCURVE",
"584 618 QCURVE SMOOTH",
"566 605 OFFCURVE",
"566 583 QCURVE SMOOTH",
"566 561 OFFCURVE",
"584 548 QCURVE SMOOTH",
"600 536 OFFCURVE",
"623 536 QCURVE SMOOTH",
"646 536 OFFCURVE",
"679 561 OFFCURVE",
"679 583 QCURVE SMOOTH"
);
},
{
closed = 1;
nodes = (
"776 488 OFFCURVE",
"758 501 QCURVE SMOOTH",
"742 513 OFFCURVE",
"719 513 QCURVE SMOOTH",
"696 513 OFFCURVE",
"680 501 QCURVE SMOOTH",
"662 488 OFFCURVE",
"662 466 QCURVE SMOOTH",
"662 444 OFFCURVE",
"680 431 QCURVE SMOOTH",
"696 419 OFFCURVE",
"719 419 QCURVE SMOOTH",
"742 419 OFFCURVE",
"776 444 OFFCURVE",
"776 466 QCURVE SMOOTH"
);
},
{
closed = 1;
nodes = (
"583 488 OFFCURVE",
"565 501 QCURVE SMOOTH",
"549 513 OFFCURVE",
"526 513 QCURVE SMOOTH",
"503 513 OFFCURVE",
"487 501 QCURVE SMOOTH",
"469 488 OFFCURVE",
"469 466 QCURVE SMOOTH",
"469 444 OFFCURVE",
"487 431 QCURVE SMOOTH",
"503 419 OFFCURVE",
"526 419 QCURVE SMOOTH",
"549 419 OFFCURVE",
"565 431 QCURVE SMOOTH",
"583 444 OFFCURVE",
"583 466 QCURVE SMOOTH"
);
},
{
closed = 1;
nodes = (
"870 117 LINE",
"800 117 LINE",
"800 316 LINE",
"724 278 LINE SMOOTH",
"701 267 OFFCURVE",
"701 232 QCURVE SMOOTH",
"701 117 LINE",
"629 117 LINE",
"629 280 LINE",
"551 241 OFFCURVE",
"545 237 QCURVE SMOOTH",
"529 224 OFFCURVE",
"529 188 QCURVE SMOOTH",
"529 181 OFFCURVE",
"530 135 OFFCURVE",
"530 117 QCURVE",
"456 117 LINE",
"456 233 LINE",
"424 219 OFFCURVE",
"393 205 QCURVE",
"356 186 OFFCURVE",
"343 160 QCURVE SMOOTH",
"333 139 OFFCURVE",
"333 104 QCURVE SMOOTH",
"333 90 OFFCURVE",
"337 29 OFFCURVE",
"337 14 QCURVE SMOOTH",
"337 -44 OFFCURVE",
"277 -95 OFFCURVE",
"233 -95 QCURVE SMOOTH",
"185 -95 OFFCURVE",
"159 -65 QCURVE SMOOTH",
"140 -42 OFFCURVE",
"131 5 QCURVE",
"125 46 OFFCURVE",
"120 87 QCURVE",
"59 63 OFFCURVE",
"59 -32 QCURVE SMOOTH",
"59 -108 OFFCURVE",
"122 -156 QCURVE SMOOTH",
"179 -201 OFFCURVE",
"257 -201 QCURVE SMOOTH",
"338 -201 OFFCURVE",
"456 -81 OFFCURVE",
"455 0 QCURVE",
"870 0 LINE"
);
}
);
};
components = (
{
name = "seen-ar.fina";
},
{
name = "threedotsupabove-ar";
transform = "{1, 0, 0, 1, 646, -100}";
}
);
layerId = "65DE19D7-C0F2-4D8D-9C1D-34999E633ECA";
width = 1380;
},
{
layerId = "FCEAB5BF-AFE7-45BC-83DB-D0DE89866BD6";
width = 600;
}
);
unicode = FEB6;
userData = {
com.typemytype.robofont.mark = (
0.6,
0.986,
1,
1
);
};
},
{
color = 4;
glyphname = "sheen-ar.medi";
lastChange = "2019-05-17 23:32:30 +0000";
layers = (
{
background = {
paths = (
{
closed = 1;
nodes = (
"368 623 OFFCURVE",
"338 650 OFFCURVE",
"315 650 QCURVE SMOOTH",
"261 650 OFFCURVE",
"261 600 QCURVE SMOOTH",
"261 550 OFFCURVE",
"315 550 QCURVE SMOOTH",
"338 550 OFFCURVE",
"368 578 OFFCURVE",
"368 600 QCURVE SMOOTH"
);
},
{
closed = 1;
nodes = (
"459 498 OFFCURVE",
"429 525 OFFCURVE",
"406 525 QCURVE SMOOTH",
"352 525 OFFCURVE",
"352 475 QCURVE SMOOTH",
"352 425 OFFCURVE",
"406 425 QCURVE SMOOTH",
"429 425 OFFCURVE",
"459 453 OFFCURVE",
"459 475 QCURVE SMOOTH"
);
},
{
closed = 1;
nodes = (
"277 498 OFFCURVE",
"247 525 OFFCURVE",
"224 525 QCURVE SMOOTH",
"170 525 OFFCURVE",
"170 475 QCURVE SMOOTH",
"170 425 OFFCURVE",
"224 425 QCURVE SMOOTH",
"247 425 OFFCURVE",
"277 453 OFFCURVE",
"277 475 QCURVE SMOOTH"
);
},
{
closed = 1;
nodes = (
"621 117 LINE",
"550 117 LINE",
"550 316 LINE",
"474 278 LINE SMOOTH",
"451 267 OFFCURVE",
"451 232 QCURVE SMOOTH",
"451 117 LINE",
"379 117 LINE",
"379 280 LINE",
"300 241 OFFCURVE",
"295 237 QCURVE SMOOTH",
"279 224 OFFCURVE",
"279 188 QCURVE SMOOTH",
"279 181 OFFCURVE",
"280 135 OFFCURVE",
"280 117 QCURVE",
"206 117 LINE",
"206 233 LINE",
"163 211 OFFCURVE",
"119 189 QCURVE",
"107 178 OFFCURVE",
"107 117 QCURVE",
"0 117 LINE",
"-70 0 LINE",
"621 0 LINE"
);
}
);
};
components = (
{
name = "seen-ar.medi";
},
{
name = "threedotsupabove-ar";
transform = "{1, 0, 0, 1, 286, -100}";
}
);
layerId = "65DE19D7-C0F2-4D8D-9C1D-34999E633ECA";
width = 1020;
},
{
layerId = "FCEAB5BF-AFE7-45BC-83DB-D0DE89866BD6";
width = 600;
}
);
unicode = FEB8;
userData = {
com.typemytype.robofont.mark = (
0.6,
0.986,
1,
1
);
};
},
